<?xml version="1.0" encoding="utf-8"?>
<!-- Generator: Adobe Illustrator 16.0.0, SVG Export Plug-In . SVG Version: 6.00 Build 0)  -->
<!DOCTYPE svg PUBLIC "-//W3C//DTD SVG 1.1//EN" "http://www.w3.org/Graphics/SVG/1.1/DTD/svg11.dtd">
<svg version="1.1" id="Layer_1" xmlns="http://www.w3.org/2000/svg" xmlns:xlink="http://www.w3.org/1999/xlink" x="0px" y="0px"
	 width="337.333px" height="463px" viewBox="0 0 337.333 463" enable-background="new 0 0 337.333 463" xml:space="preserve">
<path fill="#FFF0CA" d="M79.464,0c12.493,11.449,64.961,18.571,73.956,20.57c8.995,1.998,31.481,7.578,29.482,13.075
	c-1.999,5.497-35.979,9.996-48.471,10.495c-12.493,0.5-107.604,1.668-108.271,42.311c-0.666,40.643,92.613,49.312,184.558,61.971
	c50.512,6.954,94.785,25.578,126.533,50.449V0H79.464z"/>
<g id="Layer_2" display="none">
	<g display="inline">
		<g>
			
				<linearGradient id="SVGID_1_" gradientUnits="userSpaceOnUse" x1="-247.4795" y1="943.2998" x2="-209.395" y2="908.324" gradientTransform="matrix(1 0 0 -1 694 1068)">
				<stop  offset="0" style="stop-color:#3978DB"/>
				<stop  offset="1" style="stop-color:#5C9CFF"/>
			</linearGradient>
			<path fill="url(#SVGID_1_)" d="M489.813,139.87c0-13.223-10.721-23.942-23.943-23.942c-13.221,0-23.941,10.719-23.941,23.942
				c0,19.625,23.941,37.308,23.941,37.308S489.813,159.496,489.813,139.87z"/>
			<path fill="#226CE0" d="M487.276,140.578c0-11.822-9.584-21.405-21.406-21.405c-11.82,0-21.404,9.583-21.404,21.405
				c0,17.546,21.404,33.354,21.404,33.354S487.276,158.124,487.276,140.578z"/>
		</g>
		
			<radialGradient id="SVGID_2_" cx="-228.1294" cy="631.665" r="23.7714" gradientTransform="matrix(1 0 0 -0.4 694 442.999)" gradientUnits="userSpaceOnUse">
			<stop  offset="0" style="stop-color:#004F54;stop-opacity:0.2"/>
			<stop  offset="1" style="stop-color:#004C54;stop-opacity:0"/>
		</radialGradient>
		<ellipse fill="url(#SVGID_2_)" cx="465.87" cy="190.333" rx="31.34" ry="12.163"/>
		<path fill="#76FFE8" d="M477,134h-1c-0.732,0-1.41,0.378-2,0.723v-2.556c0-0.552-0.447-1.167-1-1.167h-15
			c-0.553,0-1,0.614-1,1.167v21c0,0.552,0.447,0.833,1,0.833h15c0.553,0,1-0.281,1-0.833v-2.556c0.59,0.344,1.268,0.39,2,0.39h1
			c2.205,0,4-1.628,4-3.833v-9C481,135.961,479.206,134,477,134z M472,151c0,0.552-0.447,1-1,1h-11c-0.553,0-1-0.448-1-1v-12
			c0-0.552,0.447-1,1-1h11c0.553,0,1,0.448,1,1V151z M479,147c0,1.104-0.896,2-2,2h-1c-1.104,0-2-0.896-2-2v-9c0-1.104,0.896-2,2-2
			h1c1.104,0,2,0.896,2,2V147z"/>
	</g>
	<g display="inline">
		<g>
			
				<linearGradient id="SVGID_3_" gradientUnits="userSpaceOnUse" x1="-434.0713" y1="1039.1191" x2="-409.1805" y2="1016.2603" gradientTransform="matrix(1 0 0 -1 694 1068)">
				<stop  offset="0" style="stop-color:#3978DB"/>
				<stop  offset="1" style="stop-color:#5C9CFF"/>
			</linearGradient>
			<path fill="url(#SVGID_3_)" d="M288.223,38.795c0-8.642-7.006-15.647-15.646-15.647c-8.642,0-15.648,7.005-15.648,15.647
				c0,12.827,15.648,24.383,15.648,24.383S288.223,51.622,288.223,38.795z"/>
			<path fill="#226CE0" d="M286.564,39.258c0-7.726-6.265-13.989-13.989-13.989s-13.988,6.263-13.988,13.989
				c0,11.467,13.988,21.799,13.988,21.799S286.564,50.725,286.564,39.258z"/>
		</g>
		
			<radialGradient id="SVGID_4_" cx="-421.1299" cy="750.667" r="12.5891" gradientTransform="matrix(1 0 0 -0.4 694 371.5996)" gradientUnits="userSpaceOnUse">
			<stop  offset="0" style="stop-color:#004F54;stop-opacity:0.2"/>
			<stop  offset="1" style="stop-color:#004C54;stop-opacity:0"/>
		</radialGradient>
		<ellipse fill="url(#SVGID_4_)" cx="272.87" cy="71.333" rx="16.598" ry="6.441"/>
		<g>
			<path fill="#76FFE8" d="M263.234,43.551c0.202-0.242,0.388-0.499,0.61-0.721c3.214-3.23,6.434-6.456,9.65-9.683
				c0.049-0.051,0.08-0.119,0.131-0.198c0.559,0.883,0.916,1.771,1.086,2.732c0.326,1.833,0.043,3.572-0.877,5.188
				c-0.902,1.583-2.224,2.697-3.931,3.343c-1.118,0.422-2.274,0.569-3.461,0.451c-1.151-0.115-2.217-0.487-3.209-1.077
				C263.234,43.574,263.234,43.563,263.234,43.551z"/>
			<path fill="#76FFE8" d="M269.965,50.245c-0.146-0.308-0.301-0.612-0.434-0.925c-0.459-1.074-0.66-2.196-0.629-3.365
				c0.004-0.15,0.053-0.205,0.194-0.234c1.202-0.248,2.301-0.737,3.293-1.458c1.366-0.993,2.388-2.266,3.012-3.838
				c0.208-0.526,0.337-1.084,0.495-1.629c0.025-0.09,0.042-0.145,0.154-0.15c1.572-0.068,3.029,0.309,4.373,1.125
				c0.02,0.012,0.035,0.029,0.104,0.083c-0.07,0.046-0.139,0.078-0.188,0.127c-3.268,3.272-6.532,6.546-9.803,9.818
				c-0.164,0.164-0.356,0.297-0.535,0.445C269.989,50.245,269.977,50.245,269.965,50.245z"/>
			<path fill="#76FFE8" d="M281.663,37.864c-0.097,0.299-0.188,0.6-0.285,0.898c-0.012,0.038-0.037,0.072-0.065,0.121
				c-1.595-1.028-3.335-1.52-5.249-1.459c0.048-1.907-0.434-3.65-1.477-5.243c0.279-0.178,0.57-0.273,0.877-0.327
				c0.052-0.009,0.102-0.025,0.152-0.037c0.18,0,0.359,0,0.539,0c0.02,0.011,0.039,0.028,0.061,0.032
				c0.971,0.176,1.635,0.723,1.988,1.646c0.021,0.056,0.09,0.109,0.147,0.132c0.724,0.277,1.224,0.776,1.503,1.5
				c0.025,0.066,0.096,0.139,0.161,0.164c0.733,0.28,1.235,0.784,1.5,1.521c0.06,0.167,0.099,0.341,0.146,0.513
				C281.663,37.504,281.663,37.684,281.663,37.864z"/>
			<path fill="#76FFE8" d="M264.224,45.4c1.079,0.384,2.241,0.571,3.457,0.519c-0.028,1.235,0.163,2.414,0.601,3.577
				C266.905,48.106,265.551,46.739,264.224,45.4z"/>
		</g>
	</g>
	<g display="inline">
		<g>
			<g>
				
					<linearGradient id="SVGID_5_" gradientUnits="userSpaceOnUse" x1="-383.6206" y1="780.0186" x2="-305.2305" y2="708.0272" gradientTransform="matrix(1 0 0 -1 694 1068)">
					<stop  offset="0" style="stop-color:#3978DB"/>
					<stop  offset="1" style="stop-color:#5C9CFF"/>
				</linearGradient>
				<path fill="url(#SVGID_5_)" d="M399.491,319.209c0-27.217-22.064-49.281-49.281-49.281c-27.219,0-49.281,22.064-49.281,49.281
					c0,40.396,49.281,76.791,49.281,76.791S399.491,359.604,399.491,319.209z"/>
				<path fill="#226CE0" d="M394.268,320.666c0-24.333-19.727-44.059-44.059-44.059s-44.059,19.726-44.059,44.059
					c0,36.115,44.059,68.654,44.059,68.654S394.268,356.781,394.268,320.666z"/>
			</g>
		</g>
		
			<radialGradient id="SVGID_6_" cx="-344.1304" cy="405.6699" r="40.7329" gradientTransform="matrix(1 0 0 -0.4 694 578.5996)" gradientUnits="userSpaceOnUse">
			<stop  offset="0" style="stop-color:#004F54;stop-opacity:0.3"/>
			<stop  offset="1" style="stop-color:#004C54;stop-opacity:0"/>
		</radialGradient>
		<ellipse fill="url(#SVGID_6_)" cx="349.87" cy="416.332" rx="53.703" ry="20.843"/>
		<g>
			<path fill="#76FFE8" d="M371,304.971c0,1.358-1.762,5.029-3.123,5.029H334.2c-1.359,0-4.199-3.671-4.199-5.029v-0.824
				c0-2.465,2.41-4.004,5.799-4.927c8.133-2.22,20.648-2.702,29.51,0c2.668,0.814,5.691,2.259,5.691,4.927V304.971z"/>
			<path fill="#76FFE8" d="M330,333.062c0-1.363,2.84-5.062,4.199-5.062h33.678c1.361,0,3.123,3.698,3.123,5.062v0.818
				c0,2.467-1.871,4.004-5.254,4.93c-8.137,2.221-20.924,2.702-29.783,0c-2.67-0.812-5.963-2.261-5.963-4.93V333.062z"/>
			<rect x="330" y="321" fill="#76FFE8" width="41" height="5"/>
			<g>
				<path fill="#76FFE8" d="M331.133,319.448c-0.355,0-0.709-0.138-0.977-0.407c-0.539-0.537-0.539-1.41,0-1.95
					c2.557-2.556,5.738-5.737,10.268-2.567c3.375,2.359,6.646,2.562,10.014,0.613c4.246-2.467,7.082-3.084,11.693,0.053
					c3.266,2.22,4.258,1.539,6.658-0.761c0.549-0.526,1.424-0.509,1.949,0.04c0.527,0.553,0.506,1.426-0.039,1.95
					c-3.213,3.076-5.66,4.085-10.121,1.051c-3.279-2.233-4.834-2.223-8.76,0.052c-4.268,2.472-8.754,2.217-12.975-0.734
					c-2.396-1.682-3.82-0.66-6.738,2.255C331.836,319.311,331.483,319.448,331.133,319.448z"/>
			</g>
		</g>
	</g>
</g>
<path fill="#DFF7F6" d="M265.186,68.888C248.363,60.393,237.37,44,237.37,44h-26.65c0.665,11-10.869,16.06-10.869,16.06
	c7.954,10.244,19.779,19.782,48.014,33.024c28.233,13.243,64.461,21.453,64.461,21.453l16.657-22.001
	C302.164,85.872,282.008,77.383,265.186,68.888z"/>
<path fill="#DFF7F6" d="M336.356,94.107l-14.015,22.736c3.409,0.825,8.554,1.983,14.909,3.318v-25.81
	C336.668,94.196,336.356,94.107,336.356,94.107z"/>
<path fill="#DFF7F6" d="M209.552,36h26.693c0,0,2.186-8.568-1.312-14.189C231.436,16.188,223.502,8.178,197.268,0h-62.837
	c0,0,31.865,3.445,51.245,13.106C205.056,22.769,208.387,30,209.552,36z"/>
<path fill="#FFF0CA" d="M328.317,381.992C280.344,418.971,101.451,463,101.451,463h235.8v-87.916
	C334.377,377.319,331.4,379.616,328.317,381.992z"/>
<path fill="#F3F9D9" d="M306.664,119.76l-15.992,24.651c16.575,5.493,32.422,13.301,46.579,21.622v-38.636
	C317.786,123.064,306.664,119.76,306.664,119.76z"/>
<path fill="#FFF6E3" d="M215.241,121.092c38.477,7.995,63.542,18.239,63.542,18.239l18.158-21.737
	c-17.923-4.777-52.717-18.489-52.717-18.489L215.241,121.092z"/>
<path fill="#FFF6E3" d="M215.241,83.115l-42.975,18.488l31.232,17.615l32.229-24.361C225.848,90.067,215.241,83.115,215.241,83.115z
	"/>
<path fill="#FFF6E3" d="M149.029,111.597c0,0,11.744,2.249,35.479,5.997l-21.237-11.993L149.029,111.597z"/>
<polygon fill="#FFF6E3" points="123.545,83.115 150.279,70.122 109.554,71.871 91.564,78.866 86.317,93.857 104.306,105.601 
	131.791,108.599 153.028,99.104 "/>
<path fill="#FFF6E3" d="M62.331,89.36c0,0,4.249,3.498,8.995,5.497c0,0,9.744-5.746,8.745-15.991
	C80.07,78.866,72.575,79.366,62.331,89.36z"/>
<path fill="#FFF6E3" d="M163.021,96.606l21.487-8.745c-11.992-6.996-26.483-13.993-26.483-13.993l-20.739,9.246L163.021,96.606z"/>
<path fill="#FFF6E3" d="M205.747,78.866l-15.492-15.74c-10.243,1-25.234,6.996-25.234,6.996l25.36,13.451L205.747,78.866z"/>
<path fill="#FFF6E3" d="M306.602,59.128l-33.146,7.662c0,0,25.151,12.492,59.964,21.737c1.28,0.34,2.558,0.668,3.831,0.99V75.112
	L306.602,59.128z"/>
<path fill="#FFF6E3" d="M266.625,63.126l34.314-7.329l-22.157-13.325l-34.644,0.666C254.465,56.63,266.625,63.126,266.625,63.126z"
	/>
<path fill="#FFF6E3" d="M276.346,36l-16.49-25.081l-22.736,3.367c0,0,3.414,1.279,5.913,6.776C245.531,26.559,243.366,36,243.366,36
	H276.346z"/>
<path fill="#FFF6E3" d="M268.351,6.245L245.531,0H208.22c0,0,16.156,5.538,26.15,12.368L268.351,6.245z"/>
<polygon fill="#FFF6E3" points="282.508,7.494 268.351,9.713 272.349,16 288.34,16 "/>
<polygon fill="#FFF6E3" points="289.171,6.198 299.333,18 274.347,18 278.345,25 321.987,25 302.332,3.529 "/>
<polygon fill="#FFF6E3" points="297,1.248 295.668,0 257.524,0 273.931,4.704 "/>
<polygon fill="#FFF6E3" points="322.069,30 280.844,30 285.341,36 316.655,36 "/>
<polygon fill="#FFF6E3" points="320.927,43.138 289.613,42.472 337.25,67.791 337.25,49.647 "/>
<polygon fill="#FFF6E3" points="329.922,31 325.924,38.402 337.25,43.064 337.25,31 "/>
<path fill="#FFF6E3" d="M310.66,4.034L313.493,7h23.758V3.376C321.854,3.559,310.66,4.034,310.66,4.034z"/>
<polygon fill="#FFF6E3" points="324.237,18.042 330.981,25 337.25,25 337.25,18.206 "/>
<polygon fill="#FFF6E3" points="315.324,9 320.986,16 337.25,16 337.25,9 "/>
</svg>
