<?xml version="1.0" encoding="utf-8"?>
<!-- Generator: Adobe Illustrator 16.0.0, SVG Export Plug-In . SVG Version: 6.00 Build 0)  -->
<!DOCTYPE svg PUBLIC "-//W3C//DTD SVG 1.1//EN" "http://www.w3.org/Graphics/SVG/1.1/DTD/svg11.dtd">
<svg version="1.1" id="Layer_1" xmlns="http://www.w3.org/2000/svg" xmlns:xlink="http://www.w3.org/1999/xlink" x="0px" y="0px"
	 width="533px" height="463px" viewBox="0 0 533 463" enable-background="new 0 0 533 463" xml:space="preserve">
<g>
	<path fill="#67E0D2" d="M100,463c0,0,179-44,227-81s70.998-55,58.331-112.334C372.664,212.333,301.332,161,209.332,148.333
		S23.999,127,24.665,86.333S120.5,44.5,133,44s46.5-5,48.5-10.5s-20.5-11-29.5-13S90.5,11,78,0h455v463H100z"/>
	<path fill="#AAF5F0" d="M502,463l-12-21h-64c0,0-8.333,11.666-19.333,21H502z"/>
	<path fill="#AAF5F0" d="M532.834,454.833L512,430h-78c0,0,8.999-15,13.333-23H533L532.834,454.833z"/>
	<path fill="#AAF5F0" d="M452,390c0,0,6.333-13,8-35.666L497.334,390H452z"/>
	<polygon fill="#AAF5F0" points="533,387.666 459,318.666 533,298.666 533,318 481,331.666 488.005,338.334 533,326.631 533,348.75 
		506.505,355.25 515.002,363 533,358.334 	"/>
	<path fill="#AAF5F0" d="M533,277.5l-78.333,22.334c0,0,2.334,5.666,3.334,11.166L533,290V277.5z"/>
	<path fill="#AAF5F0" d="M450.333,286.667c0,0-15.667-38.334-42.333-62.667l13.334-26.666l94.333,14l-7.763,59.189L450.333,286.667z
		"/>
	<polygon fill="#A9F9BC" points="533,202.667 453.333,192.667 457.666,144.333 493.834,146.667 533,180.333 	"/>
	<polygon fill="#A9F9BC" points="505.584,147 533,147 533,170 	"/>
	<path fill="#A9F9BC" d="M395.334,210c0,0-48.667-46.667-106-65.667l16-24.667c0,0,58.333,17.333,141.666,24.667L440.334,191
		L408,186.667L395.334,210z"/>
	<path fill="#AAF5F0" d="M278.83,139.25c0,0-25.08-10.25-63.58-18.25l29-22c0,0,34.814,13.721,52.75,18.5L278.83,139.25z"/>
	<path fill="#AAF5F0" d="M203.5,119.125L172.25,101.5l43-18.5c0,0,10.614,6.958,20.5,11.75L203.5,119.125z"/>
	<path fill="#AAF5F0" d="M184.5,117.5l-21.25-12l-14.25,6C149,111.5,160.75,113.75,184.5,117.5z"/>
	<polygon fill="#AAF5F0" points="153,99 131.75,108.5 104.25,105.5 86.25,93.75 91.5,78.75 109.5,71.75 150.25,70 123.5,83 	"/>
	<path fill="#AAF5F0" d="M71.25,94.75c0,0,9.75-5.75,8.75-16c0,0-7.5,0.5-17.75,10.5C62.25,89.25,66.5,92.75,71.25,94.75z"/>
	<path fill="#AAF5F0" d="M184.5,87.75L163,96.5L137.25,83L158,73.75C158,73.75,172.5,80.75,184.5,87.75z"/>
	<path fill="#AAF5F0" d="M165,70c0,0,15-6,25.25-7l15.5,15.75l-15.375,4.708L165,70z"/>
	<path fill="#34F3FD" d="M198.458,59.5c0,0,11.542-4.5,10.875-16.5H236c0,0,11,16.834,27.833,25.334s36.999,17.167,63.833,23.833
		L311,114.334c0,0-36.25-8.334-64.5-21.584S206.416,69.75,198.458,59.5z"/>
	<path fill="#34F3FD" d="M321,116.75L335,94c0,0,27,7.75,75,11.375S533,107,533,107v34c0,0-86.5-4.5-122.25-8.5
		S334.496,120.014,321,116.75z"/>
	<path fill="#34F3FD" d="M234.875,36c0,0,2.188-8.562-1.312-14.188S222.125,8.25,195.875,0H133c0,0,31.883,3.437,51.275,13.104
		C203.667,22.771,207.001,29,208.167,36H234.875z"/>
	<path fill="#A9F9BC" d="M413.917,69.584c0,0-64.208,0.875-63.708,0.042S357,57,357,57h42L413.917,69.584z"/>
	<polygon fill="#AAF5F0" points="493.25,100.875 533,69.985 533,101 	"/>
	<path fill="#AAF5F0" d="M526.25,62.25l-33-5.25c0,0-2.5,5-14.5,11.25S440.5,75,440.5,75l31,26L526.25,62.25z"/>
	<path fill="#AAF5F0" d="M533,60.125l-38.625-5.938c0,0,0.625-8.188-8.625-12.188H533V60.125z"/>
	<path fill="#AAF5F0" d="M475.25,42c0,0,5.875,3.75,5.25,10.25s-11.501,14.554-47.667,17.735L412.167,52l4.333-10H475.25z"/>
	<polygon fill="#AAF5F0" points="418.833,76 445,100.833 411.167,99.25 390.5,76 	"/>
	<path fill="#AAF5F0" d="M379.166,76l-41.5-0.833l-31-16.167L273.5,66.667c0,0,25.167,12.499,60,21.75S401.166,100,401.166,100
		L379.166,76z"/>
	<path fill="#AAF5F0" d="M301,55.667L266.666,63c0,0-12.167-6.5-22.5-20l34.664-0.667L301,55.667z"/>
	<path fill="#AAF5F0" d="M242,36h33l-16.5-25.167l-22.75,3.333c0,0,3.416,1.333,5.916,6.833S242,36,242,36z"/>
	<path fill="#AAF5F0" d="M206.833,0c0,0,16.167,5.5,26.167,12.333l34-6.167L244.166,0H206.833z"/>
	<polygon fill="#AAF5F0" points="287,15 271,15 267,9 281.166,6.833 	"/>
	<polygon fill="#AAF5F0" points="273,18 298,18 287.833,6.167 301,3.417 320.666,25 277,25 	"/>
	<polygon fill="#AAF5F0" points="256.166,0 272.583,4.667 295.666,1.167 294.333,0 	"/>
	<polygon fill="#AAF5F0" points="320.75,29 315.333,36 284,36 279.5,29 	"/>
	<polygon fill="#AAF5F0" points="348.166,53.834 337.333,67.667 289.666,42.333 321,43 	"/>
	<polygon fill="#AAF5F0" points="399.166,51.062 404.833,40.75 375.666,31 330,31 326,38.334 354.833,50.167 	"/>
	<polygon fill="#AAF5F0" points="383.25,27.834 408.166,36 460,36 396.333,18.5 	"/>
	<polygon fill="#AAF5F0" points="399.333,16.167 435,26 453.167,17.667 408.167,10 	"/>
	<path fill="#AAF5F0" d="M462.666,20c0,0,33.166,7,57,15.167l-50,0.833c0,0-8.667-4.167-26-8.75L462.666,20z"/>
	<path fill="#AAF5F0" d="M533,20c0,0-4.668-2-15.834-4.5L533,14.834V20z"/>
	<path fill="#AAF5F0" d="M379.833,22.833L356.499,6h-44.331l-2.835-2.583c0,0,33.001-1.084,63.667,0l28.166,5.917L379.833,22.833z"
		/>
	<polygon fill="#AAF5F0" points="374.5,25 365.416,18.5 322.918,18 329.666,25 	"/>
	<polygon fill="#AAF5F0" points="360.666,15 354.5,9 314,9 319.666,15 	"/>
	<path fill="#34F3FD" d="M533.125,36c0,0-35.729-13.082-79.896-21.166S371,0,371,0h49c0,0,43.75,6.417,113,22.833L533.125,36z"/>
	<path fill="#AAF5F0" d="M434.001,0c0,0,20.834,3.5,35.5,5.833L533,7.667V0H434.001z"/>
</g>
<g>
	<g>
		<linearGradient id="SVGID_1_" gradientUnits="userSpaceOnUse" x1="310.3789" y1="287.9824" x2="388.7691" y2="359.9738">
			<stop  offset="0" style="stop-color:#3978DB"/>
			<stop  offset="1" style="stop-color:#5C9CFF"/>
		</linearGradient>
		<path fill="url(#SVGID_1_)" d="M399.49,319.209c0-27.217-22.064-49.281-49.281-49.281c-27.218,0-49.281,22.064-49.281,49.281
			c0,40.396,49.281,76.791,49.281,76.791S399.49,359.604,399.49,319.209z"/>
		<path fill="#226CE0" d="M394.268,320.666c0-24.333-19.727-44.059-44.059-44.059s-44.059,19.726-44.059,44.059
			c0,36.115,44.059,68.655,44.059,68.655S394.268,356.781,394.268,320.666z"/>
	</g>
</g>
<g>
	<linearGradient id="SVGID_2_" gradientUnits="userSpaceOnUse" x1="446.5195" y1="124.7007" x2="484.6036" y2="159.6761">
		<stop  offset="0" style="stop-color:#3978DB"/>
		<stop  offset="1" style="stop-color:#5C9CFF"/>
	</linearGradient>
	<path fill="url(#SVGID_2_)" d="M489.812,139.87c0-13.223-10.72-23.942-23.942-23.942s-23.942,10.719-23.942,23.942
		c0,19.625,23.942,37.308,23.942,37.308S489.812,159.496,489.812,139.87z"/>
	<path fill="#226CE0" d="M487.275,140.578c0-11.822-9.584-21.405-21.405-21.405s-21.405,9.583-21.405,21.405
		c0,17.546,21.405,33.354,21.405,33.354S487.275,158.124,487.275,140.578z"/>
</g>
<g>
	<linearGradient id="SVGID_3_" gradientUnits="userSpaceOnUse" x1="259.9282" y1="28.8804" x2="284.8186" y2="51.739">
		<stop  offset="0" style="stop-color:#3978DB"/>
		<stop  offset="1" style="stop-color:#5C9CFF"/>
	</linearGradient>
	<path fill="url(#SVGID_3_)" d="M288.223,38.795c0-8.642-7.006-15.647-15.647-15.647s-15.647,7.005-15.647,15.647
		c0,12.827,15.647,24.383,15.647,24.383S288.223,51.622,288.223,38.795z"/>
	<path fill="#226CE0" d="M286.564,39.258c0-7.726-6.264-13.989-13.989-13.989s-13.989,6.263-13.989,13.989
		c0,11.467,13.989,21.799,13.989,21.799S286.564,50.725,286.564,39.258z"/>
</g>
<radialGradient id="SVGID_4_" cx="465.8701" cy="190.3325" r="23.7703" gradientTransform="matrix(1 0 0 0.4 0 114.1995)" gradientUnits="userSpaceOnUse">
	<stop  offset="0" style="stop-color:#004F54;stop-opacity:0.2"/>
	<stop  offset="1" style="stop-color:#004C54;stop-opacity:0"/>
</radialGradient>
<ellipse fill="url(#SVGID_4_)" cx="465.87" cy="190.333" rx="31.339" ry="12.163"/>
<radialGradient id="SVGID_5_" cx="272.8701" cy="71.3325" r="12.5885" gradientTransform="matrix(1 0 0 0.4 0 42.7995)" gradientUnits="userSpaceOnUse">
	<stop  offset="0" style="stop-color:#004F54;stop-opacity:0.2"/>
	<stop  offset="1" style="stop-color:#004C54;stop-opacity:0"/>
</radialGradient>
<ellipse fill="url(#SVGID_5_)" cx="272.87" cy="71.333" rx="16.597" ry="6.441"/>
<radialGradient id="SVGID_6_" cx="349.8701" cy="416.332" r="40.7336" gradientTransform="matrix(1 0 0 0.4 0 249.7992)" gradientUnits="userSpaceOnUse">
	<stop  offset="0" style="stop-color:#004F54;stop-opacity:0.3"/>
	<stop  offset="1" style="stop-color:#004C54;stop-opacity:0"/>
</radialGradient>
<ellipse fill="url(#SVGID_6_)" cx="349.87" cy="416.332" rx="53.703" ry="20.843"/>
<path fill="#76FFE8" d="M477,134h-1c-0.732,0-1.409,0.378-2,0.723v-2.556c0-0.552-0.447-1.167-1-1.167h-15c-0.553,0-1,0.614-1,1.167
	v21c0,0.552,0.447,0.833,1,0.833h15c0.553,0,1-0.281,1-0.833v-2.556c0.591,0.344,1.268,0.39,2,0.39h1c2.206,0,4-1.628,4-3.833v-9
	C481,135.961,479.206,134,477,134z M472,151c0,0.552-0.447,1-1,1h-11c-0.553,0-1-0.448-1-1v-12c0-0.552,0.447-1,1-1h11
	c0.553,0,1,0.448,1,1V151z M479,147c0,1.104-0.896,2-2,2h-1c-1.104,0-2-0.896-2-2v-9c0-1.104,0.896-2,2-2h1c1.104,0,2,0.896,2,2V147
	z"/>
<g>
	<path fill-rule="evenodd" clip-rule="evenodd" fill="#76FFE8" d="M321.223,334.146c0.638-0.759,1.222-1.567,1.919-2.268
		c10.113-10.16,20.242-20.307,30.361-30.46c0.157-0.157,0.252-0.374,0.413-0.621c1.755,2.775,2.877,5.571,3.415,8.594
		c1.026,5.767,0.139,11.237-2.76,16.32c-2.839,4.978-6.993,8.485-12.363,10.517c-3.515,1.328-7.154,1.793-10.888,1.419
		c-3.621-0.36-6.976-1.533-10.098-3.388C321.223,334.221,321.223,334.186,321.223,334.146z"/>
	<path fill-rule="evenodd" clip-rule="evenodd" fill="#76FFE8" d="M342.396,355.206c-0.454-0.969-0.94-1.925-1.36-2.909
		c-1.445-3.378-2.078-6.91-1.979-10.584c0.01-0.473,0.161-0.645,0.608-0.737c3.782-0.781,7.24-2.32,10.36-4.589
		c4.299-3.123,7.512-7.128,9.476-12.072c0.656-1.653,1.061-3.409,1.559-5.125c0.082-0.283,0.133-0.455,0.489-0.471
		c4.943-0.215,9.524,0.972,13.753,3.539c0.061,0.037,0.113,0.092,0.323,0.264c-0.222,0.145-0.438,0.242-0.592,0.4
		c-10.28,10.294-20.551,20.595-30.838,30.885c-0.515,0.515-1.12,0.936-1.686,1.399C342.471,355.206,342.434,355.206,342.396,355.206
		z"/>
	<path fill-rule="evenodd" clip-rule="evenodd" fill="#76FFE8" d="M379.195,316.257c-0.3,0.942-0.594,1.887-0.896,2.827
		c-0.038,0.119-0.12,0.226-0.208,0.383c-5.015-3.237-10.489-4.78-16.511-4.592c0.151-6-1.362-11.484-4.644-16.494
		c0.874-0.561,1.791-0.859,2.756-1.028c0.162-0.028,0.321-0.078,0.479-0.117c0.566,0,1.133,0,1.698,0
		c0.063,0.035,0.123,0.089,0.189,0.101c3.056,0.554,5.142,2.273,6.256,5.178c0.064,0.176,0.28,0.343,0.464,0.414
		c2.279,0.872,3.848,2.442,4.729,4.719c0.081,0.208,0.3,0.437,0.507,0.516c2.308,0.879,3.889,2.465,4.716,4.783
		c0.189,0.527,0.312,1.075,0.464,1.613C379.195,315.125,379.195,315.691,379.195,316.257z"/>
	<path fill-rule="evenodd" clip-rule="evenodd" fill="#76FFE8" d="M324.338,339.963c3.394,1.208,7.048,1.798,10.874,1.633
		c-0.09,3.883,0.513,7.594,1.891,11.251C332.773,348.478,328.514,344.178,324.338,339.963z"/>
</g>
<g>
	<path fill="#76FFE8" d="M281,34.044c0,0.562-0.793,1.956-1.354,1.956h-13.897c-0.561,0-1.748-1.394-1.748-1.956v-0.339
		c0-1.017,1.002-1.652,2.4-2.034c3.356-0.916,8.558-1.115,12.214,0c1.102,0.336,2.386,0.933,2.386,2.034V34.044z"/>
	<path fill="#76FFE8" d="M264,43.986c0-0.562,1.188-1.986,1.748-1.986h13.897c0.562,0,1.354,1.424,1.354,1.986v0.339
		c0,1.018-0.805,1.652-2.201,2.034c-3.357,0.916-8.658,1.115-12.314,0c-1.102-0.335-2.484-0.932-2.484-2.034V43.986z"/>
	<rect x="264" y="39" fill="#76FFE8" width="17" height="2"/>
	<g>
		<path fill="#76FFE8" d="M264.482,38.781c-0.146,0-0.292-0.056-0.402-0.167c-0.223-0.222-0.223-0.583,0-0.805
			c1.055-1.055,2.367-2.369,4.236-1.06c1.393,0.974,2.743,1.057,4.132,0.253c1.753-1.018,2.923-1.272,4.826,0.021
			c1.347,0.916,1.757,0.636,2.747-0.313c0.227-0.217,0.588-0.209,0.805,0.017c0.218,0.228,0.209,0.588-0.017,0.805
			c-1.325,1.269-2.335,1.685-4.176,0.433c-1.354-0.921-1.995-0.917-3.615,0.022c-1.761,1.02-3.612,0.914-5.354-0.304
			c-0.989-0.693-1.577-0.272-2.781,0.931C264.772,38.725,264.627,38.781,264.482,38.781z"/>
	</g>
</g>
</svg>
