<?xml version="1.0" encoding="utf-8"?>
<!-- Generator: Adobe Illustrator 16.0.0, SVG Export Plug-In . SVG Version: 6.00 Build 0)  -->
<!DOCTYPE svg PUBLIC "-//W3C//DTD SVG 1.1//EN" "http://www.w3.org/Graphics/SVG/1.1/DTD/svg11.dtd">
<svg version="1.1" id="Layer_1" xmlns="http://www.w3.org/2000/svg" xmlns:xlink="http://www.w3.org/1999/xlink" x="0px" y="0px"
	 width="533px" height="463px" viewBox="0 0 533 463" enable-background="new 0 0 533 463" xml:space="preserve">
<g>
	<path fill="#67E0D2" d="M100,463c0,0,179-44,227-81s70.998-55,58.331-112.334C372.664,212.333,301.332,161,209.332,148.333
		S23.999,127,24.665,86.333S120.5,44.5,133,44s46.5-5,48.5-10.5s-20.5-11-29.5-13S90.5,11,78,0h455v463H100z"/>
	<path fill="#AAF5F0" d="M502,463l-12-21h-64c0,0-8.333,11.666-19.333,21H502z"/>
	<path fill="#AAF5F0" d="M532.834,454.833L512,430h-78c0,0,8.999-15,13.333-23H533L532.834,454.833z"/>
	<path fill="#AAF5F0" d="M452,390c0,0,6.333-13,8-35.666L497.334,390H452z"/>
	<polygon fill="#AAF5F0" points="533,387.666 459,318.666 533,298.666 533,318 481,331.666 488.005,338.334 533,326.631 533,348.75 
		506.505,355.25 515.002,363 533,358.334 	"/>
	<path fill="#AAF5F0" d="M533,277.5l-78.333,22.334c0,0,2.334,5.666,3.334,11.166L533,290V277.5z"/>
	<path fill="#AAF5F0" d="M450.333,286.667c0,0-15.667-38.334-42.333-62.667l13.334-26.666l94.333,14l-7.763,59.189L450.333,286.667z
		"/>
	<polygon fill="#A9F9BC" points="533,202.667 453.333,192.667 457.666,144.333 493.834,146.667 533,180.333 	"/>
	<polygon fill="#A9F9BC" points="505.584,147 533,147 533,170 	"/>
	<path fill="#A9F9BC" d="M395.334,210c0,0-48.667-46.667-106-65.667l16-24.667c0,0,58.333,17.333,141.666,24.667L440.334,191
		L408,186.667L395.334,210z"/>
	<path fill="#AAF5F0" d="M278.83,139.25c0,0-25.08-10.25-63.58-18.25l29-22c0,0,34.814,13.721,52.75,18.5L278.83,139.25z"/>
	<path fill="#AAF5F0" d="M203.5,119.125L172.25,101.5l43-18.5c0,0,10.614,6.958,20.5,11.75L203.5,119.125z"/>
	<path fill="#AAF5F0" d="M184.5,117.5l-21.25-12l-14.25,6C149,111.5,160.75,113.75,184.5,117.5z"/>
	<polygon fill="#AAF5F0" points="153,99 131.75,108.5 104.25,105.5 86.25,93.75 91.5,78.75 109.5,71.75 150.25,70 123.5,83 	"/>
	<path fill="#AAF5F0" d="M71.25,94.75c0,0,9.75-5.75,8.75-16c0,0-7.5,0.5-17.75,10.5C62.25,89.25,66.5,92.75,71.25,94.75z"/>
	<path fill="#AAF5F0" d="M184.5,87.75L163,96.5L137.25,83L158,73.75C158,73.75,172.5,80.75,184.5,87.75z"/>
	<path fill="#AAF5F0" d="M165,70c0,0,15-6,25.25-7l15.5,15.75l-15.375,4.708L165,70z"/>
	<path fill="#34F3FD" d="M198.458,59.5c0,0,11.542-4.5,10.875-16.5H236c0,0,11,16.834,27.833,25.334s36.999,17.167,63.833,23.833
		L311,114.334c0,0-36.25-8.334-64.5-21.584S206.416,69.75,198.458,59.5z"/>
	<path fill="#34F3FD" d="M321,116.75L335,94c0,0,27,7.75,75,11.375S533,107,533,107v34c0,0-86.5-4.5-122.25-8.5
		S334.496,120.014,321,116.75z"/>
	<path fill="#34F3FD" d="M234.875,36c0,0,2.188-8.562-1.312-14.188S222.125,8.25,195.875,0H133c0,0,31.883,3.437,51.275,13.104
		C203.667,22.771,207.001,29,208.167,36H234.875z"/>
	<path fill="#A9F9BC" d="M413.917,69.584c0,0-64.208,0.875-63.708,0.042S357,57,357,57h42L413.917,69.584z"/>
	<polygon fill="#AAF5F0" points="493.25,100.875 533,69.985 533,101 	"/>
	<path fill="#AAF5F0" d="M526.25,62.25l-33-5.25c0,0-2.5,5-14.5,11.25S440.5,75,440.5,75l31,26L526.25,62.25z"/>
	<path fill="#AAF5F0" d="M533,60.125l-38.625-5.938c0,0,0.625-8.188-8.625-12.188H533V60.125z"/>
	<path fill="#AAF5F0" d="M475.25,42c0,0,5.875,3.75,5.25,10.25s-11.501,14.554-47.667,17.735L412.167,52l4.333-10H475.25z"/>
	<polygon fill="#AAF5F0" points="418.833,76 445,100.833 411.167,99.25 390.5,76 	"/>
	<path fill="#AAF5F0" d="M379.166,76l-41.5-0.833l-31-16.167L273.5,66.667c0,0,25.167,12.499,60,21.75S401.166,100,401.166,100
		L379.166,76z"/>
	<path fill="#AAF5F0" d="M301,55.667L266.666,63c0,0-12.167-6.5-22.5-20l34.664-0.667L301,55.667z"/>
	<path fill="#AAF5F0" d="M242,36h33l-16.5-25.167l-22.75,3.333c0,0,3.416,1.333,5.916,6.833S242,36,242,36z"/>
	<path fill="#AAF5F0" d="M206.833,0c0,0,16.167,5.5,26.167,12.333l34-6.167L244.166,0H206.833z"/>
	<polygon fill="#AAF5F0" points="287,15 271,15 267,9 281.166,6.833 	"/>
	<polygon fill="#AAF5F0" points="273,18 298,18 287.833,6.167 301,3.417 320.666,25 277,25 	"/>
	<polygon fill="#AAF5F0" points="256.166,0 272.583,4.667 295.666,1.167 294.333,0 	"/>
	<polygon fill="#AAF5F0" points="320.75,29 315.333,36 284,36 279.5,29 	"/>
	<polygon fill="#AAF5F0" points="348.166,53.834 337.333,67.667 289.666,42.333 321,43 	"/>
	<polygon fill="#AAF5F0" points="399.166,51.062 404.833,40.75 375.666,31 330,31 326,38.334 354.833,50.167 	"/>
	<polygon fill="#AAF5F0" points="383.25,27.834 408.166,36 460,36 396.333,18.5 	"/>
	<polygon fill="#AAF5F0" points="399.333,16.167 435,26 453.167,17.667 408.167,10 	"/>
	<path fill="#AAF5F0" d="M462.666,20c0,0,33.166,7,57,15.167l-50,0.833c0,0-8.667-4.167-26-8.75L462.666,20z"/>
	<path fill="#AAF5F0" d="M533,20c0,0-4.668-2-15.834-4.5L533,14.834V20z"/>
	<path fill="#AAF5F0" d="M379.833,22.833L356.499,6h-44.331l-2.835-2.583c0,0,33.001-1.084,63.667,0l28.166,5.917L379.833,22.833z"
		/>
	<polygon fill="#AAF5F0" points="374.5,25 365.416,18.5 322.918,18 329.666,25 	"/>
	<polygon fill="#AAF5F0" points="360.666,15 354.5,9 314,9 319.666,15 	"/>
	<path fill="#34F3FD" d="M533.125,36c0,0-35.729-13.082-79.896-21.166S371,0,371,0h49c0,0,43.75,6.417,113,22.833L533.125,36z"/>
	<path fill="#AAF5F0" d="M434.001,0c0,0,20.834,3.5,35.5,5.833L533,7.667V0H434.001z"/>
</g>
<g>
	<g>
		<linearGradient id="SVGID_1_" gradientUnits="userSpaceOnUse" x1="310.3789" y1="287.9824" x2="388.7691" y2="359.9738">
			<stop  offset="0" style="stop-color:#3978DB"/>
			<stop  offset="1" style="stop-color:#5C9CFF"/>
		</linearGradient>
		<path fill="url(#SVGID_1_)" d="M399.49,319.209c0-27.217-22.064-49.281-49.281-49.281c-27.218,0-49.281,22.064-49.281,49.281
			c0,40.396,49.281,76.791,49.281,76.791S399.49,359.604,399.49,319.209z"/>
		<path fill="#226CE0" d="M394.268,320.666c0-24.333-19.727-44.059-44.059-44.059s-44.059,19.726-44.059,44.059
			c0,36.115,44.059,68.655,44.059,68.655S394.268,356.781,394.268,320.666z"/>
	</g>
</g>
<g>
	<linearGradient id="SVGID_2_" gradientUnits="userSpaceOnUse" x1="446.5195" y1="124.7007" x2="484.6036" y2="159.6761">
		<stop  offset="0" style="stop-color:#3978DB"/>
		<stop  offset="1" style="stop-color:#5C9CFF"/>
	</linearGradient>
	<path fill="url(#SVGID_2_)" d="M489.812,139.87c0-13.223-10.72-23.942-23.942-23.942s-23.942,10.719-23.942,23.942
		c0,19.625,23.942,37.308,23.942,37.308S489.812,159.496,489.812,139.87z"/>
	<path fill="#226CE0" d="M487.275,140.578c0-11.822-9.584-21.405-21.405-21.405s-21.405,9.583-21.405,21.405
		c0,17.546,21.405,33.354,21.405,33.354S487.275,158.124,487.275,140.578z"/>
</g>
<g>
	<linearGradient id="SVGID_3_" gradientUnits="userSpaceOnUse" x1="259.9282" y1="28.8804" x2="284.8186" y2="51.739">
		<stop  offset="0" style="stop-color:#3978DB"/>
		<stop  offset="1" style="stop-color:#5C9CFF"/>
	</linearGradient>
	<path fill="url(#SVGID_3_)" d="M288.223,38.795c0-8.642-7.006-15.647-15.647-15.647s-15.647,7.005-15.647,15.647
		c0,12.827,15.647,24.383,15.647,24.383S288.223,51.622,288.223,38.795z"/>
	<path fill="#226CE0" d="M286.564,39.258c0-7.726-6.264-13.989-13.989-13.989s-13.989,6.263-13.989,13.989
		c0,11.467,13.989,21.799,13.989,21.799S286.564,50.725,286.564,39.258z"/>
</g>
<radialGradient id="SVGID_4_" cx="465.8701" cy="190.3325" r="23.7703" gradientTransform="matrix(1 0 0 0.4 0 114.1995)" gradientUnits="userSpaceOnUse">
	<stop  offset="0" style="stop-color:#004F54;stop-opacity:0.2"/>
	<stop  offset="1" style="stop-color:#004C54;stop-opacity:0"/>
</radialGradient>
<ellipse fill="url(#SVGID_4_)" cx="465.87" cy="190.333" rx="31.339" ry="12.163"/>
<radialGradient id="SVGID_5_" cx="272.8701" cy="71.3325" r="12.5885" gradientTransform="matrix(1 0 0 0.4 0 42.7995)" gradientUnits="userSpaceOnUse">
	<stop  offset="0" style="stop-color:#004F54;stop-opacity:0.2"/>
	<stop  offset="1" style="stop-color:#004C54;stop-opacity:0"/>
</radialGradient>
<ellipse fill="url(#SVGID_5_)" cx="272.87" cy="71.333" rx="16.597" ry="6.441"/>
<radialGradient id="SVGID_6_" cx="349.8701" cy="416.332" r="40.7336" gradientTransform="matrix(1 0 0 0.4 0 249.7992)" gradientUnits="userSpaceOnUse">
	<stop  offset="0" style="stop-color:#004F54;stop-opacity:0.3"/>
	<stop  offset="1" style="stop-color:#004C54;stop-opacity:0"/>
</radialGradient>
<ellipse fill="url(#SVGID_6_)" cx="349.87" cy="416.332" rx="53.703" ry="20.843"/>
<path fill="#76FFE8" d="M477,134h-1c-0.732,0-1.409,0.378-2,0.723v-2.556c0-0.552-0.447-1.167-1-1.167h-15c-0.553,0-1,0.614-1,1.167
	v21c0,0.552,0.447,0.833,1,0.833h15c0.553,0,1-0.281,1-0.833v-2.556c0.591,0.344,1.268,0.39,2,0.39h1c2.206,0,4-1.628,4-3.833v-9
	C481,135.961,479.206,134,477,134z M472,151c0,0.552-0.447,1-1,1h-11c-0.553,0-1-0.448-1-1v-12c0-0.552,0.447-1,1-1h11
	c0.553,0,1,0.448,1,1V151z M479,147c0,1.104-0.896,2-2,2h-1c-1.104,0-2-0.896-2-2v-9c0-1.104,0.896-2,2-2h1c1.104,0,2,0.896,2,2V147
	z"/>
<g>
	<path fill-rule="evenodd" clip-rule="evenodd" fill="#76FFE8" d="M263.234,43.551c0.202-0.242,0.388-0.499,0.61-0.721
		c3.214-3.23,6.434-6.456,9.651-9.683c0.049-0.051,0.08-0.119,0.131-0.198c0.558,0.883,0.915,1.771,1.085,2.732
		c0.327,1.833,0.044,3.572-0.877,5.188c-0.902,1.583-2.223,2.697-3.93,3.343c-1.118,0.422-2.274,0.569-3.461,0.451
		c-1.151-0.115-2.217-0.487-3.209-1.077C263.234,43.574,263.234,43.563,263.234,43.551z"/>
	<path fill-rule="evenodd" clip-rule="evenodd" fill="#76FFE8" d="M269.965,50.245c-0.145-0.308-0.3-0.612-0.433-0.925
		c-0.459-1.074-0.661-2.196-0.629-3.365c0.003-0.15,0.052-0.205,0.194-0.234c1.202-0.248,2.301-0.737,3.293-1.458
		c1.367-0.993,2.388-2.266,3.012-3.838c0.208-0.526,0.337-1.084,0.495-1.629c0.026-0.09,0.042-0.145,0.155-0.15
		c1.572-0.068,3.028,0.309,4.372,1.125c0.02,0.012,0.036,0.029,0.104,0.083c-0.07,0.046-0.139,0.078-0.188,0.127
		c-3.268,3.272-6.532,6.546-9.803,9.818c-0.164,0.164-0.356,0.297-0.535,0.445C269.988,50.245,269.977,50.245,269.965,50.245z"/>
	<path fill-rule="evenodd" clip-rule="evenodd" fill="#76FFE8" d="M281.662,37.864c-0.096,0.299-0.188,0.6-0.285,0.899
		c-0.012,0.038-0.037,0.072-0.065,0.121c-1.595-1.028-3.335-1.52-5.249-1.459c0.048-1.907-0.433-3.65-1.476-5.243
		c0.278-0.178,0.569-0.273,0.876-0.327c0.052-0.009,0.102-0.025,0.152-0.037c0.18,0,0.36,0,0.54,0
		c0.02,0.011,0.039,0.028,0.06,0.032c0.971,0.176,1.635,0.723,1.989,1.646c0.02,0.056,0.089,0.109,0.147,0.132
		c0.724,0.277,1.223,0.776,1.503,1.5c0.026,0.066,0.095,0.139,0.161,0.164c0.734,0.28,1.236,0.784,1.5,1.521
		c0.06,0.167,0.099,0.341,0.146,0.513C281.662,37.504,281.662,37.684,281.662,37.864z"/>
	<path fill-rule="evenodd" clip-rule="evenodd" fill="#76FFE8" d="M264.224,45.4c1.079,0.384,2.241,0.571,3.457,0.519
		c-0.028,1.235,0.163,2.414,0.601,3.577C266.905,48.106,265.552,46.739,264.224,45.4z"/>
</g>
<g>
	<path fill="#76FFE8" d="M371,304.971c0,1.358-1.762,5.029-3.122,5.029h-33.679c-1.358,0-4.199-3.671-4.199-5.029v-0.824
		c0-2.466,2.41-4.004,5.799-4.927c8.134-2.22,20.648-2.702,29.51,0c2.668,0.814,5.691,2.258,5.691,4.927V304.971z"/>
	<path fill="#76FFE8" d="M330,334.062c0-1.363,2.841-5.062,4.199-5.062h33.679c1.36,0,3.122,3.698,3.122,5.062v0.819
		c0,2.466-1.87,4.004-5.254,4.93c-8.137,2.22-20.924,2.702-29.783,0c-2.67-0.812-5.963-2.261-5.963-4.93V334.062z"/>
	<rect x="330" y="321" fill="#76FFE8" width="41" height="5"/>
	<g>
		<path fill="#76FFE8" d="M331.133,319.448c-0.355,0-0.708-0.138-0.976-0.407c-0.539-0.537-0.539-1.41,0-1.95
			c2.556-2.556,5.737-5.738,10.267-2.567c3.375,2.359,6.647,2.561,10.013,0.613c4.248-2.467,7.083-3.084,11.695,0.052
			c3.264,2.22,4.257,1.54,6.657-0.76c0.549-0.527,1.425-0.509,1.95,0.04c0.527,0.552,0.506,1.425-0.04,1.95
			c-3.212,3.076-5.659,4.085-10.12,1.051c-3.28-2.234-4.835-2.223-8.761,0.052c-4.267,2.471-8.754,2.216-12.974-0.735
			c-2.397-1.681-3.821-0.66-6.739,2.255C331.836,319.311,331.482,319.448,331.133,319.448z"/>
	</g>
</g>
</svg>
