<?xml version="1.0" encoding="utf-8"?>
<!-- Generator: Adobe Illustrator 16.0.0, SVG Export Plug-In . SVG Version: 6.00 Build 0)  -->
<!DOCTYPE svg PUBLIC "-//W3C//DTD SVG 1.1//EN" "http://www.w3.org/Graphics/SVG/1.1/DTD/svg11.dtd">
<svg version="1.1" xmlns="http://www.w3.org/2000/svg" xmlns:xlink="http://www.w3.org/1999/xlink" x="0px" y="0px"
	 width="337.333px" height="463px" viewBox="0 0 337.333 463" enable-background="new 0 0 337.333 463" xml:space="preserve">
<g id="Layer_1">
	<path fill="#67E0D2" d="M289.334,144.333l16-24.667c0,0,11.537,3.427,31.666,7.876v-7.244c-6.852-1.432-12.396-2.678-16-3.549
		L335,94c0,0,0.677,0.194,2,0.534v-5.21c-1.164-0.295-2.33-0.597-3.5-0.907c-34.833-9.25-60-21.75-60-21.75L306.666,59L337,74.82
		v-7.33l-47.334-25.157L321,43l16,6.381v-6.532l-11-4.515L330,31h7v-6h-7.334l-6.748-7L337,18.166V15h-17.334L314,9h23V6h-24.832
		l-2.835-2.583c0,0,11.714-0.384,27.667-0.466V0h-42.667l1.333,1.167l-23.083,3.5L256.166,0h-12L267,6.167l-34,6.167
		C223,5.5,206.833,0,206.833,0h-10.958c26.25,8.25,34.188,16.188,37.688,21.812S234.875,36,234.875,36h-26.708
		c-1.166-7-4.5-13.229-23.892-22.896C164.883,3.437,133,0,133,0H78c12.5,11,65,18.5,74,20.5s31.5,7.5,29.5,13s-36,10-48.5,10.5
		S25.332,45.666,24.665,86.333s92.667,49.333,184.667,62c51.108,7.037,95.83,26.01,127.668,51.312v-33.053
		C322.568,158.032,306.332,149.967,289.334,144.333z M301,55.667L266.666,63c0,0-12.167-6.5-22.5-20l34.664-0.667L301,55.667z
		 M315.333,36H284l-4.5-7h41.25L315.333,36z M301,3.417L320.666,25H277l-4-7h25L287.833,6.167L301,3.417z M281.166,6.833L287,15h-16
		l-4-6L281.166,6.833z M258.5,10.833L275,36h-33c0,0,2.166-9.5-0.334-15s-5.916-6.833-5.916-6.833L258.5,10.833z M209.333,43H236
		c0,0,11,16.834,27.833,25.334s36.999,17.167,63.833,23.833L311,114.334c0,0-36.25-8.334-64.5-21.584s-40.084-23-48.042-33.25
		C198.458,59.5,210,55,209.333,43z M190.25,63l15.5,15.75l-15.375,4.708L165,70C165,70,180,64,190.25,63z M184.5,87.75L163,96.5
		L137.25,83L158,73.75C158,73.75,172.5,80.75,184.5,87.75z M71.25,94.75c-4.75-2-9-5.5-9-5.5C72.5,79.25,80,78.75,80,78.75
		C81,89,71.25,94.75,71.25,94.75z M104.25,105.5l-18-11.75l5.25-15l18-7L150.25,70L123.5,83L153,99l-21.25,9.5L104.25,105.5z
		 M149,111.5l14.25-6l21.25,12C160.75,113.75,149,111.5,149,111.5z M203.5,119.125L172.25,101.5l43-18.5
		c0,0,10.614,6.958,20.5,11.75L203.5,119.125z M215.25,121l29-22c0,0,34.814,13.721,52.75,18.5l-18.17,21.75
		C278.83,139.25,253.75,129,215.25,121z"/>
	<path fill="#67E0D2" d="M327,382c-48,37-227,81-227,81h237v-88.738C333.799,376.758,330.467,379.328,327,382z"/>
	<path fill="#A9F9BC" d="M289.334,144.333c16.998,5.633,33.234,13.698,47.666,22.258v-39.048
		c-20.129-4.45-31.666-7.876-31.666-7.876L289.334,144.333z"/>
	<path fill="#AAF5F0" d="M244.25,99l-29,22c38.5,8,63.58,18.25,63.58,18.25L297,117.5C279.064,112.721,244.25,99,244.25,99z"/>
	<path fill="#AAF5F0" d="M215.25,83l-43,18.5l31.25,17.625l32.25-24.375C225.864,89.958,215.25,83,215.25,83z"/>
	<path fill="#AAF5F0" d="M149,111.5c0,0,11.75,2.25,35.5,6l-21.25-12L149,111.5z"/>
	<polygon fill="#AAF5F0" points="123.5,83 150.25,70 109.5,71.75 91.5,78.75 86.25,93.75 104.25,105.5 131.75,108.5 153,99 	"/>
	<path fill="#AAF5F0" d="M62.25,89.25c0,0,4.25,3.5,9,5.5c0,0,9.75-5.75,8.75-16C80,78.75,72.5,79.25,62.25,89.25z"/>
	<path fill="#AAF5F0" d="M163,96.5l21.5-8.75c-12-7-26.5-14-26.5-14L137.25,83L163,96.5z"/>
	<path fill="#AAF5F0" d="M205.75,78.75L190.25,63C180,64,165,70,165,70l25.375,13.458L205.75,78.75z"/>
	<path fill="#34F3FD" d="M246.5,92.75C274.75,106,311,114.334,311,114.334l16.666-22.167c-26.834-6.667-47-15.333-63.833-23.833
		S236,43,236,43h-26.667c0.667,12-10.875,16.5-10.875,16.5C206.416,69.75,218.25,79.5,246.5,92.75z"/>
	<path fill="#34F3FD" d="M321,116.75c3.604,0.872,9.148,2.118,16,3.549V94.534c-1.323-0.339-2-0.534-2-0.534L321,116.75z"/>
	<path fill="#34F3FD" d="M208.167,36h26.708c0,0,2.188-8.562-1.312-14.188S222.125,8.25,195.875,0H133
		c0,0,31.883,3.437,51.275,13.104C203.667,22.771,207.001,29,208.167,36z"/>
	<path fill="#AAF5F0" d="M273.5,66.667c0,0,25.167,12.499,60,21.75c1.17,0.311,2.336,0.612,3.5,0.907V74.82L306.666,59L273.5,66.667
		z"/>
	<path fill="#AAF5F0" d="M244.166,43c10.333,13.5,22.5,20,22.5,20L301,55.667l-22.17-13.333L244.166,43z"/>
	<path fill="#AAF5F0" d="M241.666,21c2.5,5.5,0.334,15,0.334,15h33l-16.5-25.167l-22.75,3.333
		C235.75,14.167,239.166,15.5,241.666,21z"/>
	<path fill="#AAF5F0" d="M267,6.167L244.166,0h-37.333c0,0,16.167,5.5,26.167,12.333L267,6.167z"/>
	<polygon fill="#AAF5F0" points="287,15 281.166,6.833 267,9 271,15 	"/>
	<polygon fill="#AAF5F0" points="273,18 277,25 320.666,25 301,3.417 287.833,6.167 298,18 	"/>
	<polygon fill="#AAF5F0" points="295.666,1.167 294.333,0 256.166,0 272.583,4.667 	"/>
	<polygon fill="#AAF5F0" points="284,36 315.333,36 320.75,29 279.5,29 	"/>
	<polygon fill="#AAF5F0" points="289.666,42.333 337,67.49 337,49.381 321,43 	"/>
	<polygon fill="#AAF5F0" points="326,38.334 337,42.849 337,31 330,31 	"/>
	<path fill="#AAF5F0" d="M312.168,6H337V2.95c-15.953,0.082-27.667,0.466-27.667,0.466L312.168,6z"/>
	<polygon fill="#AAF5F0" points="329.666,25 337,25 337,18.166 322.918,18 	"/>
	<polygon fill="#AAF5F0" points="319.666,15 337,15 337,9 314,9 	"/>
</g>
<g id="Layer_2" display="none">
	<g display="inline">
		<g>
			<linearGradient id="SVGID_1_" gradientUnits="userSpaceOnUse" x1="446.5195" y1="124.7007" x2="484.6036" y2="159.6761">
				<stop  offset="0" style="stop-color:#3978DB"/>
				<stop  offset="1" style="stop-color:#5C9CFF"/>
			</linearGradient>
			<path fill="url(#SVGID_1_)" d="M489.812,139.87c0-13.223-10.72-23.942-23.942-23.942s-23.942,10.719-23.942,23.942
				c0,19.625,23.942,37.308,23.942,37.308S489.812,159.496,489.812,139.87z"/>
			<path fill="#226CE0" d="M487.275,140.578c0-11.822-9.584-21.405-21.405-21.405s-21.405,9.583-21.405,21.405
				c0,17.546,21.405,33.354,21.405,33.354S487.275,158.124,487.275,140.578z"/>
		</g>
		
			<radialGradient id="SVGID_2_" cx="465.8701" cy="190.3325" r="23.7703" gradientTransform="matrix(1 0 0 0.4 0 114.1995)" gradientUnits="userSpaceOnUse">
			<stop  offset="0" style="stop-color:#004F54;stop-opacity:0.2"/>
			<stop  offset="1" style="stop-color:#004C54;stop-opacity:0"/>
		</radialGradient>
		<ellipse fill="url(#SVGID_2_)" cx="465.87" cy="190.333" rx="31.339" ry="12.163"/>
		<path fill="#76FFE8" d="M477,134h-1c-0.732,0-1.409,0.378-2,0.723v-2.556c0-0.552-0.447-1.167-1-1.167h-15
			c-0.553,0-1,0.614-1,1.167v21c0,0.552,0.447,0.833,1,0.833h15c0.553,0,1-0.281,1-0.833v-2.556c0.591,0.344,1.268,0.39,2,0.39h1
			c2.206,0,4-1.628,4-3.833v-9C481,135.961,479.206,134,477,134z M472,151c0,0.552-0.447,1-1,1h-11c-0.553,0-1-0.448-1-1v-12
			c0-0.552,0.447-1,1-1h11c0.553,0,1,0.448,1,1V151z M479,147c0,1.104-0.896,2-2,2h-1c-1.104,0-2-0.896-2-2v-9c0-1.104,0.896-2,2-2
			h1c1.104,0,2,0.896,2,2V147z"/>
	</g>
	<g display="inline">
		<g>
			<linearGradient id="SVGID_3_" gradientUnits="userSpaceOnUse" x1="259.9282" y1="28.8804" x2="284.8186" y2="51.739">
				<stop  offset="0" style="stop-color:#3978DB"/>
				<stop  offset="1" style="stop-color:#5C9CFF"/>
			</linearGradient>
			<path fill="url(#SVGID_3_)" d="M288.223,38.795c0-8.642-7.006-15.647-15.647-15.647s-15.647,7.005-15.647,15.647
				c0,12.827,15.647,24.383,15.647,24.383S288.223,51.622,288.223,38.795z"/>
			<path fill="#226CE0" d="M286.564,39.258c0-7.726-6.264-13.989-13.989-13.989s-13.989,6.263-13.989,13.989
				c0,11.467,13.989,21.799,13.989,21.799S286.564,50.725,286.564,39.258z"/>
		</g>
		
			<radialGradient id="SVGID_4_" cx="272.8701" cy="71.3325" r="12.5885" gradientTransform="matrix(1 0 0 0.4 0 42.7995)" gradientUnits="userSpaceOnUse">
			<stop  offset="0" style="stop-color:#004F54;stop-opacity:0.2"/>
			<stop  offset="1" style="stop-color:#004C54;stop-opacity:0"/>
		</radialGradient>
		<ellipse fill="url(#SVGID_4_)" cx="272.87" cy="71.333" rx="16.597" ry="6.441"/>
		<g>
			<path fill-rule="evenodd" clip-rule="evenodd" fill="#76FFE8" d="M263.234,43.551c0.202-0.242,0.388-0.499,0.61-0.721
				c3.214-3.23,6.434-6.456,9.651-9.683c0.049-0.051,0.08-0.119,0.131-0.198c0.558,0.883,0.915,1.771,1.085,2.732
				c0.327,1.833,0.044,3.572-0.877,5.188c-0.902,1.583-2.223,2.697-3.93,3.343c-1.118,0.422-2.274,0.569-3.461,0.451
				c-1.151-0.115-2.217-0.487-3.209-1.077C263.234,43.574,263.234,43.563,263.234,43.551z"/>
			<path fill-rule="evenodd" clip-rule="evenodd" fill="#76FFE8" d="M269.965,50.245c-0.145-0.308-0.3-0.612-0.433-0.925
				c-0.459-1.074-0.661-2.196-0.629-3.365c0.003-0.15,0.052-0.205,0.194-0.234c1.202-0.248,2.301-0.737,3.293-1.458
				c1.367-0.993,2.388-2.266,3.012-3.838c0.208-0.526,0.337-1.084,0.495-1.629c0.026-0.09,0.042-0.145,0.155-0.15
				c1.572-0.068,3.028,0.309,4.372,1.125c0.02,0.012,0.036,0.029,0.104,0.083c-0.07,0.046-0.139,0.078-0.188,0.127
				c-3.268,3.272-6.532,6.546-9.803,9.818c-0.164,0.164-0.356,0.297-0.535,0.445C269.988,50.245,269.977,50.245,269.965,50.245z"/>
			<path fill-rule="evenodd" clip-rule="evenodd" fill="#76FFE8" d="M281.662,37.864c-0.096,0.299-0.188,0.6-0.285,0.899
				c-0.012,0.038-0.037,0.072-0.065,0.121c-1.595-1.028-3.335-1.52-5.249-1.459c0.048-1.907-0.433-3.65-1.476-5.243
				c0.278-0.178,0.569-0.273,0.876-0.327c0.052-0.009,0.102-0.025,0.152-0.037c0.18,0,0.36,0,0.54,0
				c0.02,0.011,0.039,0.028,0.06,0.032c0.971,0.176,1.635,0.723,1.989,1.646c0.02,0.056,0.089,0.109,0.147,0.132
				c0.724,0.277,1.223,0.776,1.503,1.5c0.026,0.066,0.095,0.139,0.161,0.164c0.734,0.28,1.236,0.784,1.5,1.521
				c0.06,0.167,0.099,0.341,0.146,0.513C281.662,37.504,281.662,37.684,281.662,37.864z"/>
			<path fill-rule="evenodd" clip-rule="evenodd" fill="#76FFE8" d="M264.224,45.4c1.079,0.384,2.241,0.571,3.457,0.519
				c-0.028,1.235,0.163,2.414,0.601,3.577C266.905,48.106,265.552,46.739,264.224,45.4z"/>
		</g>
	</g>
	<g display="inline">
		<g>
			<g>
				<linearGradient id="SVGID_5_" gradientUnits="userSpaceOnUse" x1="310.3789" y1="287.9824" x2="388.7691" y2="359.9738">
					<stop  offset="0" style="stop-color:#3978DB"/>
					<stop  offset="1" style="stop-color:#5C9CFF"/>
				</linearGradient>
				<path fill="url(#SVGID_5_)" d="M399.49,319.209c0-27.217-22.064-49.281-49.281-49.281c-27.218,0-49.281,22.064-49.281,49.281
					c0,40.396,49.281,76.791,49.281,76.791S399.49,359.604,399.49,319.209z"/>
				<path fill="#226CE0" d="M394.268,320.666c0-24.333-19.727-44.059-44.059-44.059s-44.059,19.726-44.059,44.059
					c0,36.115,44.059,68.655,44.059,68.655S394.268,356.781,394.268,320.666z"/>
			</g>
		</g>
		
			<radialGradient id="SVGID_6_" cx="349.8701" cy="416.332" r="40.7336" gradientTransform="matrix(1 0 0 0.4 0 249.7992)" gradientUnits="userSpaceOnUse">
			<stop  offset="0" style="stop-color:#004F54;stop-opacity:0.3"/>
			<stop  offset="1" style="stop-color:#004C54;stop-opacity:0"/>
		</radialGradient>
		<ellipse fill="url(#SVGID_6_)" cx="349.87" cy="416.332" rx="53.703" ry="20.843"/>
		<g>
			<path fill="#76FFE8" d="M371,304.971c0,1.358-1.762,5.029-3.122,5.029h-33.679c-1.358,0-4.199-3.671-4.199-5.029v-0.824
				c0-2.466,2.41-4.004,5.799-4.927c8.134-2.22,20.648-2.702,29.51,0c2.668,0.814,5.691,2.258,5.691,4.927V304.971z"/>
			<path fill="#76FFE8" d="M330,333.062c0-1.363,2.841-5.062,4.199-5.062h33.679c1.36,0,3.122,3.698,3.122,5.062v0.819
				c0,2.466-1.87,4.004-5.254,4.93c-8.137,2.22-20.924,2.702-29.783,0c-2.67-0.812-5.963-2.261-5.963-4.93V333.062z"/>
			<rect x="330" y="321" fill="#76FFE8" width="41" height="5"/>
			<g>
				<path fill="#76FFE8" d="M331.133,319.448c-0.355,0-0.708-0.138-0.976-0.407c-0.539-0.537-0.539-1.41,0-1.95
					c2.556-2.556,5.737-5.738,10.267-2.567c3.375,2.359,6.647,2.561,10.013,0.613c4.248-2.467,7.083-3.084,11.695,0.052
					c3.264,2.22,4.257,1.54,6.657-0.76c0.549-0.527,1.425-0.509,1.95,0.04c0.527,0.552,0.506,1.425-0.04,1.95
					c-3.212,3.076-5.659,4.085-10.12,1.051c-3.28-2.234-4.835-2.223-8.761,0.052c-4.267,2.471-8.754,2.216-12.974-0.735
					c-2.397-1.681-3.821-0.66-6.739,2.255C331.836,319.311,331.482,319.448,331.133,319.448z"/>
			</g>
		</g>
	</g>
</g>
</svg>
