<?xml version="1.0" encoding="utf-8"?>
<!-- Generator: Adobe Illustrator 16.0.0, SVG Export Plug-In . SVG Version: 6.00 Build 0)  -->
<!DOCTYPE svg PUBLIC "-//W3C//DTD SVG 1.1//EN" "http://www.w3.org/Graphics/SVG/1.1/DTD/svg11.dtd">
<svg version="1.1" id="Layer_1" xmlns="http://www.w3.org/2000/svg" xmlns:xlink="http://www.w3.org/1999/xlink" x="0px" y="0px"
	 width="533px" height="463px" viewBox="0 0 533 463" enable-background="new 0 0 533 463" xml:space="preserve">
<path fill="#FFF0CA" d="M100.083,463c0,0,178.966-44.003,226.956-80.995c47.992-36.993,70.985-54.995,58.321-112.316
	c-12.665-57.321-83.983-108.649-175.966-121.313c-91.982-12.664-185.298-21.331-184.631-61.989
	C25.43,45.727,120.579,44.56,133.077,44.06c12.497-0.5,46.491-5,48.49-10.499c2-5.498-20.496-11.032-29.494-13.031
	c-8.998-2-61.487-8.987-73.986-20.53H533v463H100.083z"/>
<g>
	<polygon fill="#F3F9D9" points="457.69,144.373 453.349,192.698 533,202.696 533,180.366 493.847,146.707 	"/>
	<polygon fill="#F3F9D9" points="505.589,147 533,170.035 533,147 	"/>
	<path fill="#F3F9D9" d="M289.381,144.373c57.321,18.997,105.98,65.654,105.98,65.654l12.662-23.329l32.328,4.333l6.665-46.658
		c-83.317-7.332-141.638-24.661-141.638-24.661L289.381,144.373z"/>
	<path fill="#F3F9D9" d="M413.939,70.11L399.026,58h-41.992c0,0-6.29,11.554-6.79,12.388
		C349.744,71.221,413.939,70.11,413.939,70.11z"/>
</g>
<g>
	<path fill="#DFF7F6" d="M263.885,68.859C247.055,60.361,236.057,44,236.057,44h-26.663c0.667,11-10.872,16.026-10.872,16.026
		c7.956,10.249,19.787,19.771,48.033,33.019c28.245,13.248,64.488,21.452,64.488,21.452l16.661-21.995
		C300.877,85.836,280.715,77.357,263.885,68.859z"/>
	<path fill="#DFF7F6" d="M410.024,105.423c-47.99-3.624-74.997-11.374-74.997-11.374l-13.99,22.747
		c13.492,3.263,53.99,11.747,89.733,15.746S533,141.04,533,141.04v-33.993C533,107.047,458.015,109.047,410.024,105.423z"/>
	<path fill="#DFF7F6" d="M208.229,36h26.703c0,0,2.187-8.564-1.312-14.187C230.12,16.188,222.185,7.695,195.94,0h-62.863
		c0,0,31.877,3.44,51.266,13.105C203.73,22.771,207.063,29,208.229,36z"/>
	<path fill="#DFF7F6" d="M533.125,36.061L533,22.863C463.764,6.45,420.021,0,420.021,0h-48.99c0,0,38.055,6.782,82.214,14.865
		C497.404,22.947,533.125,36.061,533.125,36.061z"/>
</g>
<g>
	<path fill="#FFF6E3" d="M424.629,442c0,0-8.332,12.022-19.33,21h95.315l-11.998-21H424.629z"/>
	<path fill="#FFF6E3" d="M432.628,430h77.983l20.83,25.325L531.608,408h-85.651C441.624,416,432.628,430,432.628,430z"/>
	<path fill="#FFF6E3" d="M450.623,390h45.325l-37.326-35.659C456.955,377.003,450.623,390,450.623,390z"/>
	<polygon fill="#FFF6E3" points="532,387.66 532,358.332 513.82,362.997 505.402,355.25 532,348.75 532,326.636 486.827,338.336 
		479.902,331.672 532,318.007 532,298.677 458.015,318.673 	"/>
	<path fill="#FFF6E3" d="M456.83,311.008L532,290.013v-12.499l-78.426,22.33C453.574,299.844,455.83,305.51,456.83,311.008z"/>
	<path fill="#FFF6E3" d="M448.956,286.68l57.562-16.141l7.762-59.178l-94.316-13.998l-13.332,26.661
		C433.293,248.354,448.956,286.68,448.956,286.68z"/>
	<path fill="#FFF6E3" d="M213.919,121.044c38.493,7.999,63.568,18.247,63.568,18.247l18.166-21.746
		c-17.933-4.778-52.74-18.496-52.74-18.496L213.919,121.044z"/>
	<path fill="#FFF6E3" d="M213.919,83.052l-42.992,18.496l31.245,17.621L234.415,94.8C224.532,90.008,213.919,83.052,213.919,83.052z
		"/>
	<path fill="#FFF6E3" d="M147.682,111.547c0,0,11.748,2.249,35.493,5.998l-21.246-11.998L147.682,111.547z"/>
	<polygon fill="#FFF6E3" points="122.187,83.052 148.932,70.054 108.189,71.804 90.192,78.803 84.944,93.8 102.94,105.547 
		130.435,108.547 151.681,99.049 	"/>
	<path fill="#FFF6E3" d="M60.948,89.301c0,0,4.25,3.499,8.998,5.499c0,0,9.749-5.749,8.749-15.997
		C78.695,78.803,71.196,79.303,60.948,89.301z"/>
	<path fill="#FFF6E3" d="M161.68,96.549l21.495-8.749c-11.997-6.998-26.494-13.997-26.494-13.997l-20.747,9.248L161.68,96.549z"/>
	<path fill="#FFF6E3" d="M204.42,78.803l-15.497-15.748c-10.248,1-25.245,6.999-25.245,6.999l25.37,13.456L204.42,78.803z"/>
	<polygon fill="#FFF6E3" points="532,101.048 532,70.039 492.259,100.923 	"/>
	<path fill="#FFF6E3" d="M491.865,57.057c0,0-2.5,4.999-14.496,11.248c-11.999,6.249-38.243,6.748-38.243,6.748l30.994,25.996
		l54.739-38.743L491.865,57.057z"/>
	<path fill="#FFF6E3" d="M493.187,54.215L532,60.181V42h-47.633C493.615,46,493.187,54.215,493.187,54.215z"/>
	<path fill="#FFF6E3" d="M473.87,42h-58.739l-4.333,9.999l20.663,18.025c36.159-3.181,47.031-11.227,47.656-17.726
		C479.742,45.8,473.87,42,473.87,42z"/>
	<polygon fill="#FFF6E3" points="443.625,100.855 417.463,76 389.135,76 409.799,99.259 	"/>
	<path fill="#FFF6E3" d="M336.312,75.221l-30.994-16.164l-33.159,7.665c0,0,25.162,12.497,59.987,21.745
		c34.827,9.249,67.653,11.582,67.653,11.582l-21.995-23.996L336.312,75.221z"/>
	<path fill="#FFF6E3" d="M265.325,63.055l34.327-7.332l-22.165-13.33l-34.658,0.667C253.161,56.557,265.325,63.055,265.325,63.055z"
		/>
	<path fill="#FFF6E3" d="M275.05,36l-16.498-25.131l-22.745,3.348c0,0,3.417,1.31,5.916,6.81C244.221,26.524,242.057,36,242.057,36
		H275.05z"/>
	<path fill="#FFF6E3" d="M267.051,6.2L244.221,0h-37.325c0,0,16.163,5.517,26.162,12.349L267.051,6.2z"/>
	<polygon fill="#FFF6E3" points="281.215,6.946 267.051,8.938 271.051,15 287.047,15 	"/>
	<polygon fill="#FFF6E3" points="298.045,18 273.051,18 277.049,26 320.708,26 301.044,3.978 287.88,6.42 	"/>
	<polygon fill="#FFF6E3" points="295.712,1.2 294.379,0 256.22,0 272.633,4.683 	"/>
	<polygon fill="#FFF6E3" points="320.791,29 279.549,29 284.048,36 315.375,36 	"/>
	<polygon fill="#FFF6E3" points="346.81,53.892 319.648,43.06 288.321,42.393 335.979,67.722 	"/>
	<polygon fill="#FFF6E3" points="397.8,51.12 403.466,40.779 374.305,31 328.647,31 324.648,38.363 353.476,50.21 	"/>
	<polygon fill="#FFF6E3" points="458.622,36 394.967,18.585 381.887,27.801 406.799,36 	"/>
	<polygon fill="#FFF6E3" points="397.967,16.232 433.627,26.063 451.791,17.731 406.799,10.066 	"/>
	<path fill="#FFF6E3" d="M461.287,20.065l-18.996,7.248c17.33,4.582,25.995,8.748,25.995,8.748l49.99-0.833
		C494.447,27.062,461.287,20.065,461.287,20.065z"/>
	<path fill="#FFF6E3" d="M532,20.065v-5.166l-15.83,0.667C527.334,18.064,532,20.065,532,20.065z"/>
	<path fill="#FFF6E3" d="M356.533,6l23.33,16.863l21.328-13.447L373.03,3.508c-30.659-1.083-63.653-0.078-63.653-0.078L312.211,6
		H356.533z"/>
	<polygon fill="#FFF6E3" points="374.529,26 365.448,19.033 322.959,18.768 329.706,26 	"/>
	<polygon fill="#FFF6E3" points="314.042,9 319.707,15 360.7,15 354.535,9 	"/>
	<path fill="#FFF6E3" d="M432.628,0c0,0,21.025,3.534,35.689,5.866L532,7.733V0H432.628z"/>
</g>
<g>
	<g>
		<linearGradient id="SVGID_1_" gradientUnits="userSpaceOnUse" x1="310.4219" y1="287.9951" x2="388.7969" y2="359.9726">
			<stop  offset="0" style="stop-color:#D67940"/>
			<stop  offset="1" style="stop-color:#FCB497"/>
		</linearGradient>
		<path fill="url(#SVGID_1_)" d="M399.516,319.216c0-27.212-22.06-49.271-49.271-49.271s-49.271,22.06-49.271,49.271
			c0,40.388,49.271,76.776,49.271,76.776S399.516,359.604,399.516,319.216z"/>
		<path fill="#F69571" d="M394.294,320.674c0-24.33-19.723-44.052-44.05-44.052s-44.05,19.722-44.05,44.052
			c0,36.107,44.05,68.64,44.05,68.64S394.294,356.781,394.294,320.674z"/>
	</g>
</g>
<g>
	<linearGradient id="SVGID_2_" gradientUnits="userSpaceOnUse" x1="472.8438" y1="86.8628" x2="499.3529" y2="111.208">
		<stop  offset="0" style="stop-color:#D67940"/>
		<stop  offset="1" style="stop-color:#FCB497"/>
	</linearGradient>
	<path fill="url(#SVGID_2_)" d="M502.978,97.422c0-9.204-7.461-16.665-16.664-16.665c-9.204,0-16.665,7.461-16.665,16.665
		c0,13.661,16.665,25.968,16.665,25.968S502.978,111.083,502.978,97.422z"/>
	<path fill="#F69571" d="M501.212,97.915c0-8.228-6.671-14.898-14.898-14.898s-14.898,6.67-14.898,14.898
		c0,12.213,14.898,23.216,14.898,23.216S501.212,110.128,501.212,97.915z"/>
</g>
<g>
	<linearGradient id="SVGID_3_" gradientUnits="userSpaceOnUse" x1="342.9707" y1="20.1704" x2="360.2945" y2="36.0801">
		<stop  offset="0" style="stop-color:#D67940"/>
		<stop  offset="1" style="stop-color:#FCB497"/>
	</linearGradient>
	<path fill="url(#SVGID_3_)" d="M362.664,27.07c0-6.015-4.876-10.891-10.892-10.891c-6.015,0-10.891,4.876-10.891,10.891
		c0,8.928,10.891,16.972,10.891,16.972S362.664,35.998,362.664,27.07z"/>
	<path fill="#F69571" d="M361.509,27.393c0-5.378-4.358-9.737-9.736-9.737c-5.377,0-9.737,4.359-9.737,9.737
		c0,7.981,9.737,15.173,9.737,15.173S361.509,35.374,361.509,27.393z"/>
</g>
<radialGradient id="SVGID_4_" cx="351.9785" cy="49.7178" r="8.762" gradientTransform="matrix(1 0 0 0.4 0 29.8307)" gradientUnits="userSpaceOnUse">
	<stop  offset="0" style="stop-color:#AD9000;stop-opacity:0.3"/>
	<stop  offset="1" style="stop-color:#82711E;stop-opacity:0"/>
</radialGradient>
<ellipse fill="url(#SVGID_4_)" cx="351.978" cy="49.718" rx="11.552" ry="4.483"/>
<path fill="#FFFFFF" d="M494.06,94h-0.696c-0.51,0-1.363-0.4-1.363-0.16v-1.779c0-0.385-0.34-1.061-0.725-1.061h-10.44
	C480.45,91,480,91.676,480,92.061v14.616c0,0.385,0.45,1.323,0.835,1.323h10.44c0.385,0,0.725-0.938,0.725-1.323v-1.778
	c0,0.239,0.854,0.102,1.363,0.102h0.696c1.536,0,2.94-0.964,2.94-2.499v-6.264C497,94.702,495.596,94,494.06,94z M491,105.304
	c0,0.385-0.312,0.696-0.696,0.696h-7.607c-0.385,0-0.696-0.312-0.696-0.696v-8.607c0-0.385,0.312-0.696,0.696-0.696h7.607
	c0.385,0,0.696,0.312,0.696,0.696V105.304z M496,102.607c0,0.769-0.623,1.393-1.393,1.393h-1.215c-0.77,0-1.393-0.624-1.393-1.393
	v-6.215c0-0.769,0.623-1.393,1.393-1.393h1.215c0.77,0,1.393,0.624,1.393,1.393V102.607z"/>
<g>
	<path fill-rule="evenodd" clip-rule="evenodd" fill="#FFFFFF" d="M344.69,29.846c0.156-0.186,0.3-0.383,0.47-0.555
		c2.47-2.481,4.945-4.961,7.417-7.44c0.038-0.039,0.062-0.092,0.101-0.152c0.428,0.677,0.702,1.361,0.835,2.099
		c0.251,1.409,0.034,2.746-0.675,3.988c-0.692,1.216-1.707,2.073-3.02,2.569c-0.859,0.325-1.749,0.438-2.66,0.347
		c-0.885-0.088-1.705-0.375-2.468-0.828C344.69,29.864,344.69,29.855,344.69,29.846z"/>
	<path fill-rule="evenodd" clip-rule="evenodd" fill="#FFFFFF" d="M349.863,34.991c-0.11-0.237-0.23-0.471-0.332-0.71
		c-0.354-0.826-0.508-1.688-0.483-2.586c0.003-0.116,0.039-0.158,0.147-0.181c0.925-0.191,1.771-0.566,2.533-1.121
		c1.048-0.763,1.833-1.741,2.313-2.949c0.16-0.405,0.259-0.833,0.38-1.252c0.021-0.069,0.033-0.111,0.121-0.114
		c1.207-0.053,2.327,0.236,3.358,0.864c0.016,0.009,0.029,0.023,0.081,0.065c-0.056,0.035-0.107,0.059-0.146,0.098
		c-2.512,2.515-5.021,5.031-7.534,7.545c-0.125,0.126-0.274,0.229-0.41,0.342C349.882,34.991,349.873,34.991,349.863,34.991z"/>
	<path fill-rule="evenodd" clip-rule="evenodd" fill="#FFFFFF" d="M358.854,25.475c-0.074,0.23-0.144,0.46-0.218,0.691
		c-0.01,0.028-0.03,0.055-0.052,0.093c-1.225-0.791-2.562-1.168-4.034-1.121c0.038-1.466-0.333-2.806-1.135-4.03
		c0.216-0.137,0.438-0.21,0.674-0.251c0.04-0.007,0.079-0.019,0.117-0.029c0.139,0,0.277,0,0.415,0
		c0.016,0.009,0.03,0.022,0.047,0.025c0.746,0.136,1.256,0.555,1.528,1.265c0.015,0.042,0.067,0.083,0.112,0.101
		c0.558,0.213,0.94,0.597,1.156,1.152c0.02,0.051,0.074,0.106,0.124,0.126c0.563,0.215,0.949,0.602,1.152,1.169
		c0.045,0.128,0.075,0.262,0.112,0.393C358.854,25.199,358.854,25.337,358.854,25.475z"/>
	<path fill-rule="evenodd" clip-rule="evenodd" fill="#FFFFFF" d="M345.452,31.267c0.829,0.295,1.722,0.439,2.656,0.399
		c-0.022,0.949,0.126,1.855,0.462,2.749C347.513,33.346,346.472,32.296,345.452,31.267z"/>
</g>
<radialGradient id="SVGID_5_" cx="350.5859" cy="415.833" r="28.3516" gradientTransform="matrix(1 0 0 0.4 0 249.4998)" gradientUnits="userSpaceOnUse">
	<stop  offset="0" style="stop-color:#AD9000;stop-opacity:0.3"/>
	<stop  offset="1" style="stop-color:#82711E;stop-opacity:0"/>
</radialGradient>
<ellipse fill="url(#SVGID_5_)" cx="350.586" cy="415.832" rx="37.379" ry="14.508"/>
<g>
	<path fill="#FFFFFF" d="M378,303.232c0,1.826-2.651,6.768-4.478,6.768h-45.185c-1.822,0-5.338-4.941-5.338-6.768v-1.104
		c0-3.307,3.085-5.372,7.631-6.611c10.913-2.978,27.774-3.626,39.663,0c3.582,1.092,7.706,3.032,7.706,6.611V303.232z"/>
	<path fill="#FFFFFF" d="M323,339.036c0-1.828,3.516-7.036,5.338-7.036h45.185c1.826,0,4.478,5.208,4.478,7.036v1.101
		c0,3.31-2.652,5.372-7.193,6.613c-10.916,2.978-27.996,3.625-39.883,0c-3.582-1.092-7.924-3.032-7.924-6.613V339.036z"/>
	<rect x="323" y="323" fill="#FFFFFF" width="55" height="7"/>
	<g>
		<path fill="#FFFFFF" d="M324.224,320.721c-0.476,0-0.949-0.183-1.308-0.543c-0.726-0.723-0.726-1.896,0-2.617
			c3.43-3.429,7.695-7.701,13.773-3.446c4.526,3.166,8.918,3.437,13.434,0.823c5.699-3.309,9.504-4.139,15.69,0.069
			c4.379,2.978,5.713,2.065,8.932-1.02c0.736-0.706,1.913-0.681,2.616,0.054c0.708,0.739,0.681,1.912-0.054,2.618
			c-4.309,4.126-7.593,5.479-13.577,1.406c-4.399-2.994-6.486-2.979-11.753,0.073c-5.726,3.315-11.746,2.972-17.406-0.988
			c-3.216-2.255-5.127-0.885-9.043,3.027C325.167,320.538,324.693,320.721,324.224,320.721z"/>
	</g>
</g>
<radialGradient id="SVGID_6_" cx="486.7871" cy="130.9575" r="11.7996" gradientTransform="matrix(1 0 0 0.4 0 78.5745)" gradientUnits="userSpaceOnUse">
	<stop  offset="0" style="stop-color:#018CB8;stop-opacity:0.3"/>
	<stop  offset="1" style="stop-color:#21728A;stop-opacity:0"/>
</radialGradient>
<ellipse fill="url(#SVGID_6_)" cx="486.787" cy="130.958" rx="15.557" ry="6.038"/>
</svg>
