<?xml version="1.0" encoding="utf-8"?>
<!-- Generator: Adobe Illustrator 16.0.0, SVG Export Plug-In . SVG Version: 6.00 Build 0)  -->
<!DOCTYPE svg PUBLIC "-//W3C//DTD SVG 1.1//EN" "http://www.w3.org/Graphics/SVG/1.1/DTD/svg11.dtd">
<svg version="1.1" id="Layer_1" xmlns="http://www.w3.org/2000/svg" xmlns:xlink="http://www.w3.org/1999/xlink" x="0px" y="0px"
	 width="1993.07px" height="1815px" viewBox="0 0 1993.07 1815" enable-background="new 0 0 1993.07 1815" xml:space="preserve">
<path fill="#10397A" d="M295.303,1815c0,0,701.625-172.375,889.769-317.4c188.147-145.029,278.29-215.538,228.641-440.267
	c-49.649-224.728-329.251-425.918-689.862-475.566C363.24,532.118-2.6,498.158,0.014,338.757s375.641-163.966,424.639-165.926
	c48.996-1.958,182.266-19.596,190.105-41.153c7.84-21.558-80.355-43.301-115.632-51.141C463.85,72.697,258.067,43.151,209.069,0
	h1784v1815H295.303z"/>
<g>
	<polygon fill="#3D7BC4" points="1697.279,566.113 1680.531,755.566 1993.07,794.762 1993.07,707.222 1839.299,575.26 	"/>
	<polygon fill="#3D7BC4" points="1885.067,576 1993.07,666.718 1993.07,576 	"/>
	<path fill="#3D7BC4" d="M1037.433,566.113c224.727,74.475,415.487,257.392,415.487,257.392l49.646-91.458l126.742,16.984
		l26.126-182.918c-326.638-28.744-555.284-96.685-555.284-96.685L1037.433,566.113z"/>
	<path fill="#3D7BC4" d="M1525.758,273.223L1467.29,224h-164.627c0,0-24.658,46.17-26.619,49.438
		C1274.084,276.704,1525.758,273.223,1525.758,273.223z"/>
</g>
<g>
	<path fill="#5AE2DE" d="M937.479,268.76C871.498,235.442,828.38,170,828.38,170H723.854c2.614,46-42.626,64.133-42.626,64.133
		c31.194,40.177,77.578,78.164,188.31,130.098c110.733,51.938,252.822,84.428,252.822,84.428l65.324-86.723
		C1082.502,335.805,1003.457,302.078,937.479,268.76z"/>
	<path fill="#5AE2DE" d="M1510.676,413.408c-188.144-14.209-294.149-44.586-294.149-44.586l-54.923,89.172
		c52.899,12.793,211.911,46.057,352.038,61.735c140.129,15.68,479.428,33.318,479.428,33.318V419.777
		C1993.07,419.777,1698.822,427.617,1510.676,413.408z"/>
	<path fill="#5AE2DE" d="M719.283,143h104.688c0,0,8.576-34.507-5.146-56.556C805.106,64.396,773.994,33.116,671.103,0h-246.45
		c0,0,124.972,14.417,200.983,52.308C701.645,90.201,714.713,115,719.283,143z"/>
	<path fill="#5AE2DE" d="M1993.018,141.479l-0.49-51.793C1721.089,25.339,1549.603,0,1549.603,0h-192.064
		c0,0,149.193,26.644,322.314,58.331C1852.973,90.017,1993.018,141.479,1993.018,141.479z"/>
</g>
<g>
	<path fill="#2A60AD" d="M1573.665,1733c0,0-32.664,46-75.782,82h373.677l-47.036-82H1573.665z"/>
	<path fill="#2A60AD" d="M1605.022,1687h305.734l81.663,97.414l0.65-187.414h-335.788C1640.296,1627,1605.022,1687,1605.022,1687z"
		/>
	<path fill="#2A60AD" d="M1675.576,1528h177.695l-146.339-139.802C1700.399,1477.043,1675.576,1528,1675.576,1528z"/>
	<polygon fill="#2A60AD" points="1993.07,1519.902 1993.07,1404.927 1922.562,1423.219 1889.181,1392.839 1993.07,1367.363 
		1993.07,1280.661 1816.742,1326.533 1789.208,1300.402 1993.07,1246.831 1993.07,1171.053 1703.012,1249.445 	"/>
	<path fill="#2A60AD" d="M1699.135,1219.395l293.935-82.314v-48.995l-307.078,87.54
		C1685.992,1175.625,1695.215,1197.836,1699.135,1219.395z"/>
	<path fill="#2A60AD" d="M1669.042,1124.018l225.662-63.278l30.427-232.004l-369.757-54.877l-52.265,104.524
		C1607.63,973.76,1669.042,1124.018,1669.042,1124.018z"/>
	<path fill="#2A60AD" d="M747.59,474.653c150.906,31.357,249.214,71.534,249.214,71.534l71.221-85.253
		c-70.302-18.733-206.764-72.514-206.764-72.514L747.59,474.653z"/>
	<path fill="#2A60AD" d="M747.59,325.705l-168.547,72.514l122.491,69.085l126.408-95.543
		C789.194,352.977,747.59,325.705,747.59,325.705z"/>
	<path fill="#2A60AD" d="M487.909,437.416c0,0,46.056,8.819,139.148,23.518l-83.291-47.035L487.909,437.416z"/>
	<polygon fill="#2A60AD" points="387.957,325.705 492.81,274.748 333.083,281.609 262.527,309.046 241.949,367.841 312.503,413.898 
		420.295,425.657 503.589,388.42 	"/>
	<path fill="#2A60AD" d="M147.875,350.203c0,0,16.661,13.719,35.277,21.558c0,0,38.219-22.537,34.299-62.715
		C217.452,309.046,188.053,311.006,147.875,350.203z"/>
	<path fill="#2A60AD" d="M542.786,378.62l84.272-34.296c-47.034-27.438-103.869-54.877-103.869-54.877l-81.335,36.258
		L542.786,378.62z"/>
	<path fill="#2A60AD" d="M710.352,309.046l-60.755-61.734c-40.177,3.92-98.971,27.437-98.971,27.437l99.462,52.755L710.352,309.046z
		"/>
	<polygon fill="#2A60AD" points="1993.07,396.259 1993.07,274.691 1837.264,395.77 	"/>
	<path fill="#2A60AD" d="M1837.263,223.793c0,0-9.801,19.599-56.835,44.096c-47.036,24.499-149.929,26.458-149.929,26.458
		l121.512,101.912l214.603-151.888L1837.263,223.793z"/>
	<path fill="#2A60AD" d="M1841.671,212.77l151.398,23.272V165h-185.205C1844.123,181,1841.671,212.77,1841.671,212.77z"/>
	<path fill="#2A60AD" d="M1766.709,165h-230.282l-16.986,39.083l81.005,70.608c141.761-12.47,184.39-43.925,186.842-69.403
		C1789.737,179.811,1766.709,165,1766.709,165z"/>
	<polygon fill="#2A60AD" points="1648.139,395.47 1545.573,298 1434.514,298 1515.524,389.199 	"/>
	<path fill="#2A60AD" d="M1227.423,295.002l-121.511-63.37l-130.001,30.051c0,0,98.646,48.993,235.181,85.251
		c136.535,36.259,265.229,45.404,265.229,45.404l-86.233-94.073L1227.423,295.002z"/>
	<path fill="#2A60AD" d="M949.125,247.312l134.576-28.746l-86.896-52.261l-135.874,2.613
		C901.433,221.833,949.125,247.312,949.125,247.312z"/>
	<path fill="#2A60AD" d="M987.248,143l-64.675-99.404L833.4,56.28c0,0,13.391,5.796,23.189,27.354
		c9.799,21.558,1.309,59.366,1.309,59.366H987.248z"/>
	<path fill="#2A60AD" d="M955.891,24.358L866.388,0H720.055c0,0,63.37,21.652,102.566,48.436L955.891,24.358z"/>
	<polygon fill="#2A60AD" points="1011.417,27.883 955.891,35.963 971.571,60 1034.285,60 	"/>
	<polygon fill="#2A60AD" points="1077.401,71 979.408,71 995.088,98 1166.247,98 1089.158,13.68 1037.549,24.43 	"/>
	<polygon fill="#2A60AD" points="1068.252,4.758 1063.028,0 913.424,0 977.774,18.384 	"/>
	<polygon fill="#2A60AD" points="1166.575,115 1004.886,115 1022.525,143 1145.341,143 	"/>
	<polygon fill="#2A60AD" points="1268.579,211.383 1162.097,168.918 1039.279,166.305 1226.117,265.606 	"/>
	<polygon fill="#2A60AD" points="1468.482,200.52 1490.697,160.658 1376.371,123 1197.375,123 1181.694,151.187 1294.712,197.291 	
		"/>
	<polygon fill="#2A60AD" points="1706.932,143 1457.378,73.844 1406.095,110.415 1503.762,143 	"/>
	<polygon fill="#2A60AD" points="1469.137,63.743 1608.942,102.284 1680.151,69.622 1503.764,39.57 	"/>
	<path fill="#2A60AD" d="M1717.384,78.767l-74.477,28.415c67.941,17.965,101.914,34.297,101.914,34.297l195.982-3.266
		C1847.384,106.203,1717.384,78.767,1717.384,78.767z"/>
	<path fill="#2A60AD" d="M1993.07,78.767V58.516l-62.063,2.611C1974.773,70.927,1993.07,78.767,1993.07,78.767z"/>
	<path fill="#2A60AD" d="M1306.699,25l91.462,65.426l83.619-53.061l-110.401-23.334c-120.202-4.249-249.555,0.292-249.555,0.292
		L1132.936,25H1306.699z"/>
	<polygon fill="#2A60AD" points="1377.257,98 1341.651,72.705 1175.072,70.655 1201.524,98 	"/>
	<polygon fill="#2A60AD" points="1140.116,36 1162.324,60 1323.034,60 1298.864,36 	"/>
	<path fill="#2A60AD" d="M1605.025,0c0,0,81.663,13.906,139.148,23.051l248.896,7.37V0H1605.025z"/>
</g>
<g>
	<g>
		<linearGradient id="SVGID_1_" gradientUnits="userSpaceOnUse" x1="1119.9224" y1="1129.1738" x2="1427.1886" y2="1411.3586">
			<stop  offset="0" style="stop-color:#BD9C1D"/>
			<stop  offset="1" style="stop-color:#FCD364"/>
		</linearGradient>
		<path fill="url(#SVGID_1_)" d="M1469.21,1251.571c0-106.683-86.483-193.167-193.167-193.167
			c-106.683,0-193.167,86.484-193.167,193.167c0,158.339,193.167,300.997,193.167,300.997S1469.21,1409.91,1469.21,1251.571z"/>
		<path fill="#E3B522" d="M1448.74,1257.285c0-95.382-77.322-172.698-172.696-172.698s-172.696,77.316-172.696,172.698
			c0,141.561,172.696,269.104,172.696,269.104S1448.74,1398.846,1448.74,1257.285z"/>
	</g>
</g>
<g>
	<linearGradient id="SVGID_2_" gradientUnits="userSpaceOnUse" x1="1756.6899" y1="340.6475" x2="1860.6145" y2="436.0889">
		<stop  offset="0" style="stop-color:#BD9C1D"/>
		<stop  offset="1" style="stop-color:#FCD364"/>
	</linearGradient>
	<path fill="url(#SVGID_2_)" d="M1874.829,382.045c0-36.082-29.253-65.332-65.334-65.332c-36.082,0-65.333,29.25-65.333,65.332
		c0,53.553,65.333,101.804,65.333,101.804S1874.829,435.598,1874.829,382.045z"/>
	<path fill="#E3B522" d="M1867.905,383.977c0-32.259-26.152-58.409-58.41-58.409s-58.41,26.15-58.41,58.409
		c0,47.879,58.41,91.017,58.41,91.017S1867.905,431.855,1867.905,383.977z"/>
</g>
<g>
	<linearGradient id="SVGID_3_" gradientUnits="userSpaceOnUse" x1="1247.5259" y1="79.1792" x2="1315.4452" y2="141.5544">
		<stop  offset="0" style="stop-color:#BD9C1D"/>
		<stop  offset="1" style="stop-color:#FCD364"/>
	</linearGradient>
	<path fill="url(#SVGID_3_)" d="M1324.735,106.233c0-23.581-19.117-42.697-42.698-42.697s-42.698,19.116-42.698,42.697
		c0,35.001,42.698,66.535,42.698,66.535S1324.735,141.234,1324.735,106.233z"/>
	<path fill="#E3B522" d="M1320.21,107.497c0-21.083-17.092-38.173-38.174-38.173c-21.081,0-38.174,17.091-38.174,38.173
		c0,31.292,38.174,59.484,38.174,59.484S1320.21,138.788,1320.21,107.497z"/>
</g>
<radialGradient id="SVGID_4_" cx="1809.4946" cy="519.7451" r="64.8637" gradientTransform="matrix(1 0 0 0.4 0 311.8471)" gradientUnits="userSpaceOnUse">
	<stop  offset="0" style="stop-color:#465400;stop-opacity:0.2"/>
	<stop  offset="1" style="stop-color:#445404;stop-opacity:0"/>
</radialGradient>
<ellipse fill="url(#SVGID_4_)" cx="1809.495" cy="519.745" rx="85.517" ry="33.189"/>
<radialGradient id="SVGID_5_" cx="1282.8413" cy="195.021" r="34.3515" gradientTransform="matrix(1 0 0 0.4 0 117.0126)" gradientUnits="userSpaceOnUse">
	<stop  offset="0" style="stop-color:#465400;stop-opacity:0.2"/>
	<stop  offset="1" style="stop-color:#445404;stop-opacity:0"/>
</radialGradient>
<ellipse fill="url(#SVGID_5_)" cx="1282.842" cy="195.021" rx="45.289" ry="17.577"/>
<path fill="#10397A" d="M1839.866,366h-2.729c-1.998,0-4.066,1.059-6.066,1.999v-6.975c0-1.507-0.611-3.023-2.119-3.023h-40.932
	c-1.509,0-2.949,1.517-2.949,3.023v57.304c0,1.507,1.44,1.672,2.949,1.672h40.932c1.508,0,2.119-0.166,2.119-1.672v-6.976
	c2,0.94,4.068,0.648,6.066,0.648h2.729c6.02,0,10.204-4.026,10.204-10.045v-24.559C1850.07,371.377,1845.885,366,1839.866,366z
	 M1825.07,412.271c0,1.507-1.222,2.729-2.729,2.729h-29.541c-1.508,0-2.729-1.222-2.729-2.729v-32.542
	c0-1.507,1.222-2.729,2.729-2.729h29.541c1.508,0,2.729,1.222,2.729,2.729V412.271z M1845.07,400.542
	c0,3.014-2.443,5.458-5.458,5.458h-3.084c-3.015,0-5.458-2.443-5.458-5.458v-24.085c0-3.014,2.443-5.458,5.458-5.458h3.084
	c3.015,0,5.458,2.443,5.458,5.458V400.542z"/>
<g>
	<path fill-rule="evenodd" clip-rule="evenodd" fill="#10397A" d="M1162.426,1310.123c2.5-2.977,4.789-6.145,7.523-8.89
		c39.639-39.829,79.342-79.599,119.005-119.395c0.615-0.618,0.988-1.466,1.619-2.436c6.879,10.881,11.278,21.841,13.387,33.686
		c4.023,22.604,0.544,44.047-10.816,63.97c-11.129,19.512-27.414,33.26-48.461,41.224c-13.776,5.205-28.043,7.027-42.676,5.56
		c-14.196-1.407-27.344-6.006-39.581-13.276C1162.426,1310.414,1162.426,1310.272,1162.426,1310.123z"/>
	<path fill-rule="evenodd" clip-rule="evenodd" fill="#10397A" d="M1245.419,1392.669c-1.78-3.798-3.688-7.548-5.335-11.4
		c-5.665-13.244-8.144-27.091-7.758-41.485c0.038-1.855,0.632-2.532,2.386-2.895c14.824-3.062,28.38-9.095,40.609-17.985
		c16.849-12.239,29.443-27.939,37.139-47.318c2.574-6.483,4.157-13.367,6.11-20.093c0.322-1.106,0.521-1.781,1.919-1.845
		c19.376-0.84,37.331,3.812,53.907,13.873c0.237,0.145,0.442,0.36,1.265,1.034c-0.868,0.568-1.713,0.948-2.317,1.566
		c-40.295,40.352-80.552,80.729-120.876,121.058c-2.018,2.021-4.389,3.673-6.606,5.49
		C1245.712,1392.669,1245.569,1392.669,1245.419,1392.669z"/>
	<path fill-rule="evenodd" clip-rule="evenodd" fill="#10397A" d="M1389.661,1239.999c-1.175,3.695-2.327,7.395-3.513,11.079
		c-0.148,0.467-0.471,0.889-0.815,1.504c-19.655-12.69-41.115-18.736-64.718-18.001c0.595-23.517-5.34-45.015-18.2-64.648
		c3.427-2.195,7.019-3.374,10.803-4.032c0.635-0.114,1.259-0.307,1.879-0.461c2.221,0,4.44,0,6.657,0
		c0.248,0.139,0.481,0.347,0.74,0.397c11.979,2.169,20.154,8.908,24.521,20.295c0.253,0.688,1.098,1.341,1.82,1.623
		c8.933,3.416,15.08,9.571,18.537,18.493c0.316,0.815,1.175,1.711,1.987,2.025c9.044,3.443,15.243,9.657,18.483,18.747
		c0.743,2.062,1.226,4.214,1.817,6.321C1389.661,1235.562,1389.661,1237.784,1389.661,1239.999z"/>
	<path fill-rule="evenodd" clip-rule="evenodd" fill="#10397A" d="M1174.636,1332.918c13.303,4.738,27.627,7.049,42.624,6.401
		c-0.352,15.222,2.009,29.766,7.411,44.102C1207.701,1366.293,1191.003,1349.439,1174.636,1332.918z"/>
</g>
<g>
	<path fill="#10397A" d="M1305.07,93.271c0,1.532-2.207,4.729-3.74,4.729h-37.923c-1.529,0-5.337-3.197-5.337-4.729v-0.926
		c0-2.775,3.018-4.509,6.834-5.549c9.159-2.499,23.516-3.043,33.492,0c3.006,0.917,6.674,2.545,6.674,5.549V93.271z"/>
	<path fill="#10397A" d="M1258.07,120.398c0-1.534,3.808-5.398,5.337-5.398h37.923c1.533,0,3.74,3.865,3.74,5.398v0.925
		c0,2.777-2.218,4.508-6.028,5.549c-9.162,2.5-23.921,3.043-33.897,0c-3.006-0.916-7.074-2.544-7.074-5.549V120.398z"/>
	<rect x="1258.07" y="106" fill="#10397A" width="47" height="6"/>
	<g>
		<path fill="#10397A" d="M1259.953,106.195c-0.399,0-0.797-0.153-1.098-0.456c-0.607-0.606-0.607-1.591,0-2.196
			c2.879-2.878,6.46-6.464,11.561-2.893c3.8,2.658,7.485,2.884,11.275,0.69c4.783-2.777,7.975-3.472,13.169,0.058
			c3.675,2.5,4.794,1.735,7.496-0.855c0.618-0.593,1.604-0.572,2.196,0.045c0.594,0.621,0.57,1.604-0.046,2.197
			c-3.616,3.463-6.371,4.598-11.395,1.181c-3.694-2.513-5.444-2.501-9.865,0.062c-4.805,2.782-9.857,2.494-14.608-0.83
			c-2.699-1.892-4.304-0.742-7.59,2.541C1260.745,106.042,1260.348,106.195,1259.953,106.195z"/>
	</g>
</g>
<radialGradient id="SVGID_6_" cx="1277.3843" cy="1630.3555" r="111.1519" gradientTransform="matrix(1 0 0 0.4 0 978.2133)" gradientUnits="userSpaceOnUse">
	<stop  offset="0" style="stop-color:#004F54;stop-opacity:0.3"/>
	<stop  offset="1" style="stop-color:#004C54;stop-opacity:0"/>
</radialGradient>
<path fill="url(#SVGID_6_)" d="M1130.84,1630.355c0,31.412,65.61,56.874,146.543,56.874c80.938,0,146.544-25.462,146.544-56.874
	c0-31.408-65.605-56.874-146.544-56.874C1196.451,1573.481,1130.84,1598.947,1130.84,1630.355z"/>
</svg>
