<?xml version="1.0" encoding="utf-8"?>
<!-- Generator: Adobe Illustrator 16.0.0, SVG Export Plug-In . SVG Version: 6.00 Build 0)  -->
<!DOCTYPE svg PUBLIC "-//W3C//DTD SVG 1.1//EN" "http://www.w3.org/Graphics/SVG/1.1/DTD/svg11.dtd">
<svg version="1.1" id="Layer_1" xmlns="http://www.w3.org/2000/svg" xmlns:xlink="http://www.w3.org/1999/xlink" x="0px" y="0px"
	 width="463px" height="463px" viewBox="0 0 463 463" enable-background="new 0 0 463 463" xml:space="preserve">
<rect fill-rule="evenodd" clip-rule="evenodd" fill="#DFF7F6" width="463" height="463"/>
<g id="Layer_2" display="none">
	<g display="inline">
		<g>
			
				<linearGradient id="SVGID_1_" gradientUnits="userSpaceOnUse" x1="-941.4795" y1="452.7012" x2="-903.3942" y2="487.6777" gradientTransform="matrix(1 0 0 1 1388 -328)">
				<stop  offset="0" style="stop-color:#3978DB"/>
				<stop  offset="1" style="stop-color:#5C9CFF"/>
			</linearGradient>
			<path fill="url(#SVGID_1_)" d="M489.812,139.87c0-13.223-10.721-23.942-23.942-23.942s-23.941,10.719-23.941,23.942
				c0,19.625,23.941,37.308,23.941,37.308S489.812,159.496,489.812,139.87z"/>
			<path fill="#226CE0" d="M487.276,140.578c0-11.822-9.584-21.405-21.406-21.405c-11.82,0-21.404,9.583-21.404,21.405
				c0,17.546,21.404,33.354,21.404,33.354S487.276,158.124,487.276,140.578z"/>
		</g>
		
			<radialGradient id="SVGID_2_" cx="-922.1299" cy="1010.335" r="23.7716" gradientTransform="matrix(1 0 0 0.4 1388 -213.8008)" gradientUnits="userSpaceOnUse">
			<stop  offset="0" style="stop-color:#004F54;stop-opacity:0.2"/>
			<stop  offset="1" style="stop-color:#004C54;stop-opacity:0"/>
		</radialGradient>
		<ellipse fill="url(#SVGID_2_)" cx="465.87" cy="190.333" rx="31.34" ry="12.163"/>
		<path fill="#76FFE8" d="M477,134h-1c-0.732,0-1.41,0.378-2,0.723v-2.556c0-0.552-0.447-1.167-1-1.167h-15
			c-0.553,0-1,0.614-1,1.167v21c0,0.552,0.447,0.833,1,0.833h15c0.553,0,1-0.281,1-0.833v-2.556c0.59,0.344,1.268,0.39,2,0.39h1
			c2.205,0,4-1.628,4-3.833v-9C481,135.961,479.206,134,477,134z M472,151c0,0.552-0.447,1-1,1h-11c-0.553,0-1-0.448-1-1v-12
			c0-0.552,0.447-1,1-1h11c0.553,0,1,0.448,1,1V151z M479,147c0,1.104-0.896,2-2,2h-1c-1.104,0-2-0.896-2-2v-9c0-1.104,0.896-2,2-2
			h1c1.104,0,2,0.896,2,2V147z"/>
	</g>
	<g display="inline">
		<g>
			
				<linearGradient id="SVGID_3_" gradientUnits="userSpaceOnUse" x1="-1128.0703" y1="356.8809" x2="-1103.1788" y2="379.7404" gradientTransform="matrix(1 0 0 1 1388 -328)">
				<stop  offset="0" style="stop-color:#3978DB"/>
				<stop  offset="1" style="stop-color:#5C9CFF"/>
			</linearGradient>
			<path fill="url(#SVGID_3_)" d="M288.223,38.795c0-8.642-7.006-15.647-15.646-15.647c-8.642,0-15.648,7.005-15.648,15.647
				c0,12.827,15.648,24.383,15.648,24.383S288.223,51.622,288.223,38.795z"/>
			<path fill="#226CE0" d="M286.564,39.258c0-7.726-6.266-13.989-13.989-13.989s-13.988,6.263-13.988,13.989
				c0,11.467,13.988,21.799,13.988,21.799S286.564,50.725,286.564,39.258z"/>
		</g>
		
			<radialGradient id="SVGID_4_" cx="-1115.1304" cy="891.333" r="12.5893" gradientTransform="matrix(1 0 0 0.4 1388 -285.2002)" gradientUnits="userSpaceOnUse">
			<stop  offset="0" style="stop-color:#004F54;stop-opacity:0.2"/>
			<stop  offset="1" style="stop-color:#004C54;stop-opacity:0"/>
		</radialGradient>
		<ellipse fill="url(#SVGID_4_)" cx="272.87" cy="71.333" rx="16.598" ry="6.441"/>
		<g>
			<path fill="#76FFE8" d="M263.234,43.551c0.201-0.242,0.388-0.499,0.609-0.721c3.215-3.23,6.434-6.456,9.65-9.683
				c0.049-0.051,0.08-0.119,0.131-0.198c0.559,0.883,0.916,1.771,1.086,2.732c0.326,1.833,0.043,3.572-0.877,5.188
				c-0.902,1.583-2.225,2.697-3.932,3.343c-1.117,0.422-2.273,0.569-3.461,0.451c-1.15-0.115-2.217-0.487-3.209-1.077
				C263.234,43.574,263.234,43.563,263.234,43.551z"/>
			<path fill="#76FFE8" d="M269.965,50.245c-0.146-0.308-0.301-0.612-0.434-0.925c-0.459-1.074-0.66-2.196-0.629-3.365
				c0.004-0.15,0.053-0.205,0.193-0.234c1.202-0.248,2.301-0.737,3.293-1.458c1.366-0.993,2.389-2.266,3.012-3.838
				c0.209-0.526,0.338-1.084,0.496-1.629c0.024-0.09,0.041-0.145,0.153-0.15c1.572-0.068,3.029,0.309,4.373,1.125
				c0.021,0.012,0.035,0.029,0.104,0.083c-0.07,0.046-0.14,0.078-0.188,0.127c-3.269,3.272-6.532,6.546-9.803,9.818
				c-0.164,0.164-0.356,0.297-0.535,0.445C269.989,50.245,269.977,50.245,269.965,50.245z"/>
			<path fill="#76FFE8" d="M281.663,37.864c-0.097,0.299-0.188,0.6-0.285,0.897c-0.012,0.038-0.037,0.072-0.065,0.121
				c-1.595-1.028-3.334-1.52-5.248-1.459c0.047-1.907-0.435-3.65-1.478-5.243c0.279-0.178,0.57-0.273,0.877-0.327
				c0.052-0.009,0.103-0.025,0.152-0.037c0.18,0,0.358,0,0.539,0c0.02,0.011,0.038,0.028,0.061,0.032
				c0.972,0.176,1.636,0.723,1.988,1.646c0.021,0.056,0.09,0.109,0.147,0.132c0.724,0.277,1.224,0.776,1.502,1.5
				c0.025,0.066,0.097,0.139,0.162,0.164c0.732,0.28,1.234,0.784,1.5,1.521c0.06,0.167,0.099,0.341,0.146,0.513
				C281.663,37.504,281.663,37.684,281.663,37.864z"/>
			<path fill="#76FFE8" d="M264.225,45.4c1.078,0.384,2.24,0.571,3.457,0.519c-0.029,1.235,0.162,2.414,0.601,3.577
				C266.905,48.106,265.551,46.739,264.225,45.4z"/>
		</g>
	</g>
	<g display="inline">
		<g>
			<g>
				
					<linearGradient id="SVGID_5_" gradientUnits="userSpaceOnUse" x1="-1077.6216" y1="615.9814" x2="-999.2314" y2="687.9728" gradientTransform="matrix(1 0 0 1 1388 -328)">
					<stop  offset="0" style="stop-color:#3978DB"/>
					<stop  offset="1" style="stop-color:#5C9CFF"/>
				</linearGradient>
				<path fill="url(#SVGID_5_)" d="M399.491,319.209c0-27.217-22.064-49.281-49.281-49.281c-27.219,0-49.281,22.064-49.281,49.281
					c0,40.396,49.281,76.791,49.281,76.791S399.491,359.604,399.491,319.209z"/>
				<path fill="#226CE0" d="M394.268,320.666c0-24.333-19.727-44.059-44.059-44.059s-44.059,19.726-44.059,44.059
					c0,36.115,44.059,68.654,44.059,68.654S394.268,356.781,394.268,320.666z"/>
			</g>
		</g>
		
			<radialGradient id="SVGID_6_" cx="-1038.1299" cy="1236.3301" r="40.7327" gradientTransform="matrix(1 0 0 0.4 1388 -78.2002)" gradientUnits="userSpaceOnUse">
			<stop  offset="0" style="stop-color:#004F54;stop-opacity:0.3"/>
			<stop  offset="1" style="stop-color:#004C54;stop-opacity:0"/>
		</radialGradient>
		<ellipse fill="url(#SVGID_6_)" cx="349.87" cy="416.332" rx="53.703" ry="20.843"/>
		<g>
			<path fill="#76FFE8" d="M371,304.971c0,1.358-1.762,5.029-3.123,5.029H334.2c-1.359,0-4.199-3.671-4.199-5.029v-0.824
				c0-2.465,2.41-4.004,5.799-4.927c8.133-2.22,20.648-2.702,29.511,0c2.668,0.814,5.69,2.259,5.69,4.927L371,304.971L371,304.971z"
				/>
			<path fill="#76FFE8" d="M330,333.062c0-1.363,2.84-5.062,4.199-5.062h33.678c1.361,0,3.123,3.698,3.123,5.062v0.817
				c0,2.468-1.871,4.004-5.254,4.931c-8.137,2.221-20.924,2.701-29.783,0c-2.67-0.812-5.963-2.262-5.963-4.931V333.062z"/>
			<rect x="330" y="321" fill="#76FFE8" width="41" height="5"/>
			<g>
				<path fill="#76FFE8" d="M331.133,319.448c-0.354,0-0.709-0.138-0.977-0.407c-0.539-0.537-0.539-1.41,0-1.95
					c2.557-2.556,5.738-5.737,10.268-2.567c3.375,2.359,6.646,2.562,10.014,0.613c4.246-2.467,7.082-3.084,11.693,0.053
					c3.266,2.221,4.258,1.539,6.658-0.761c0.549-0.525,1.424-0.509,1.949,0.04c0.526,0.553,0.506,1.426-0.039,1.95
					c-3.213,3.076-5.66,4.085-10.121,1.051c-3.279-2.232-4.834-2.223-8.76,0.052c-4.269,2.473-8.754,2.218-12.976-0.733
					c-2.396-1.683-3.819-0.66-6.737,2.255C331.836,319.311,331.483,319.448,331.133,319.448z"/>
			</g>
		</g>
	</g>
</g>
<path fill="#FFF0CA" d="M205.214,0c12.493,11.449,64.961,18.571,73.955,20.57c8.995,1.998,31.481,7.578,29.483,13.075
	c-1.999,5.497-35.979,9.996-48.472,10.495c-12.492,0.5-107.604,1.668-108.271,42.311c-0.666,40.643,92.613,49.312,184.557,61.971
	C386.979,155.376,431.252,174,463,198.871V0H205.214z"/>
<path fill="#DFF7F6" d="M389.573,68.888C372.751,60.393,361.757,44,361.757,44h-26.65c0.666,11-10.869,16.06-10.869,16.06
	c7.955,10.244,19.779,19.782,48.014,33.024c28.234,13.243,64.461,21.453,64.461,21.453l16.658-22.001
	C426.552,85.872,406.396,77.383,389.573,68.888z"/>
<path fill="#DFF7F6" d="M462.105,94.107l-14.014,22.736c3.408,0.825,8.553,1.983,14.908,3.318v-25.81
	C462.418,94.196,462.105,94.107,462.105,94.107z"/>
<path fill="#DFF7F6" d="M333.94,36h26.693c0,0,2.186-8.568-1.312-14.189C355.823,16.188,347.89,8.178,321.655,0h-62.837
	c0,0,31.865,3.445,51.245,13.106C329.444,22.769,332.774,30,333.94,36z"/>
<path fill="#FFF0CA" d="M454.066,381.992C406.094,418.971,227.201,463,227.201,463H463v-87.916
	C460.127,377.319,457.15,379.616,454.066,381.992z"/>
<path fill="#F3F9D9" d="M432.414,119.76l-15.992,24.651c16.574,5.493,32.422,13.301,46.578,21.622v-38.636
	C443.535,123.064,432.414,119.76,432.414,119.76z"/>
<path fill="#FFF6E3" d="M339.628,121.092c38.477,7.995,63.543,18.239,63.543,18.239l18.158-21.737
	c-17.924-4.777-52.717-18.489-52.717-18.489L339.628,121.092z"/>
<path fill="#FFF6E3" d="M339.628,83.115l-42.974,18.488l31.231,17.615l32.23-24.361C350.235,90.067,339.628,83.115,339.628,83.115z"
	/>
<path fill="#FFF6E3" d="M273.417,111.597c0,0,11.743,2.249,35.479,5.997l-21.236-11.993L273.417,111.597z"/>
<polygon fill="#FFF6E3" points="247.933,83.115 274.666,70.122 233.941,71.871 215.952,78.866 210.705,93.857 228.693,105.601 
	256.178,108.599 277.416,99.104 "/>
<path fill="#FFF6E3" d="M186.718,89.36c0,0,4.249,3.498,8.995,5.497c0,0,9.744-5.746,8.745-15.991
	C204.458,78.866,196.963,79.366,186.718,89.36z"/>
<path fill="#FFF6E3" d="M287.408,96.606l21.487-8.745c-11.991-6.996-26.483-13.993-26.483-13.993l-20.738,9.246L287.408,96.606z"/>
<path fill="#FFF6E3" d="M330.134,78.866l-15.492-15.74c-10.243,1-25.233,6.996-25.233,6.996l25.36,13.451L330.134,78.866z"/>
<path fill="#FFF6E3" d="M432.352,59.128l-33.146,7.662c0,0,25.152,12.492,59.965,21.737c1.279,0.34,2.557,0.668,3.83,0.99V75.112
	L432.352,59.128z"/>
<path fill="#FFF6E3" d="M391.013,63.126l34.314-7.329l-22.156-13.325l-34.645,0.666C378.853,56.63,391.013,63.126,391.013,63.126z"
	/>
<path fill="#FFF6E3" d="M400.733,36l-16.49-25.081l-22.736,3.367c0,0,3.414,1.279,5.914,6.776C369.919,26.559,367.753,36,367.753,36
	H400.733z"/>
<path fill="#FFF6E3" d="M392.739,6.245L369.919,0h-37.311c0,0,16.156,5.538,26.15,12.368L392.739,6.245z"/>
<polygon fill="#FFF6E3" points="406.896,7.494 392.739,9.713 396.737,16 412.728,16 "/>
<polygon fill="#FFF6E3" points="413.56,6.198 423.722,18 398.735,18 402.733,25 446.374,25 426.72,3.529 "/>
<polygon fill="#FFF6E3" points="421.388,1.248 420.056,0 381.911,0 398.319,4.704 "/>
<polygon fill="#FFF6E3" points="446.456,30 405.231,30 409.729,36 441.042,36 "/>
<polygon fill="#FFF6E3" points="446.678,43.138 415.363,42.472 463,67.791 463,49.647 "/>
<polygon fill="#FFF6E3" points="455.672,31 451.674,38.402 463,43.064 463,31 "/>
<path fill="#FFF6E3" d="M436.41,4.034L439.242,7H463V3.376C447.604,3.559,436.41,4.034,436.41,4.034z"/>
<polygon fill="#FFF6E3" points="449.986,18.042 456.73,25 463,25 463,18.206 "/>
<polygon fill="#FFF6E3" points="441.074,9 446.736,16 463,16 463,9 "/>
<g>
	<g>
		<path fill="#FFF0CA" d="M178.966,324.17c-0.535,0-1.07-0.171-1.518-0.514c-33.198-25.372-63.918-53.999-63.918-91.345
			c0-36.082,29.354-65.436,65.436-65.436c36.082,0,65.437,29.354,65.437,65.436c0,38.539-32.324,67.812-63.944,91.363
			C180.017,324.005,179.491,324.17,178.966,324.17z"/>
		<path fill="#313D69" d="M178.966,169.375c34.759,0,62.937,28.177,62.937,62.936s-26.779,62.426-62.937,89.358
			c-35.239-26.933-62.936-54.6-62.936-89.358S144.208,169.375,178.966,169.375 M178.966,164.375
			c-37.46,0-67.936,30.476-67.936,67.936c0,17.33,6.313,33.906,19.3,50.676c10.244,13.227,24.307,26.382,45.6,42.655
			c0.896,0.685,1.966,1.027,3.036,1.027c1.05,0,2.1-0.33,2.987-0.99c32.117-23.923,64.95-53.724,64.95-93.368
			C246.903,194.852,216.427,164.375,178.966,164.375L178.966,164.375z"/>
	</g>
</g>
<g>
	<g>
		<g>
			<g>
				<path fill="#313D69" d="M220.689,251.95c0,0-0.06,0.079-0.179,0.235c-0.111,0.145-0.275,0.358-0.497,0.627
					c-0.447,0.531-1.093,1.312-1.986,2.237c-0.885,0.927-1.986,2.034-3.332,3.213c-1.339,1.185-2.901,2.474-4.701,3.762
					c-3.587,2.576-8.116,5.204-13.385,7.146c-2.629,0.974-5.437,1.771-8.35,2.321c-0.731,0.123-1.465,0.244-2.201,0.368
					c-0.742,0.089-1.486,0.179-2.231,0.269c-0.772,0.057-1.543,0.11-2.317,0.168c-0.741,0.035-1.429,0.041-2.146,0.065l-0.266,0.007
					l-0.138,0.003l-0.07-0.003l-0.142-0.004l-0.566-0.014l-1.131-0.03c-0.754-0.011-1.504-0.096-2.254-0.139
					c-1.499-0.122-2.984-0.322-4.444-0.581c-2.924-0.511-5.745-1.293-8.387-2.248c-2.644-0.956-5.107-2.1-7.351-3.322
					c-2.245-1.228-4.27-2.541-6.061-3.846c-1.793-1.306-3.344-2.613-4.668-3.822c-1.332-1.2-2.415-2.326-3.285-3.276
					c-0.681-0.734-1.214-1.379-1.623-1.885c-0.256,0.894-0.377,1.787-0.403,2.534c-0.03,0.649,0.003,1.192,0.034,1.561
					c0.018,0.183,0.034,0.324,0.047,0.412c0.012,0.079,0.02,0.122,0.02,0.122l0.006,0.041c0.142,0.896-0.467,1.735-1.361,1.876
					c-0.894,0.143-1.735-0.469-1.877-1.359c-0.003-0.028-0.008-0.058-0.01-0.084c0,0-0.009-0.079-0.024-0.228
					c-0.014-0.141-0.027-0.333-0.038-0.578c-0.017-0.486-0.024-1.168,0.053-1.983c0.075-0.812,0.226-1.765,0.525-2.761
					c0.146-0.499,0.334-1.007,0.56-1.513c0.227-0.504,0.498-1.004,0.807-1.479c0.152-0.239,0.326-0.468,0.492-0.696
					c0.185-0.217,0.354-0.445,0.551-0.646c0.195-0.202,0.383-0.409,0.593-0.587c0.202-0.188,0.406-0.365,0.621-0.522
					c0.105-0.08,0.21-0.162,0.313-0.241c0.109-0.071,0.216-0.142,0.322-0.213c0.211-0.144,0.422-0.274,0.635-0.385
					c0.417-0.245,0.833-0.42,1.211-0.589c0.386-0.139,0.735-0.289,1.056-0.37c0.317-0.091,0.593-0.184,0.823-0.226
					c0.458-0.101,0.72-0.158,0.72-0.158c0.681-0.148,1.352,0.282,1.5,0.961c0.144,0.657-0.254,1.31-0.897,1.484l-0.088,0.024
					c0,0-0.213,0.058-0.587,0.158c-0.19,0.043-0.404,0.131-0.656,0.216c-0.257,0.076-0.519,0.211-0.818,0.331
					c-0.282,0.147-0.598,0.293-0.896,0.492c-0.157,0.09-0.308,0.195-0.456,0.309c-0.075,0.055-0.152,0.108-0.229,0.166
					c-0.072,0.062-0.145,0.125-0.218,0.188c-0.151,0.121-0.292,0.256-0.428,0.396c-0.146,0.134-0.271,0.292-0.403,0.442
					c-0.037,0.037-0.068,0.083-0.101,0.125c0.112,0.101,0.248,0.223,0.424,0.379c0.477,0.429,1.208,1.034,2.146,1.794
					c0.941,0.754,2.117,1.633,3.484,2.604c1.374,0.96,2.962,1.986,4.732,3.022c3.538,2.07,7.846,4.144,12.661,5.627
					c2.405,0.748,4.935,1.337,7.528,1.741c1.296,0.204,2.614,0.342,3.935,0.446c0.663,0.034,1.325,0.108,1.991,0.109l0.998,0.019
					l0.5,0.011l0.124,0.003l0.052,0.001h0.006l0.266-0.006c0.703-0.02,1.438-0.021,2.112-0.049c0.643-0.044,1.285-0.086,1.925-0.128
					c0.661-0.071,1.32-0.14,1.978-0.208c0.655-0.096,1.308-0.189,1.958-0.283c0.646-0.12,1.292-0.24,1.933-0.358
					c0.639-0.141,1.272-0.281,1.904-0.421c0.627-0.163,1.249-0.325,1.867-0.487c0.217-0.064,0.429-0.128,0.645-0.19
					c0.18-0.97,0.287-2.226,0.326-3.714c0.029-1.067,0.06-2.224,0.093-3.446c0.042-1.249,0.122-2.592,0.338-4.01
					c0.211-1.411,0.561-2.924,1.234-4.414c0.657-1.488,1.729-2.927,3.073-4.027c0.342-0.263,0.691-0.522,1.054-0.753l0.553-0.322
					c0.184-0.11,0.372-0.205,0.565-0.288l0.572-0.261l0.143-0.064l0.186-0.072l0.249-0.092l0.497-0.184
					c0.176-0.062,0.402-0.126,0.601-0.187c0.413-0.133,0.814-0.22,1.215-0.301c0.399-0.087,0.824-0.128,1.238-0.177
					c0.845-0.063,1.719-0.028,2.585,0.142c0.866,0.184,1.71,0.527,2.446,0.991c0.734,0.469,1.368,1.045,1.85,1.669
					c0.987,1.245,1.495,2.573,1.787,3.771c0.297,1.202,0.366,2.304,0.351,3.266c-0.012,0.76-0.092,1.431-0.189,2.013
					c0.52-0.378,0.997-0.736,1.425-1.067c0.952-0.744,1.697-1.336,2.182-1.757c0.473-0.406,0.726-0.622,0.726-0.622l0.065-0.057
					c0.574-0.494,1.438-0.429,1.929,0.145C221.067,250.729,221.073,251.449,220.689,251.95z"/>
			</g>
		</g>
		<g>
			<path fill="#ca4f24" d="M211.69,253.82c-0.026-0.571-0.102-1.262-0.238-2.032c-0.141-0.768-0.339-1.621-0.67-2.464
				c-0.32-0.845-0.771-1.68-1.358-2.322c-0.293-0.324-0.614-0.596-0.976-0.799c-0.358-0.207-0.747-0.368-1.191-0.459
				c-0.446-0.087-0.937-0.116-1.465-0.082c-0.268,0.035-0.536,0.051-0.816,0.113c-0.28,0.057-0.563,0.111-0.82,0.19
				c-0.136,0.04-0.252,0.062-0.41,0.113l-0.5,0.175l-0.25,0.087l-0.057,0.021l-0.006,0.003l-0.099,0.043l-0.399,0.174
				c-0.277,0.101-0.502,0.269-0.763,0.392c-0.244,0.145-0.472,0.305-0.704,0.464c-0.88,0.68-1.61,1.547-2.126,2.607
				c-0.522,1.052-0.912,2.228-1.16,3.444c-0.251,1.215-0.417,2.447-0.566,3.643c-0.146,1.192-0.248,2.353-0.399,3.438
				c-0.127,0.931-0.266,1.808-0.443,2.614c2.155-0.748,4.195-1.596,6.105-2.494c0.121-0.309,0.246-0.642,0.374-0.995
				c0.187-0.551,0.38-1.143,0.538-1.743c0.082-0.299,0.16-0.6,0.223-0.896c0.071-0.298,0.131-0.592,0.179-0.876
				c0.057-0.287,0.1-0.563,0.133-0.827c0.035-0.262,0.073-0.513,0.086-0.742c0.02-0.229,0.039-0.441,0.055-0.628
				c0.005-0.187,0.01-0.35,0.013-0.483c0.009-0.27,0.013-0.424,0.013-0.424l0.002-0.074c0.017-0.576,0.5-1.03,1.078-1.011
				c0.528,0.013,0.952,0.419,1.007,0.93c0,0,0.02,0.172,0.054,0.478c0.016,0.152,0.037,0.338,0.059,0.551
				c0.012,0.213,0.025,0.453,0.039,0.715c0.019,0.262,0.018,0.545,0.018,0.846c0.005,0.3,0,0.616-0.019,0.941
				c-0.01,0.328-0.031,0.665-0.063,1.006c-0.024,0.342-0.064,0.687-0.109,1.031c-0.015,0.124-0.036,0.246-0.053,0.369
				c0.488-0.266,0.965-0.532,1.426-0.797c1.576-0.909,3.004-1.801,4.276-2.65c0.003-0.071,0.006-0.154,0.01-0.258
				C211.714,254.839,211.733,254.394,211.69,253.82z"/>
		</g>
	</g>
	<polygon fill="#313D69" points="247,183 295,183 295,195 278,195 278,273 264,273 264,195 247,195 	"/>
	<path fill="#313D69" d="M292,230h14c0,0,0,50.213,0,55.539c0,11.82-6.514,15.547-11.639,17.757
		c-5.127,2.212-14.198,1.851-18.417-0.861c-4.224-2.714-8.17-7.435-8.17-15.435H292V230z"/>
	<rect x="292" y="206" fill="#313D69" width="14" height="14"/>
</g>
</svg>
