<?xml version="1.0" encoding="utf-8"?>
<!-- Generator: Adobe Illustrator 16.0.0, SVG Export Plug-In . SVG Version: 6.00 Build 0)  -->
<!DOCTYPE svg PUBLIC "-//W3C//DTD SVG 1.1//EN" "http://www.w3.org/Graphics/SVG/1.1/DTD/svg11.dtd">
<svg version="1.1" id="Layer_1" xmlns="http://www.w3.org/2000/svg" xmlns:xlink="http://www.w3.org/1999/xlink" x="0px" y="0px"
	 width="802.857px" height="385.987px" viewBox="0 0 802.857 385.987" enable-background="new 0 0 802.857 385.987"
	 xml:space="preserve">
<path fill="#1A48C1" d="M74.857,284.559h-34c0,0,0-180.275,0-193.402c0-13.129,11.682-39.598,35.317-39.598
	c23.634,0,23.683,0,23.683,0v31h-25v21h21v27h-21V284.559z"/>
<path fill="#1A48C1" d="M194.857,182.559c0,0,0-32.073,0-44.136c0-12.063-8.467-34.864-32.1-34.864h-23.291
	c-16.732,0-26.609,16.154-26.609,34.522c0,15.096,0,95.533,0,109.64c0,14.102,9.76,32.76,26.526,37.357
	c5.611,1.532,16.921,0.602,22.575,0c15.248-1.992,32.898-13.396,32.898-37.357v-25.266l-27-0.014c0,0,0,14.447,0,21.341
	s-7.59,12.321-14.484,12.321c-6.893,0-12.516-4.438-12.516-12.321c0-11.818,0-61.224,0-61.224H194.857z M140.857,138.423
	c0,0-1.822-7.864,4.745-7.864c6.565,0,12.466,0,12.466,0s9.789,1.944,9.789,8.838c0,6.893,0,15.162,0,15.162h-27V138.423z"/>
<path fill="#1A48C1" d="M371.857,51.559v52c0,0-5.182,0-25.207,0c-20.027,0-30.793,26.986-30.793,26.986s0,102.742,0,123.093
	c0,20.348,28.165,30.921,28.165,30.921h62.835v-233H371.857z M375.857,257.559h-20.018c0,0-7.982-2.934-7.982-8.84
	c0-5.91,0-110.296,0-110.296s0.108-7.864,6.017-7.864s21.983,0,21.983,0V257.559z"/>
<path fill="#1A48C1" d="M481.421,300.34l-30.896,4.811l-29.708-190.819l30.894-4.81l1.735,11.138c0,0,2.096-4.982,12.065-6.534
	c9.975-1.554,16.111,0.652,21.121,5.604c0,0,5.99-9.748,16.194-11.415c10.203-1.667,20.205-3.971,30.849,3.59
	c10.646,7.562,12.303,17.27,13.515,25.054c1.213,7.784,22.714,145.881,22.714,145.881l-26.521,4.13
	c0,0-22.184-139.275-23.056-144.869c-0.87-5.595-5.403-6.864-7.958-6.465c-2.555,0.396-7.867,2.115-6.732,9.411
	c1.138,7.296,22.469,144.303,22.469,144.303l-30.896,4.811c0,0-22.105-141.992-22.561-144.911c-0.454-2.92-3.476-6.935-8.705-6.119
	c-5.231,0.813-8.2,5.137-7.633,8.787C458.88,155.564,481.421,300.34,481.421,300.34z"/>
<polygon fill="#1A48C1" points="640.857,38.559 757.857,38.559 757.857,68.559 721.857,68.559 721.857,288.559 684.857,288.559 
	684.857,68.559 640.857,68.559 "/>
<path fill="#1A48C1" d="M748.857,95.559h29.461c0,0,2.106,209.846,2.106,223.812c0,13.968-13.967,33.113-27.407,38.911
	c-13.438,5.798-37.42,4.358-48.487-2.755c-11.068-7.117-21.608-18.969-21.608-40.969h65.936V95.559z"/>
<path fill="#1A48C1" d="M40.722,167.408c1.842-18.432-20.082-19.704-20.082-19.704S15.857,23.297,99.857,0v68.051l-29.566,5.518
	L40.722,167.408z"/>
<path fill="#1A48C1" d="M296.857,182.559c0,0,0-32.073,0-44.136c0-12.063-9.309-34.864-32.942-34.864h-23.292
	c-16.732,0-26.766,16.154-26.766,34.522c0,15.096,0,95.533,0,109.64c0,14.102,9.839,32.76,26.606,37.357
	c5.608,1.532,17.38,0.602,23.034,0c15.248-1.992,33.359-13.396,33.359-37.357v-25.266l-28-0.014c0,0,0,14.447,0,21.341
	s-8.092,12.321-14.984,12.321c-6.895,0-13.016-4.438-13.016-12.321c0-11.818,0-61.224,0-61.224H296.857z M240.857,138.423
	c0,0-0.665-7.864,5.901-7.864c6.565,0,12.466,0,12.466,0s9.633,1.944,9.633,8.838c0,6.893,0,15.162,0,15.162h-28V138.423z"/>
<path fill="#1A48C1" d="M653.947,168.338c0,0-4.863-31.222-6.719-43.141c-1.854-11.919-14.171-33.646-37.521-30.011l-23.016,3.583
	c-16.533,2.574-24.12,20.673-21.293,38.823c2.32,14.918,14.695,94.396,16.866,108.336c2.169,13.933,14.883,30.837,32.158,32.8
	c5.778,0.65,17.091-2.053,22.585-3.516c14.759-4.312,30.722-18.343,27.036-42.018l-3.887-24.965l-27.263,4.231
	c0,0,2.225,14.274,3.283,21.086c1.062,6.812-5.895,13.388-12.705,14.448c-6.813,1.06-13.34-2.414-14.555-10.204
	c-1.817-11.678-9.49-60.965-9.49-60.965L653.947,168.338z M592.709,133.686c0,0-2.2-7.588,4.289-8.6
	c6.487-1.011,12.318-1.918,12.318-1.918s9.742,0.426,10.802,7.237c1.061,6.811,2.324,14.918,2.324,14.918l-27.262,4.244
	L592.709,133.686z"/>
</svg>
