<?xml version="1.0" encoding="utf-8"?>
<!-- Generator: Adobe Illustrator 16.0.0, SVG Export Plug-In . SVG Version: 6.00 Build 0)  -->
<!DOCTYPE svg PUBLIC "-//W3C//DTD SVG 1.1//EN" "http://www.w3.org/Graphics/SVG/1.1/DTD/svg11.dtd">
<svg version="1.1" id="Layer_1" xmlns="http://www.w3.org/2000/svg" xmlns:xlink="http://www.w3.org/1999/xlink" x="0px" y="0px"
	 width="906.565px" height="474.718px" viewBox="0 0 906.565 474.718" enable-background="new 0 0 906.565 474.718"
	 xml:space="preserve">
<path fill="#1A48C1" d="M248.5,278.64c0,0,0-33.713,0-45.775c0-12.063-3.833-27.697-26.333-33.864
	c-5.696-1.562-19.137-1.614-27.558,0c-14.775,2.833-28.109,15.154-28.109,33.522c0,15.097,0,95.533,0,109.64
	c0,14.102,11.26,32.76,28.026,37.357c5.611,1.532,16.171,0.602,21.825,0c15.248-1.992,32.148-13.396,32.148-37.357v-25.266
	l-27-0.014c0,0,0,14.447,0,21.341s-7.59,12.321-14.484,12.321c-6.893,0-12.516-4.438-12.516-12.321c0-11.818,0-59.584,0-59.584
	H248.5z M196.5,233.185c1.032-5.137,7.25-9.691,14-9.691s12.001,4.239,13,9.771c1.225,6.783,0,17.376,0,17.376h-27
	C196.5,250.64,195.334,238.987,196.5,233.185z"/>
<path fill="#1A48C1" d="M426.5,146.64v52c0,0-3.182,0-23.207,0c-20.027,0-32.793,18.36-32.793,35.026c0,16.668,0,94.062,0,114.413
	c0,20.348,17.996,31.561,30.165,31.561s60.835,0,60.835,0v-233H426.5z M430.5,352.64c0,0-13.143,0-16.375,0
	c-2.928,0-11.625-3.687-11.625-11.765c0-5.91,0-99.5,0-104.125c0-5.945,4.558-11.11,11.75-11.11c5.908,0,16.25,0,16.25,0V352.64z"/>
<polygon fill="#1A48C1" points="730.5,147.64 852.5,147.64 852.5,177.64 811.5,177.64 811.5,378.64 774.5,378.64 774.5,177.64 
	730.5,177.64 "/>
<path fill="#1A48C1" d="M847.5,267.64h37c0,0,0,134.678,0,148.644c0,31-16.934,40.768-30.373,46.565
	c-13.438,5.798-37.153,4.615-48.221-2.498c-11.068-7.117-21.342-18.711-21.342-40.711H847.5V267.64z"/>
<path fill="#1A48C1" d="M350.5,278.64c0,0,0-33.713,0-45.775c0-12.063-3.833-27.697-26.333-33.864
	c-5.696-1.562-19.137-1.614-27.558,0c-14.775,2.833-28.109,15.154-28.109,33.522c0,15.097,0,95.533,0,109.64
	c0,14.102,11.26,32.76,28.026,37.357c5.611,1.532,16.171,0.602,21.825,0c15.248-1.992,32.148-13.396,32.148-37.357v-25.266
	l-27-0.014c0,0,0,14.447,0,21.341s-7.59,12.321-14.484,12.321c-6.893,0-12.516-4.438-12.516-12.321c0-11.818,0-59.584,0-59.584
	H350.5z M298.5,233.185c1.032-5.137,7.25-9.691,14-9.691s12.001,4.239,13,9.771c1.225,6.783,0,17.376,0,17.376h-27
	C298.5,250.64,297.334,238.987,298.5,233.185z"/>
<path fill="#1A48C1" d="M540.168,380.64H508.5v-193h30v11.017c0,0,3.529-4.613,13.617-4.658c10.096-0.047,16.222,3.053,20.436,8.696
	c0,0,7.574-8.743,17.912-8.866c10.338-0.124,20.669-0.907,30.063,8.158c9.395,9.068,9.964,18.995,9.999,26.874
	c0.037,7.879,0.047,147.779,0.047,147.779H603.49c0,0,0.293-141.055,0-146.709c-0.336-6.498-6.33-8.527-10.396-8.478
	c-2.586,0.032-7.8,2.514-7.783,8.74c0.019,7.383,0,146.446,0,146.446h-27.312c0,0,0.207-143.395,0-146.342
	c-0.363-5.135-3.502-8.879-10.115-8.61c-5.289,0.215-7.73,4.957-7.715,8.65C540.184,234.029,540.168,380.64,540.168,380.64z"/>
<path fill="#1A48C1" d="M729.5,278.64c0,0,0-33.713,0-45.775c0-12.063-3.902-27.697-26.402-33.864
	c-5.695-1.562-19.102-1.614-27.522,0c-14.775,2.833-28.075,15.154-28.075,33.522c0,15.097,0,95.533,0,109.64
	c0,14.102,11.191,32.76,27.957,37.357c5.611,1.532,16.206,0.602,21.86,0c15.248-1.992,32.183-13.396,32.183-37.357v-25.266
	l-27-0.014c0,0,0,14.447,0,21.341s-7.59,12.321-14.484,12.321c-6.893,0-12.516-4.438-12.516-12.321c0-11.818,0-59.584,0-59.584
	H729.5z M677.362,233.185c1.032-5.137,7.25-9.691,14-9.691s12.001,4.239,13,9.771c1.225,6.783,0,17.376,0,17.376h-27
	C677.362,250.64,676.196,238.987,677.362,233.185z"/>
<rect x="847.5" y="206.64" fill="#1A48C1" width="37" height="36"/>
<path fill="#1A48C1" d="M10.5,8v371.948c0,16.498,8.002,22.691,24.5,22.691h41.539c16.499,0,21.961-6.193,21.961-22.691v-36.164
	c0-57.999,0.949-63.578,47-72.539C145.5,271.245,156.5,58,10.5,8z M116.5,182.64h-41v33h24v40h-24v125h-46c0,0,0-164.658,0-184.264
	c0-19.608,18.31-59.736,53.612-59.736c35.3,0,33.388,0,33.388,0V182.64z"/>
</svg>
