<?xml version="1.0" encoding="utf-8"?>
<!-- Generator: Adobe Illustrator 16.0.0, SVG Export Plug-In . SVG Version: 6.00 Build 0)  -->
<!DOCTYPE svg PUBLIC "-//W3C//DTD SVG 1.1//EN" "http://www.w3.org/Graphics/SVG/1.1/DTD/svg11.dtd">
<svg version="1.1" id="Layer_1" xmlns="http://www.w3.org/2000/svg" xmlns:xlink="http://www.w3.org/1999/xlink" x="0px" y="0px"
	 width="900px" height="369.725px" viewBox="3.782 61.859 900 369.725" enable-background="new 3.782 61.859 900 369.725"
	 xml:space="preserve">
<g>
	<path fill="#F69571" d="M169.782,213.859c0,0,0-38.188,0-52.124c0-13.938-4.511-31.999-30.507-39.126
		c-6.582-1.803-22.697-1.865-32.426,0c-17.071,3.274-33.067,17.509-33.067,38.731c0,17.443,0,110.373,0,126.673
		c0,16.291,13.557,37.85,32.928,43.161c6.481,1.77,19.04,0.695,25.572,0c17.616-2.304,37.5-15.478,37.5-43.161v-29.191l-31-0.017
		c0,0,0,16.692,0,24.656s-9.173,14.236-17.137,14.236c-7.965,0-14.863-5.13-14.863-14.236c0-13.653,0-69.603,0-69.603H169.782z
		 M109.536,160.898c1.194-5.935,8.377-10.594,16.176-10.594c7.798,0,13.865,3.993,15.019,10.383c1.416,7.838,0,19.172,0,19.172
		h-31.194C109.536,179.859,108.19,167.602,109.536,160.898z"/>
	<path fill="#F69571" d="M374.782,61.859v62c0,0-3.19,0-26.327,0c-23.138,0-38.673,19.549-38.673,38.801
		c0,19.259,0,108.677,0,132.19c0,23.507,21.577,34.009,35.638,34.009c14.058,0,69.362,0,69.362,0v-267H374.782z M376.782,302.859
		c0,0-12.077,0-15.812,0c-3.382,0-13.188-7.001-13.188-16.333c0-6.829,0-114.959,0-120.301c0-6.871,5.023-13.366,13.332-13.366
		c6.825,0,15.668,0,15.668,0V302.859z"/>
	<polygon fill="#313D69" points="727.782,61.859 869.782,61.859 869.782,95.859 819.782,95.859 819.782,328.859 778.782,328.859 
		778.782,95.859 727.782,95.859 	"/>
	<path fill="#313D69" d="M862.782,201.859h41c0,0,0,155.654,0,171.789c0,35.814-19.247,47.102-34.771,53.802
		c-15.523,6.697-42.77,4.995-55.554-3.22c-12.789-8.225-24.501-20.371-24.501-47.371h73.826V201.859z"/>
	<path fill="#F69571" d="M287.782,213.859c0,0,0-38.188,0-52.124c0-13.938-4.589-31.999-30.584-39.126
		c-6.58-1.803-22.66-1.865-32.389,0c-17.07,3.274-33.027,17.509-33.027,38.731c0,17.443,0,110.373,0,126.673
		c0,16.291,13.477,37.85,32.85,43.161c6.484,1.77,19.08,0.695,25.611,0c17.617-2.304,37.539-15.478,37.539-43.161v-29.191l-31-0.017
		c0,0,0,16.692,0,24.656s-9.171,14.236-17.14,14.236c-7.962,0-14.86-5.13-14.86-14.236c0-13.653,0-69.603,0-69.603H287.782z
		 M227.383,160.898c1.192-5.935,8.376-10.594,16.175-10.594c7.799,0,13.864,3.993,15.02,10.383c1.414,7.838,0,19.172,0,19.172
		h-31.194C227.383,179.859,226.036,167.602,227.383,160.898z"/>
	<path fill="#F69571" d="M506.594,333.859h-38.812v-224h39v12.354c0,0,3.021-5.331,14.677-5.382
		c11.665-0.055,18.21,3.527,23.076,10.047c0,0,8.491-10.103,20.435-10.244c11.941-0.143,23.75-1.049,34.602,9.425
		c10.853,10.478,11.445,22.453,11.485,31.556c0.045,9.104-0.012,171.243-0.012,171.243h-31.292c0,0,0.338-163.473,0-170.007
		c-0.386-7.507-7.313-10.104-12.009-10.048c-2.989,0.037-9.015,3.285-8.996,10.481c0.023,8.528,0,169.575,0,169.575h-31.556
		c0,0,0.239-166.178,0-169.582c-0.419-5.932-4.045-10.513-11.685-10.205c-6.11,0.25-8.933,6.301-8.914,10.566
		C506.61,163.904,506.594,333.859,506.594,333.859z"/>
	<path fill="#F69571" d="M727.782,213.859c0,0,0-38.188,0-52.124c0-13.938-5.729-31.999-31.725-39.126
		c-6.58-1.803-22.089-1.865-31.815,0c-17.072,3.274-32.46,17.509-32.46,38.731c0,17.443,0,110.373,0,126.673
		c0,16.291,12.342,37.85,31.707,43.161c6.485,1.77,19.655,0.695,26.187,0c17.615-2.304,38.106-15.478,38.106-43.161v-29.191
		l-33-0.017c0,0,0,16.692,0,24.656s-7.671,14.236-15.635,14.236c-7.967,0-13.365-5.13-13.365-14.236c0-13.653,0-69.603,0-69.603
		H727.782z M665.101,160.898c1.193-5.935,8.375-10.594,16.178-10.594c7.797,0,13.864,3.993,15.016,10.383
		c1.415,7.838,0,19.172,0,19.172h-31.193C665.101,179.859,663.754,167.602,665.101,160.898z"/>
	<rect x="862.782" y="128.859" fill="#313D69" width="41" height="46"/>
	<path fill="#F69571" d="M70.782,95.859h-26v28h12v29h-12v174h-41c0,0,0-204.567,0-219.733c0-15.167,13.925-45.267,41.232-45.267
		c27.306,0,25.768,0,25.768,0V95.859z"/>
</g>
</svg>
