<?xml version="1.0" encoding="utf-8"?>
<!-- Generator: Adobe Illustrator 16.0.0, SVG Export Plug-In . SVG Version: 6.00 Build 0)  -->
<!DOCTYPE svg PUBLIC "-//W3C//DTD SVG 1.1//EN" "http://www.w3.org/Graphics/SVG/1.1/DTD/svg11.dtd">
<svg version="1.1" id="Layer_1" xmlns="http://www.w3.org/2000/svg" xmlns:xlink="http://www.w3.org/1999/xlink" x="0px" y="0px"
	 width="858.568px" height="456.72px" viewBox="0 0 858.568 456.72" enable-background="new 0 0 858.568 456.72"
	 xml:space="preserve">
<path fill="#A9F9BC" d="M209.5,259.64c0,0,0-33.213,0-45.275c0-12.063-4.333-27.697-26.833-33.864
	c-5.696-1.562-18.887-1.614-27.308,0c-14.775,2.833-27.859,15.154-27.859,33.522c0,15.097,0,95.533,0,109.64
	c0,14.102,10.76,32.76,27.526,37.357c5.611,1.532,16.421,0.602,22.075,0c15.248-1.992,32.398-13.396,32.398-37.357v-25.266
	l-27-0.014c0,0,0,14.447,0,21.341s-7.59,12.321-14.484,12.321c-6.893,0-12.516-4.438-12.516-12.321c0-11.818,0-60.084,0-60.084
	H209.5z M156.5,214.435c1.032-5.137,7.25-9.566,14-9.566s12.001,4.052,13,9.583c1.225,6.783,0,17.188,0,17.188h-27
	C156.5,231.64,155.334,220.237,156.5,214.435z"/>
<path fill="#A9F9BC" d="M387.5,127.64v52c0,0-4.182,0-24.207,0c-20.027,0-31.793,18.86-31.793,35.526c0,16.668,0,94.062,0,114.413
	c0,20.348,16.996,31.061,29.165,31.061s61.835,0,61.835,0v-233H387.5z M391.5,333.64c0,0-14.143,0-17.375,0
	c-2.928,0-10.625-3.187-10.625-11.265c0-5.91,0-99.5,0-104.125c0-5.945,3.558-11.61,10.75-11.61c5.908,0,17.25,0,17.25,0V333.64z"/>
<polygon fill="#A9F9BC" points="691.5,128.64 813.5,128.64 813.5,158.64 772.5,158.64 772.5,359.64 735.5,359.64 735.5,158.64 
	691.5,158.64 "/>
<path fill="#A9F9BC" d="M808.5,248.64h37c0,0,0,135.178,0,149.144c0,31-17.434,40.768-30.873,46.565
	c-13.438,5.798-37.403,4.365-48.471-2.748c-11.068-7.117-21.592-18.961-21.592-40.961H808.5V248.64z"/>
<path fill="#A9F9BC" d="M311.5,259.64c0,0,0-33.213,0-45.275c0-12.063-4.333-27.697-26.833-33.864
	c-5.696-1.562-18.887-1.614-27.308,0c-14.775,2.833-27.859,15.154-27.859,33.522c0,15.097,0,95.533,0,109.64
	c0,14.102,10.76,32.76,27.526,37.357c5.611,1.532,16.421,0.602,22.075,0c15.248-1.992,32.398-13.396,32.398-37.357v-25.266
	l-27-0.014c0,0,0,14.447,0,21.341s-7.59,12.321-14.484,12.321c-6.893,0-12.516-4.438-12.516-12.321c0-11.818,0-60.084,0-60.084
	H311.5z M258.5,214.435c1.032-5.137,7.25-9.566,14-9.566s12.001,4.052,13,9.583c1.225,6.783,0,17.188,0,17.188h-27
	C258.5,231.64,257.334,220.237,258.5,214.435z"/>
<path fill="#A9F9BC" d="M18.5,8.167V358.5c0,11.046,9.954,20.14,21,20.14h38c11.046,0,19-9.094,19-20.14V232.166
	c0-38.832,5.5-68.666,36.334-74.666C132.834,157.5,113.5,37.5,18.5,8.167z M99.5,158.64h-25v21h13v27h-13v148h-34
	c0,0,0-174.415,0-187.542c0-13.129,12.682-39.458,36.317-39.458c23.634,0,22.683,0,22.683,0V158.64z"/>
<path fill="#A9F9BC" d="M500.168,361.64H469.5v-193h30v11.517c0,0,3.029-4.613,13.117-4.658c10.096-0.047,15.972,3.053,20.186,8.696
	c0,0,7.449-8.743,17.787-8.866c10.338-0.124,20.606-0.907,30.001,8.158c9.395,9.068,9.933,18.745,9.968,26.624
	c0.037,7.879,0.016,147.529,0.016,147.529H563.49c0,0,0.293-140.805,0-146.459c-0.336-6.498-6.33-8.402-10.396-8.353
	c-2.586,0.032-7.8,2.326-7.783,8.553c0.019,7.383,0,146.259,0,146.259h-27.312c0,0,0.207-143.145,0-146.092
	c-0.363-5.135-3.502-8.754-10.115-8.485c-5.289,0.215-7.73,4.77-7.715,8.463C500.184,215.217,500.168,361.64,500.168,361.64z"/>
<path fill="#A9F9BC" d="M690.5,259.64c0,0,0-33.213,0-45.275c0-12.063-4.402-27.697-26.902-33.864
	c-5.695-1.562-18.852-1.614-27.272,0c-14.775,2.833-27.825,15.154-27.825,33.522c0,15.097,0,95.533,0,109.64
	c0,14.102,10.691,32.76,27.457,37.357c5.611,1.532,16.456,0.602,22.11,0c15.248-1.992,32.433-13.396,32.433-37.357v-25.266
	l-27-0.014c0,0,0,14.447,0,21.341s-7.59,12.321-14.484,12.321c-6.893,0-12.516-4.438-12.516-12.321c0-11.818,0-60.084,0-60.084
	H690.5z M637.362,214.435c1.032-5.137,7.25-9.566,14-9.566s12.001,4.052,13,9.583c1.225,6.783,0,17.188,0,17.188h-27
	C637.362,231.64,636.196,220.237,637.362,214.435z"/>
<rect x="808.5" y="187.64" fill="#A9F9BC" width="37" height="36"/>
</svg>
