<?xml version="1.0" encoding="utf-8"?>
<!-- Generator: Adobe Illustrator 16.0.0, SVG Export Plug-In . SVG Version: 6.00 Build 0)  -->
<!DOCTYPE svg PUBLIC "-//W3C//DTD SVG 1.1//EN" "http://www.w3.org/Graphics/SVG/1.1/DTD/svg11.dtd">
<svg version="1.1" id="Layer_1" xmlns="http://www.w3.org/2000/svg" xmlns:xlink="http://www.w3.org/1999/xlink" x="0px" y="0px"
	 width="374px" height="153.57px" viewBox="0 0 374 153.57" enable-background="new 0 0 374 153.57" xml:space="preserve">
<g>
	<path fill="#EFAF3B" d="M17.274,0"/>
</g>
<g>
	<path fill="#EFAF3B" d="M69,63c0,0,0-15.816,0-21.607c0-5.792-1.813-13.297-12.615-16.259c-2.736-0.749-9.517-0.775-13.56,0
		C35.731,26.495,29,32.41,29,41.229c0,7.249,0,45.867,0,52.639c0,6.771,5.748,15.729,13.798,17.937
		c2.693,0.734,7.908,0.288,10.622,0C60.741,110.848,69,105.372,69,93.868v-12.13L56,81.73c0,0,0,6.938,0,10.246
		c0,3.311-3.663,5.916-6.973,5.916S43,95.762,43,91.977C43,86.303,43,63,43,63H69z M44.087,41.083
		c0.496-2.466,3.481-4.421,6.722-4.421c3.24,0,5.762,1.688,6.241,4.343c0.589,3.257,0,7.995,0,7.995H44.087
		C44.087,49,43.527,43.869,44.087,41.083z"/>
	<path fill="#EFAF3B" d="M154,0v26c0,0-1.015,0-10.629,0C133.756,26,127,33.777,127,41.777c0,8.003,0,45.161,0,54.932
		c0,9.77,9.267,14.291,15.109,14.291c5.842,0,28.891,0,28.891,0V0H154z M155,100c0,0-4.877,0-6.429,0
		c-1.405,0-5.571-2.871-5.571-6.75c0-2.838,0-47.771,0-49.991c0-2.855,2.179-5.259,5.631-5.259c2.837,0,6.369,0,6.369,0V100z"/>
	<polygon fill="#5AE2DE" points="301,0 360,0 360,14 339,14 339,111 322,111 322,14 301,14 	"/>
	<path fill="#5AE2DE" d="M357,58h17c0,0,0,64.75,0,71.455c0,14.883-7.928,19.572-14.38,22.356
		c-6.451,2.783-17.737,2.183-23.05-1.231c-5.314-3.418-10.146-8.58-10.146-19.58H357V58z"/>
	<path fill="#EFAF3B" d="M118,63c0,0,0-15.816,0-21.607c0-5.792-1.828-13.297-12.631-16.259c-2.734-0.749-9.509-0.775-13.553,0
		C84.724,26.495,78,32.41,78,41.229c0,7.249,0,45.867,0,52.639c0,6.771,5.732,15.729,13.783,17.937c2.695,0.734,7.916,0.288,10.63,0
		c7.321-0.957,15.587-6.433,15.587-17.937v-12.13l-13-0.008c0,0,0,6.938,0,10.246c0,3.311-3.662,5.916-6.974,5.916
		c-3.309,0-6.026-2.131-6.026-5.916C92,86.303,92,63,92,63H118z M93.059,41.083c0.496-2.466,3.48-4.421,6.722-4.421
		s5.761,1.688,6.241,4.343c0.588,3.257,0,7.995,0,7.995H93.059C93.059,49,92.499,43.869,93.059,41.083z"/>
	<path fill="#EFAF3B" d="M209.086,113H193V20h16v4.969c0,0,1.337-2.215,6.181-2.236c4.848-0.023,7.609,1.466,9.632,4.175
		c0,0,3.548-4.198,8.512-4.257c4.963-0.06,9.879-0.436,14.389,3.917c4.51,4.354,4.762,9.409,4.778,13.192
		c0.019,3.783,0,71.24,0,71.24h-13.003c0,0,0.141-68.011,0-70.727c-0.161-3.12-3.039-4.238-4.991-4.215
		c-1.241,0.015-3.745,1.424-3.737,4.414c0.009,3.544,0,70.527,0,70.527h-13.113c0,0,0.1-69.135,0-70.55
		c-0.174-2.465-1.682-4.408-4.856-4.28c-2.539,0.104-3.712,2.638-3.704,4.411S209.086,113,209.086,113z"/>
	<path fill="#EFAF3B" d="M301,63c0,0,0-15.816,0-21.607c0-5.792-2.38-13.297-13.183-16.259c-2.734-0.749-9.233-0.775-13.274,0
		C267.448,26.495,261,32.41,261,41.229c0,7.249,0,45.867,0,52.639c0,6.771,5.184,15.729,13.23,17.937
		c2.695,0.734,8.193,0.288,10.908,0c7.32-0.957,15.861-6.433,15.861-17.937v-12.13l-14-0.008c0,0,0,6.938,0,10.246
		c0,3.311-3.162,5.916-6.472,5.916c-3.311,0-5.528-2.131-5.528-5.916C275,86.303,275,63,275,63H301z M274.955,41.083
		c0.496-2.466,3.48-4.421,6.722-4.421c3.24,0,5.762,1.688,6.241,4.343c0.588,3.257,0,7.995,0,7.995h-12.963
		C274.955,49,274.395,43.869,274.955,41.083z"/>
	<rect x="357" y="28" fill="#5AE2DE" width="17" height="19"/>
	<path fill="#EFAF3B" d="M28,14H17v12h5v12h-5v72H0c0,0,0-84.998,0-91.3C0,12.397,5.927,0,17.274,0C28.622,0,28,0,28,0V14z"/>
</g>
</svg>
