<?xml version="1.0" encoding="utf-8"?>
<!-- Generator: Adobe Illustrator 16.0.0, SVG Export Plug-In . SVG Version: 6.00 Build 0)  -->
<!DOCTYPE svg PUBLIC "-//W3C//DTD SVG 1.1//EN" "http://www.w3.org/Graphics/SVG/1.1/DTD/svg11.dtd">
<svg version="1.1" id="Layer_1" xmlns="http://www.w3.org/2000/svg" xmlns:xlink="http://www.w3.org/1999/xlink" x="0px" y="0px"
	 width="270.667px" height="270.667px" viewBox="0 0 270.667 270.667" enable-background="new 0 0 270.667 270.667"
	 xml:space="preserve">
<g>
	<path fill="#A9F9BC" d="M55.82,177.364c-0.007-0.009-0.013-0.021-0.02-0.032l4.712-4.976l5.232-5.588l0.031,0.029l5.928-6.262
		c13.416-16.551,28.06-27.834,44.264-12.391c0,0,60.727-59.362,45.445-120.307l-0.02-0.002L43.734,151.575
		c-4.446-12.648-6.729-25.296-6.729-37.64c0-26.638,10.374-51.682,29.209-70.517c18.836-18.836,43.88-29.209,70.519-29.209
		c11.029,0,21.783,1.781,31.937,5.204l9.163-10.392c-12.733-4.992-26.596-7.735-41.1-7.735c-62.216,0-112.651,50.436-112.651,112.65
		c0,25.325,8.409,50.282,22.556,73.234L55.82,177.364z"/>
	<path fill="#A9F9BC" d="M191.167,15.327v15.056v1.175V163h-69.563c0,23,19.261,43.285,43.021,43.285s42.971-19.15,42.971-42.89
		l-0.203-119.938c18.744,18.82,29.066,43.855,29.066,70.425c0,26.39-10.654,54.354-30.814,80.817
		c-17.531,23.013-41.835,44.168-68.958,60.096c-27.306-15.818-51.694-36.944-69.194-60.048c-1.478-1.951-2.9-3.908-4.274-5.876
		l-9.015,9.627c20.619,28.673,50.033,53.561,82.53,71.145c60.979-33.5,112.619-93.492,112.619-155.708
		C249.352,71.488,225.167,34.531,191.167,15.327z"/>
</g>
</svg>
