<?xml version="1.0" encoding="utf-8"?>
<!-- Generator: Adobe Illustrator 16.0.0, SVG Export Plug-In . SVG Version: 6.00 Build 0)  -->
<!DOCTYPE svg PUBLIC "-//W3C//DTD SVG 1.1//EN" "http://www.w3.org/Graphics/SVG/1.1/DTD/svg11.dtd">
<svg version="1.1" id="Layer_1" xmlns="http://www.w3.org/2000/svg" xmlns:xlink="http://www.w3.org/1999/xlink" x="0px" y="0px"
	 width="268.752px" height="221.242px" viewBox="0 0 268.752 221.242" enable-background="new 0 0 268.752 221.242"
	 xml:space="preserve">
<g>
	<g>
		<g>
			<path fill="#FFF0CA" d="M91.086,7C43.375,7,4.697,45.678,4.697,93.389c0,47.71,38.017,85.687,86.389,122.656
				c49.631-36.969,86.389-74.945,86.389-122.656C177.476,45.678,138.798,7,91.086,7z"/>
		</g>
	</g>
</g>
<g>
	<g>
		<g>
			<g>
				<path fill="#313D69" d="M148.356,120.346c0,0-0.082,0.108-0.245,0.322c-0.153,0.198-0.378,0.492-0.682,0.861
					c-0.614,0.729-1.501,1.801-2.726,3.07c-1.215,1.272-2.727,2.793-4.574,4.41c-1.838,1.627-3.981,3.396-6.452,5.164
					c-4.924,3.536-11.141,7.144-18.373,9.81c-3.61,1.337-7.463,2.43-11.462,3.187c-1.003,0.168-2.011,0.335-3.021,0.505
					c-1.019,0.122-2.04,0.245-3.062,0.369c-1.059,0.077-2.119,0.151-3.18,0.23c-1.018,0.048-1.961,0.056-2.946,0.09l-0.365,0.009
					l-0.19,0.004l-0.097-0.004l-0.195-0.006l-0.776-0.019l-1.553-0.041c-1.035-0.015-2.065-0.131-3.095-0.19
					c-2.057-0.167-4.095-0.442-6.101-0.798c-4.014-0.7-7.885-1.774-11.512-3.085c-3.629-1.312-7.01-2.882-10.091-4.561
					c-3.081-1.686-5.86-3.488-8.318-5.279c-2.462-1.792-4.59-3.587-6.408-5.246c-1.828-1.647-3.315-3.193-4.509-4.497
					c-0.935-1.009-1.667-1.893-2.227-2.587c-0.352,1.227-0.519,2.452-0.554,3.479c-0.042,0.891,0.004,1.636,0.046,2.142
					c0.024,0.251,0.047,0.445,0.065,0.565c0.017,0.108,0.026,0.168,0.026,0.168l0.008,0.057c0.195,1.229-0.641,2.381-1.869,2.574
					c-1.228,0.196-2.381-0.643-2.576-1.866c-0.004-0.038-0.011-0.079-0.015-0.114c0,0-0.011-0.109-0.034-0.312
					c-0.018-0.193-0.037-0.457-0.051-0.794c-0.023-0.667-0.033-1.603,0.074-2.723c0.102-1.115,0.309-2.422,0.72-3.789
					c0.201-0.685,0.459-1.382,0.769-2.076c0.311-0.692,0.683-1.378,1.106-2.031c0.209-0.329,0.448-0.642,0.677-0.956
					c0.253-0.298,0.485-0.61,0.755-0.886c0.268-0.277,0.526-0.562,0.813-0.806c0.277-0.258,0.558-0.501,0.853-0.717
					c0.145-0.11,0.289-0.223,0.431-0.331c0.149-0.098,0.296-0.194,0.442-0.292c0.291-0.197,0.58-0.377,0.872-0.528
					c0.572-0.337,1.142-0.576,1.662-0.809c0.531-0.19,1.01-0.396,1.45-0.509c0.436-0.124,0.813-0.251,1.13-0.31
					c0.629-0.138,0.988-0.217,0.988-0.217c0.934-0.204,1.854,0.388,2.06,1.319c0.197,0.902-0.35,1.798-1.232,2.037l-0.121,0.034
					c0,0-0.293,0.078-0.806,0.217c-0.261,0.06-0.554,0.18-0.9,0.296c-0.352,0.104-0.711,0.29-1.123,0.455
					c-0.387,0.202-0.82,0.402-1.229,0.676c-0.216,0.123-0.422,0.268-0.626,0.423c-0.103,0.075-0.208,0.149-0.313,0.229
					c-0.099,0.084-0.2,0.171-0.3,0.257c-0.207,0.166-0.399,0.352-0.587,0.545c-0.201,0.183-0.371,0.4-0.554,0.606
					c-0.049,0.052-0.092,0.114-0.138,0.172c0.155,0.139,0.34,0.306,0.582,0.521c0.655,0.588,1.659,1.419,2.946,2.462
					c1.292,1.035,2.906,2.241,4.782,3.573c1.886,1.318,4.065,2.727,6.495,4.149c4.856,2.842,10.77,5.688,17.379,7.724
					c3.301,1.026,6.773,1.835,10.335,2.39c1.779,0.28,3.587,0.47,5.401,0.613c0.91,0.046,1.819,0.148,2.732,0.15l1.371,0.024
					l0.685,0.015l0.17,0.004l0.072,0.002h0.008l0.365-0.008c0.964-0.026,1.973-0.028,2.899-0.067
					c0.883-0.06,1.764-0.118,2.643-0.176c0.907-0.098,1.812-0.191,2.715-0.285c0.899-0.131,1.795-0.26,2.688-0.389
					c0.888-0.165,1.773-0.33,2.653-0.492c0.876-0.193,1.747-0.386,2.614-0.577c0.86-0.225,1.714-0.447,2.563-0.67
					c0.298-0.088,0.589-0.175,0.885-0.261c0.247-1.331,0.395-3.055,0.447-5.098c0.04-1.466,0.082-3.053,0.128-4.73
					c0.058-1.715,0.167-3.558,0.465-5.504c0.29-1.938,0.77-4.014,1.692-6.059c0.903-2.044,2.374-4.018,4.218-5.529
					c0.47-0.36,0.949-0.717,1.446-1.032l0.759-0.442c0.253-0.153,0.511-0.283,0.775-0.396l0.785-0.358l0.196-0.088l0.255-0.1
					l0.341-0.126l0.681-0.252c0.243-0.084,0.552-0.172,0.826-0.256c0.566-0.183,1.118-0.301,1.668-0.413
					c0.548-0.121,1.131-0.176,1.699-0.243c1.16-0.088,2.359-0.039,3.548,0.194c1.189,0.251,2.347,0.725,3.358,1.36
					c1.008,0.643,1.877,1.434,2.539,2.291c1.355,1.709,2.053,3.532,2.453,5.177c0.408,1.65,0.502,3.163,0.482,4.483
					c-0.017,1.043-0.127,1.964-0.26,2.762c0.713-0.519,1.368-1.01,1.956-1.465c1.307-1.021,2.329-1.834,2.995-2.411
					c0.648-0.558,0.996-0.854,0.996-0.854l0.09-0.078c0.787-0.678,1.974-0.588,2.647,0.198
					C148.875,118.668,148.883,119.657,148.356,120.346z"/>
			</g>
		</g>
		<g>
			<path fill="#F69571" d="M136.004,122.912c-0.035-0.784-0.14-1.731-0.327-2.789c-0.193-1.054-0.465-2.226-0.919-3.383
				c-0.439-1.159-1.059-2.305-1.864-3.187c-0.402-0.445-0.842-0.818-1.339-1.097c-0.492-0.285-1.025-0.506-1.634-0.631
				c-0.612-0.118-1.286-0.159-2.011-0.111c-0.368,0.047-0.736,0.068-1.12,0.154c-0.386,0.078-0.774,0.153-1.125,0.262
				c-0.188,0.055-0.347,0.086-0.563,0.155l-0.686,0.24l-0.343,0.119l-0.079,0.028l-0.007,0.004l-0.136,0.06l-0.548,0.238
				c-0.381,0.138-0.69,0.368-1.047,0.537c-0.334,0.198-0.648,0.419-0.965,0.637c-1.208,0.934-2.21,2.123-2.919,3.579
				c-0.716,1.443-1.251,3.058-1.592,4.729c-0.345,1.667-0.574,3.359-0.777,4.999c-0.2,1.638-0.34,3.229-0.548,4.72
				c-0.173,1.278-0.364,2.482-0.608,3.589c2.958-1.026,5.758-2.19,8.379-3.424c0.167-0.424,0.338-0.88,0.513-1.365
				c0.257-0.756,0.522-1.568,0.738-2.393c0.112-0.41,0.22-0.823,0.306-1.231c0.097-0.408,0.179-0.812,0.245-1.202
				c0.079-0.394,0.138-0.773,0.182-1.135c0.05-0.359,0.101-0.704,0.12-1.019c0.027-0.314,0.053-0.606,0.075-0.862
				c0.007-0.257,0.014-0.479,0.018-0.663c0.012-0.371,0.019-0.582,0.019-0.582l0.002-0.102c0.023-0.792,0.687-1.415,1.479-1.389
				c0.725,0.019,1.307,0.576,1.384,1.276c0,0,0.027,0.236,0.073,0.655c0.022,0.21,0.051,0.465,0.082,0.757
				c0.016,0.292,0.034,0.621,0.053,0.98c0.026,0.359,0.024,0.749,0.024,1.161c0.007,0.412-0.001,0.846-0.026,1.293
				c-0.014,0.449-0.042,0.912-0.087,1.38c-0.034,0.469-0.089,0.942-0.149,1.416c-0.02,0.17-0.05,0.337-0.073,0.507
				c0.669-0.365,1.324-0.731,1.958-1.095c2.164-1.247,4.124-2.472,5.869-3.638c0.004-0.098,0.008-0.212,0.014-0.354
				C136.036,124.311,136.062,123.699,136.004,122.912z"/>
		</g>
	</g>
	<polygon fill="#313D69" points="184.876,26.121 249.876,26.121 249.876,42.121 226.876,42.121 226.876,149.121 207.876,149.121 
		207.876,42.121 184.876,42.121 	"/>
	<path fill="#313D69" d="M245.876,90.121h19c0,0,0,69.019,0,76.329c0,16.226-8.651,21.341-15.687,24.374
		c-7.035,3.036-19.343,2.373-25.134-1.35c-5.797-3.725-11.068-9.354-11.068-21.354h32.889V90.121z"/>
	<rect x="245.876" y="57.121" fill="#313D69" width="19" height="19"/>
</g>
</svg>
