<?xml version="1.0" encoding="utf-8"?>
<!-- Generator: Adobe Illustrator 16.0.0, SVG Export Plug-In . SVG Version: 6.00 Build 0)  -->
<!DOCTYPE svg PUBLIC "-//W3C//DTD SVG 1.1//EN" "http://www.w3.org/Graphics/SVG/1.1/DTD/svg11.dtd">
<svg version="1.1" id="Layer_1" xmlns="http://www.w3.org/2000/svg" xmlns:xlink="http://www.w3.org/1999/xlink" x="0px" y="0px"
	 width="240.5px" height="271.5px" viewBox="0 0 240.5 271.5" enable-background="new 0 0 240.5 271.5" xml:space="preserve">
<path fill="#A9F9BC" d="M13.5,3.5v240.179c0,8.379,7.344,15.321,15.722,15.321h28.823c8.379,0,14.455-6.942,14.455-15.321v-18.365
	c0-29.454,4.253-52.083,27.64-56.634C100.14,168.68,100.646,51.603,13.5,3.5z M74.5,118h-18v16h10v20h-10v87h-26
	c0,0,0-106.997,0-116.953C30.5,114.089,39.6,94,57.527,94C75.454,94,74.5,94,74.5,94V118z"/>
<polygon fill="#A9F9BC" points="102.5,54 193.5,54 193.5,77 162.5,77 162.5,203 136.5,203 136.5,77 102.5,77 "/>
<path fill="#A9F9BC" d="M190.5,144h29c0,0,0,76.983,0,87.577c0,23.514-13.564,30.921-23.759,35.319
	c-10.191,4.397-28.54,3.438-36.935-1.957C150.412,259.543,142.258,250,142.258,234H190.5V144z"/>
<rect x="190.5" y="97" fill="#A9F9BC" width="29" height="29"/>
</svg>
