<?xml version="1.0" encoding="utf-8"?>
<!-- Generator: Adobe Illustrator 16.0.0, SVG Export Plug-In . SVG Version: 6.00 Build 0)  -->
<!DOCTYPE svg PUBLIC "-//W3C//DTD SVG 1.1//EN" "http://www.w3.org/Graphics/SVG/1.1/DTD/svg11.dtd">
<svg version="1.1" id="Layer_1" xmlns="http://www.w3.org/2000/svg" xmlns:xlink="http://www.w3.org/1999/xlink" x="0px" y="0px"
	 width="240.5px" height="271.5px" viewBox="0 0 240.5 271.5" enable-background="new 0 0 240.5 271.5" xml:space="preserve">
<path fill="#A9F9BC" d="M13.5,3.5v237.021c0,8.269,7.247,15.479,15.516,15.479h28.444c8.269,0,14.041-7.211,14.041-15.479v-18.124
	c0-29.066,4.31-51.398,27.389-55.889C98.889,166.508,99.5,50.97,13.5,3.5z"/>
<polygon fill="#A9F9BC" points="101.5,53 191.5,53 191.5,76 160.5,76 160.5,200 134.5,200 134.5,76 101.5,76 "/>
<path fill="#A9F9BC" d="M188.5,142h28c0,0,0,76.124,0,86.578c0,23.204-13.24,30.515-23.301,34.854
	c-10.058,4.34-28.093,3.409-36.376-1.915C148.539,256.191,140.565,247,140.565,231H188.5V142z"/>
<rect x="188.5" y="96" fill="#A9F9BC" width="28" height="28"/>
</svg>
