<?xml version="1.0" encoding="utf-8"?>
<!-- Generator: Adobe Illustrator 16.0.0, SVG Export Plug-In . SVG Version: 6.00 Build 0)  -->
<!DOCTYPE svg PUBLIC "-//W3C//DTD SVG 1.1//EN" "http://www.w3.org/Graphics/SVG/1.1/DTD/svg11.dtd">
<svg version="1.1" id="Layer_1" xmlns="http://www.w3.org/2000/svg" xmlns:xlink="http://www.w3.org/1999/xlink" x="0px" y="0px"
	 width="240.5px" height="271.5px" viewBox="0 0 240.5 271.5" enable-background="new 0 0 240.5 271.5" xml:space="preserve">
<path fill="#A9F9BC" d="M154.5,157.383c0-34.947,17-47.96,44-47.79c0,0,0,77.204,0,94.102c0,37.504-20.271,57.043-55.525,63.67
	c-17.401,3.27-45.969-2.152-59.357-10.756C70.225,247.997,53.265,235,53.265,208H154.5C154.5,208,154.5,192.327,154.5,157.383z"/>
<path fill="#A9F9BC" d="M52.5,1.053V179h79v-5.087c0-46.979,6.134-90.01,59.523-90.333C191.023,83.58,155.788,1.053,52.5,1.053z"/>
</svg>
