<?xml version="1.0" encoding="utf-8"?>
<!-- Generator: Adobe Illustrator 16.0.0, SVG Export Plug-In . SVG Version: 6.00 Build 0)  -->
<!DOCTYPE svg PUBLIC "-//W3C//DTD SVG 1.1//EN" "http://www.w3.org/Graphics/SVG/1.1/DTD/svg11.dtd">
<svg version="1.1" id="Layer_1" xmlns="http://www.w3.org/2000/svg" xmlns:xlink="http://www.w3.org/1999/xlink" x="0px" y="0px"
	 width="1200px" height="630px" viewBox="0 0 1200 630" enable-background="new 0 0 1200 630" xml:space="preserve">
<rect fill-rule="evenodd" clip-rule="evenodd" fill="#DFF7F6" width="1200" height="295"/>
<rect y="295" fill="#F9F9F9" width="1198" height="335"/>
<rect y="295" fill="#313D69" width="1200" height="103"/>
<g>
	<path fill="#F69571" d="M431,132c0,0,0-17.61,0-23.991c0-6.382-1.559-14.653-13.464-17.917c-3.016-0.825-9.668-0.854-14.122,0
		C395.597,91.592,389,98.11,389,107.828c0,7.988,0,50.539,0,58.003c0,7.459,5.734,17.332,14.604,19.764
		c2.968,0.81,7.977,0.318,10.966,0c8.068-1.054,16.431-7.088,16.431-19.764v-13.367l-13-0.007c0,0,0,7.644,0,11.29
		s-3.874,6.518-7.52,6.518c-3.648,0-6.48-2.348-6.48-6.518c0-6.252,0-31.748,0-31.748H431z M404.425,106.972
		c0.546-2.718,3.834-4.525,7.405-4.525c3.572,0,6.35,1.339,6.877,4.265c0.648,3.589,0,8.288,0,8.288h-14.282
		C404.425,115,403.809,110.041,404.425,106.972z"/>
	<path fill="#F69571" d="M525,63v27c0,0-0.58,0-11.176,0C503.231,90,495,99.618,495,108.433c0,8.818,0,49.762,0,60.529
		C495,179.726,505.997,185,512.435,185S546,185,546,185V63H525z M525,173c0,0-3.735,0-5.444,0c-1.549,0-6.556-3.575-6.556-7.849
		c0-3.127,0-52.64,0-55.086c0-3.146,2.818-7.065,6.621-7.065c3.125,0,5.379,0,5.379,0V173z"/>
	<polygon fill="#313D69" points="687,63 751,63 751,78 729,78 729,185 710,185 710,78 687,78 	"/>
	<path fill="#313D69" d="M750,125h17c0,0,0,72.655,0,80.044c0,16.4-8.259,21.567-15.365,24.636
		c-7.111,3.066-19.308,2.53-25.161-1.23c-5.858-3.768-10.942-9.449-10.942-21.449H750V125z"/>
	<path fill="#F69571" d="M486,132c0,0,0-17.61,0-23.991c0-6.382-2.077-14.653-13.982-17.917c-3.011-0.825-10.907-0.854-15.363,0
		C448.837,91.592,441,98.11,441,107.828c0,7.988,0,50.539,0,58.003c0,7.459,6.713,17.332,15.585,19.764
		c2.97,0.81,8.986,0.318,11.978,0c8.065-1.054,17.437-7.088,17.437-19.764v-13.367l-16-0.007c0,0,0,7.644,0,11.29
		s-2.372,6.518-6.02,6.518s-4.98-2.348-4.98-6.518c0-6.252,0-31.748,0-31.748H486z M458.385,106.972
		c0.547-2.718,3.837-4.525,7.407-4.525c3.572,0,6.348,1.339,6.877,4.265c0.648,3.589,0,8.288,0,8.288h-14.285
		C458.385,115,457.768,110.041,458.385,106.972z"/>
	<path fill="#F69571" d="M586.236,188H568V86h17v3.912c0,0,2.046-2.44,7.383-2.463c5.341-0.026,8.67,1.614,10.9,4.601
		c0,0,4.048-4.626,9.518-4.691c5.469-0.065,10.957-0.481,15.927,4.316c4.972,4.797,5.282,10.514,5.301,14.681
		c0.022,4.17,0.036,78.646,0.036,78.646h-14.329c0,0,0.158-75.087,0-78.08c-0.177-3.436-3.349-4.743-5.497-4.716
		c-1.371,0.017-4.13,1.678-4.119,4.974c0.008,3.905,0,77.822,0,77.822h-14.45c0,0,0.109-76.326,0-77.885
		c-0.192-2.715-1.854-4.93-5.351-4.788c-2.798,0.114-4.09,3.415-4.083,5.368C586.246,109.647,586.236,188,586.236,188z"/>
	<path fill="#F69571" d="M687,132c0,0,0-17.61,0-23.991c0-6.382-2.365-14.653-14.266-17.917c-3.016-0.825-10.768-0.854-15.222,0
		C649.698,91.592,642,98.11,642,107.828c0,7.988,0,50.539,0,58.003c0,7.459,6.432,17.332,15.3,19.764c2.97,0.81,9.129,0.318,12.12,0
		c8.065-1.054,17.58-7.088,17.58-19.764v-13.367l-15-0.007c0,0,0,7.644,0,11.29s-2.873,6.518-6.521,6.518
		c-3.646,0-5.479-2.348-5.479-6.518c0-6.252,0-31.748,0-31.748H687z M658.817,106.972c0.548-2.718,3.835-4.525,7.405-4.525
		s6.351,1.339,6.881,4.265c0.646,3.589,0,8.288,0,8.288h-14.286C658.817,115,658.201,110.041,658.817,106.972z"/>
	<rect x="750" y="94" fill="#313D69" width="17" height="19"/>
	<path fill="#F69571" d="M386,78h-13v12h9v13h-9v80h-17c0,0,0-93.052,0-99.996C356,76.058,362.375,63,374.88,63
		c12.504,0,11.12,0,11.12,0V78z"/>
</g>
<path fill="#FFF0CA" d="M923.329,295c0,0,113.929-28.162,144.479-51.711c30.551-23.55,45.188-35.085,37.127-71.576
	c-8.062-36.491-53.464-69.203-112.019-77.265c-58.556-8.062-117.96-13.598-117.535-39.481s60.996-26.635,68.952-26.953
	c7.955-0.318,29.596-3.188,30.868-6.688c1.273-3.5-13.048-7.003-18.775-8.277c-5.729-1.272-39.143-6.049-47.1-13.05H1199v295
	H923.329z"/>
<g>
	<polygon fill="#F3F9D9" points="1151.979,91.864 1149.255,122.627 1200,128.992 1200,114.777 1175.035,93.349 	"/>
	<polygon fill="#F3F9D9" points="1182.472,93 1200,108.2 1200,93 	"/>
	<path fill="#F3F9D9" d="M1044.835,91.864c36.49,12.093,67.466,41.795,67.466,41.795l8.062-14.851l20.579,2.758l4.243-29.702
		c-53.039-4.667-90.166-15.699-90.166-15.699L1044.835,91.864z"/>
	<path fill="#F3F9D9" d="M1124.128,44.149L1114.634,36h-26.731c0,0-4.004,7.575-4.322,8.106
		C1083.262,44.636,1124.128,44.149,1124.128,44.149z"/>
</g>
<g>
	<path fill="#DFF7F6" d="M1028.604,43.309C1017.891,37.898,1010.889,27,1010.889,27h-16.973c0.425,8-6.922,10.686-6.922,10.686
		c5.065,6.524,12.598,12.828,30.578,21.262c17.98,8.433,41.053,13.777,41.053,13.777l10.607-14.184
		C1052.153,54.297,1039.317,48.718,1028.604,43.309z"/>
	<path fill="#DFF7F6" d="M1121.675,67.068c-30.551-2.308-47.762-7.24-47.762-7.24l-8.917,14.48
		c8.59,2.077,34.405,7.479,57.158,10.024c22.754,2.546,77.846,5.41,77.846,5.41v-21.64C1200,68.102,1152.225,69.375,1121.675,67.068
		z"/>
	<path fill="#DFF7F6" d="M993.174,23h16.999c0,0,1.393-5.493-0.835-9.073c-2.229-3.581-7.28-8.676-23.987-13.927h-40.018
		c0,0,20.292,2.231,32.635,8.383C990.31,14.537,992.432,19,993.174,23z"/>
	<path fill="#DFF7F6" d="M1200,22.913l-0.079-8.38C1155.846,4.084,1128,0,1128,0h-31.188c0,0,24.226,4.296,52.337,9.441
		C1177.261,14.586,1200,22.913,1200,22.913z"/>
</g>
<g>
	<path fill="#FFF6E3" d="M1129.933,281c0,0-5.304,8-12.306,14h60.677l-7.638-14H1129.933z"/>
	<path fill="#FFF6E3" d="M1135.024,274h49.645l13.26,15.625l0.106-30.625h-54.525C1140.752,264,1135.024,274,1135.024,274z"/>
	<path fill="#FFF6E3" d="M1146.48,248h28.854l-23.762-22.701C1150.512,239.726,1146.48,248,1146.48,248z"/>
	<polygon fill="#FFF6E3" points="1198,246.738 1198,228.069 1186.568,231.039 1181.14,226.106 1198,221.969 1198,207.891 
		1169.386,215.339 1164.906,211.096 1198,202.397 1198,190.092 1150.901,202.822 	"/>
	<path fill="#FFF6E3" d="M1150.289,197.942L1198,184.577v-7.956l-49.854,14.214C1148.146,190.835,1149.652,194.442,1150.289,197.942
		z"/>
	<path fill="#FFF6E3" d="M1145.42,182.455l36.643-10.275l4.94-37.672l-60.04-8.911l-8.487,16.972
		C1135.448,158.057,1145.42,182.455,1145.42,182.455z"/>
	<path fill="#FFF6E3" d="M995.796,77.013c24.504,5.091,40.467,11.615,40.467,11.615l11.565-13.843
		c-11.416-3.042-33.574-11.774-33.574-11.774L995.796,77.013z"/>
	<path fill="#FFF6E3" d="M995.796,52.827l-27.368,11.774l19.89,11.218l20.526-15.514C1002.552,57.255,995.796,52.827,995.796,52.827
		z"/>
	<path fill="#FFF6E3" d="M953.63,70.966c0,0,7.479,1.432,22.595,3.819L962.7,67.148L953.63,70.966z"/>
	<polygon fill="#FFF6E3" points="937.399,52.827 954.426,44.553 928.489,45.667 917.033,50.122 913.691,59.669 925.147,67.148 
		942.65,69.057 956.176,63.011 	"/>
	<path fill="#FFF6E3" d="M898.416,56.805c0,0,2.705,2.228,5.729,3.5c0,0,6.205-3.66,5.569-10.184
		C909.714,50.122,904.939,50.44,898.416,56.805z"/>
	<path fill="#FFF6E3" d="M962.541,61.419l13.684-5.569c-7.638-4.456-16.866-8.911-16.866-8.911l-13.207,5.888L962.541,61.419z"/>
	<path fill="#FFF6E3" d="M989.75,50.122l-9.865-10.024c-6.524,0.637-16.071,4.455-16.071,4.455l16.15,8.566L989.75,50.122z"/>
	<polygon fill="#FFF6E3" points="1198,64.283 1198,44.543 1172.701,64.204 	"/>
	<path fill="#FFF6E3" d="M1172.735,36.279c0,0-1.592,3.182-9.229,7.16s-24.345,4.296-24.345,4.296l19.73,16.548l34.847-24.663
		L1172.735,36.279z"/>
	<path fill="#FFF6E3" d="M1173.434,34.623L1198,38.268V27h-30.039C1173.849,29,1173.434,34.623,1173.434,34.623z"/>
	<path fill="#FFF6E3" d="M1161.278,27h-37.393l-2.758,6.213l13.153,11.397c23.019-2.025,29.94-7.032,30.339-11.168
		C1165.018,29.305,1161.278,27,1161.278,27z"/>
	<polygon fill="#FFF6E3" points="1142.025,63.991 1125.371,48 1107.338,48 1120.492,62.891 	"/>
	<path fill="#FFF6E3" d="M1073.711,47.842l-19.731-10.29l-21.108,4.88c0,0,16.018,7.955,38.188,13.843s43.067,7.373,43.067,7.373
		l-14.002-15.275L1073.711,47.842z"/>
	<path fill="#FFF6E3" d="M1028.521,40.098l21.852-4.667l-14.11-8.486l-22.062,0.424C1020.777,35.96,1028.521,40.098,1028.521,40.098
		z"/>
	<path fill="#FFF6E3" d="M1034.711,23L1024.21,6.938l-14.48,2.1c0,0,2.175,0.882,3.766,4.382c1.591,3.501,0.213,9.58,0.213,9.58
		H1034.711z"/>
	<path fill="#FFF6E3" d="M1029.62,3.925L1015.086,0h-23.761c0,0,10.29,3.501,16.654,7.85L1029.62,3.925z"/>
	<polygon fill="#FFF6E3" points="1038.636,4.626 1029.62,6.018 1032.166,10 1042.35,10 	"/>
	<polygon fill="#FFF6E3" points="1049.351,12 1033.438,12 1035.984,16 1063.776,16 1051.26,2.235 1042.879,4.209 	"/>
	<polygon fill="#FFF6E3" points="1047.865,0.743 1047.017,0 1022.725,0 1033.173,2.97 	"/>
	<polygon fill="#FFF6E3" points="1063.83,19 1037.575,19 1040.439,23 1060.382,23 	"/>
	<polygon fill="#FFF6E3" points="1080.394,34.264 1063.104,27.368 1043.16,26.944 1073.498,43.068 	"/>
	<polygon fill="#FFF6E3" points="1112.854,32.5 1116.46,26.071 1097.896,20 1068.831,20 1066.285,24.533 1084.637,31.997 	"/>
	<polygon fill="#FFF6E3" points="1151.572,23 1111.05,11.851 1102.723,17.749 1118.582,23 	"/>
	<polygon fill="#FFF6E3" points="1112.96,10.29 1135.661,16.548 1147.224,11.245 1118.582,6.365 	"/>
	<path fill="#FFF6E3" d="M1153.27,12.73l-12.094,4.614c11.032,2.917,16.549,5.569,16.549,5.569l31.823-0.53
		C1174.379,17.185,1153.27,12.73,1153.27,12.73z"/>
	<path fill="#FFF6E3" d="M1198,12.73V9.441l-10.077,0.424C1195.029,11.457,1198,12.73,1198,12.73z"/>
	<path fill="#FFF6E3" d="M1086.583,4l14.852,10.623l13.578-8.616l-17.927-3.789c-19.519-0.69-40.522,0.048-40.522,0.048L1058.368,4
		H1086.583z"/>
	<polygon fill="#FFF6E3" points="1098.04,16 1092.259,11.819 1065.21,11.523 1069.505,16 	"/>
	<polygon fill="#FFF6E3" points="1059.533,6 1063.14,10 1089.235,10 1085.311,6 	"/>
	<path fill="#FFF6E3" d="M1135.024,0c0,0,13.243,2.228,22.578,3.713L1198,4.879V0H1135.024z"/>
</g>
<g>
	<g>
		<linearGradient id="SVGID_1_" gradientUnits="userSpaceOnUse" x1="1057.2285" y1="183.2915" x2="1107.1221" y2="229.1123">
			<stop  offset="0" style="stop-color:#D67940"/>
			<stop  offset="1" style="stop-color:#FCB497"/>
		</linearGradient>
		<path fill="url(#SVGID_1_)" d="M1113.945,203.167c0-17.323-14.043-31.366-31.365-31.366c-17.323,0-31.366,14.043-31.366,31.366
			c0,25.711,31.366,48.875,31.366,48.875S1113.945,228.878,1113.945,203.167z"/>
		<path fill="#F69571" d="M1110.622,204.095c0-15.487-12.556-28.042-28.042-28.042c-15.487,0-28.043,12.555-28.043,28.042
			c0,22.986,28.043,43.697,28.043,43.697S1110.622,227.081,1110.622,204.095z"/>
	</g>
</g>
<radialGradient id="SVGID_2_" cx="1083.7969" cy="264.6738" r="18.0489" gradientTransform="matrix(1 0 0 0.4 0 158.8043)" gradientUnits="userSpaceOnUse">
	<stop  offset="0" style="stop-color:#AD9000;stop-opacity:0.3"/>
	<stop  offset="1" style="stop-color:#82711E;stop-opacity:0"/>
</radialGradient>
<ellipse fill="url(#SVGID_2_)" cx="1083.797" cy="264.673" rx="23.795" ry="9.235"/>
<g>
	<path fill="#FFFFFF" d="M1101,192.993c0,1.162-2.438,4.007-3.601,4.007h-28.765c-1.16,0-3.635-2.845-3.635-4.007v-0.702
		c0-2.105,2.082-3.42,4.977-4.209c6.947-1.895,18.114-2.308,25.683,0c2.279,0.695,5.341,1.931,5.341,4.209V192.993z"/>
	<path fill="#FFFFFF" d="M1065,215.785c0-1.164,2.475-3.785,3.635-3.785h28.765c1.162,0,3.601,2.621,3.601,3.785v0.702
		c0,2.106-2.064,3.419-4.955,4.209c-6.949,1.896-18.128,2.308-25.695,0c-2.28-0.694-5.35-1.93-5.35-4.209V215.785z"/>
	<rect x="1065" y="206" fill="#FFFFFF" width="36" height="4"/>
	<g>
		<path fill="#FFFFFF" d="M1066.016,204.125c-0.304,0-0.605-0.117-0.833-0.346c-0.461-0.46-0.461-1.207,0-1.666
			c2.183-2.183,4.899-4.903,8.768-2.194c2.883,2.016,5.678,2.187,8.553,0.523c3.628-2.106,6.05-2.634,9.988,0.045
			c2.787,1.896,3.637,1.315,5.687-0.649c0.469-0.45,1.217-0.434,1.665,0.035c0.45,0.471,0.433,1.217-0.034,1.667
			c-2.743,2.626-4.833,3.487-8.644,0.895c-2.801-1.906-4.129-1.896-7.482,0.047c-3.645,2.11-7.477,1.892-11.08-0.629
			c-2.048-1.436-3.265-0.563-5.757,1.927C1066.615,204.009,1066.314,204.125,1066.016,204.125z"/>
	</g>
</g>
<g>
	<linearGradient id="SVGID_3_" gradientUnits="userSpaceOnUse" x1="1145.1055" y1="67.7319" x2="1165.5754" y2="86.531">
		<stop  offset="0" style="stop-color:#D67940"/>
		<stop  offset="1" style="stop-color:#FCB497"/>
	</linearGradient>
	<path fill="url(#SVGID_3_)" d="M1168.376,75.887c0-7.107-5.762-12.869-12.869-12.869s-12.869,5.762-12.869,12.869
		c0,10.549,12.869,20.053,12.869,20.053S1168.376,86.436,1168.376,75.887z"/>
	<path fill="#F69571" d="M1167.012,76.267c0-6.354-5.15-11.505-11.505-11.505s-11.506,5.151-11.506,11.505
		c0,9.431,11.506,17.928,11.506,17.928S1167.012,85.698,1167.012,76.267z"/>
</g>
<g>
	<linearGradient id="SVGID_4_" gradientUnits="userSpaceOnUse" x1="1044.8125" y1="16.229" x2="1058.1914" y2="28.5159">
		<stop  offset="0" style="stop-color:#D67940"/>
		<stop  offset="1" style="stop-color:#FCB497"/>
	</linearGradient>
	<path fill="url(#SVGID_4_)" d="M1060.021,21.558c0-4.645-3.766-8.41-8.41-8.41c-4.646,0-8.411,3.766-8.411,8.41
		c0,6.895,8.411,13.106,8.411,13.106S1060.021,28.453,1060.021,21.558z"/>
	<path fill="#F69571" d="M1059.129,21.807c0-4.153-3.366-7.52-7.519-7.52c-4.153,0-7.52,3.367-7.52,7.52
		c0,6.164,7.52,11.717,7.52,11.717S1059.129,27.971,1059.129,21.807z"/>
</g>
<radialGradient id="SVGID_5_" cx="1155.5068" cy="103.0107" r="12.7765" gradientTransform="matrix(1 0 0 0.4 0 61.8064)" gradientUnits="userSpaceOnUse">
	<stop  offset="0" style="stop-color:#018CB8;stop-opacity:0.3"/>
	<stop  offset="1" style="stop-color:#21728A;stop-opacity:0"/>
</radialGradient>
<ellipse fill="url(#SVGID_5_)" cx="1155.507" cy="103.01" rx="16.845" ry="6.538"/>
<radialGradient id="SVGID_6_" cx="1051.7686" cy="39.0474" r="6.7665" gradientTransform="matrix(1 0 0 0.4 0 23.4284)" gradientUnits="userSpaceOnUse">
	<stop  offset="0" style="stop-color:#AD9000;stop-opacity:0.3"/>
	<stop  offset="1" style="stop-color:#82711E;stop-opacity:0"/>
</radialGradient>
<ellipse fill="url(#SVGID_6_)" cx="1051.769" cy="39.047" rx="8.921" ry="3.462"/>
<path fill="#FFFFFF" d="M1161.489,73h-0.538c-0.394,0,0.049-0.065-0.951,0.12v-1.374c0-0.297-0.363-0.746-0.661-0.746h-8.062
	c-0.297,0-0.276,0.449-0.276,0.746v11.535c0,0.296,0.178,0.719,0.475,0.719h8.062c0.298,0,0.463-0.422,0.463-0.719v-1.391
	c1,0.185,0.558,0.109,0.951,0.109h0.538c1.186,0,2.511-1.006,2.511-2.191v-4.838C1164,73.786,1162.675,73,1161.489,73z M1159,82.463
	c0,0.297-0.241,0.537-0.538,0.537h-5.924c-0.297,0-0.538-0.24-0.538-0.537v-6.926c0-0.297,0.241-0.537,0.538-0.537h5.924
	c0.297,0,0.538,0.24,0.538,0.537V82.463z M1163,79.925c0,0.594-0.481,1.075-1.075,1.075h-0.85c-0.594,0-1.075-0.481-1.075-1.075
	v-4.85c0-0.594,0.481-1.075,1.075-1.075h0.85c0.594,0,1.075,0.481,1.075,1.075V79.925z"/>
<g>
	<path fill-rule="evenodd" clip-rule="evenodd" fill="#FFFFFF" d="M1046.141,23.702c0.121-0.144,0.231-0.296,0.363-0.428
		c1.907-1.917,3.818-3.831,5.728-5.747c0.028-0.03,0.047-0.07,0.077-0.117c0.331,0.523,0.543,1.051,0.646,1.621
		c0.193,1.088,0.025,2.121-0.521,3.08c-0.535,0.939-1.318,1.601-2.332,1.984c-0.663,0.25-1.35,0.338-2.055,0.268
		c-0.683-0.068-1.316-0.289-1.905-0.639C1046.141,23.715,1046.141,23.708,1046.141,23.702z"/>
	<path fill-rule="evenodd" clip-rule="evenodd" fill="#FFFFFF" d="M1050.136,27.674c-0.085-0.183-0.178-0.363-0.257-0.549
		c-0.272-0.637-0.393-1.304-0.373-1.997c0.002-0.089,0.03-0.122,0.114-0.139c0.714-0.147,1.366-0.438,1.955-0.866
		c0.811-0.589,1.417-1.345,1.787-2.277c0.124-0.312,0.2-0.643,0.294-0.967c0.016-0.053,0.025-0.085,0.093-0.088
		c0.933-0.041,1.797,0.183,2.595,0.667c0.012,0.007,0.021,0.018,0.061,0.05c-0.041,0.027-0.082,0.045-0.111,0.075
		c-1.939,1.942-3.877,3.886-5.818,5.827c-0.097,0.097-0.211,0.177-0.317,0.264C1050.15,27.674,1050.143,27.674,1050.136,27.674z"/>
	<path fill-rule="evenodd" clip-rule="evenodd" fill="#FFFFFF" d="M1057.078,20.326c-0.057,0.178-0.111,0.356-0.169,0.533
		c-0.007,0.022-0.022,0.043-0.039,0.072c-0.946-0.61-1.979-0.902-3.115-0.866c0.028-1.132-0.257-2.167-0.876-3.112
		c0.166-0.105,0.338-0.162,0.52-0.194c0.031-0.005,0.062-0.015,0.091-0.022c0.106,0,0.214,0,0.32,0
		c0.012,0.007,0.023,0.017,0.036,0.02c0.576,0.104,0.97,0.428,1.181,0.977c0.011,0.033,0.052,0.064,0.087,0.078
		c0.43,0.165,0.726,0.461,0.893,0.89c0.015,0.04,0.057,0.083,0.095,0.098c0.436,0.166,0.734,0.464,0.89,0.902
		c0.036,0.099,0.06,0.203,0.088,0.304C1057.078,20.113,1057.078,20.22,1057.078,20.326z"/>
	<path fill-rule="evenodd" clip-rule="evenodd" fill="#FFFFFF" d="M1046.729,24.798c0.641,0.228,1.33,0.339,2.052,0.308
		c-0.017,0.733,0.097,1.433,0.356,2.123C1048.32,26.405,1047.517,25.594,1046.729,24.798z"/>
</g>
<g>
	<g>
		
			<image overflow="visible" opacity="0.75" width="365" height="258" xlink:href="E16E093795D5A315.png"  transform="matrix(1 0 0 1 63 426)">
		</image>
		<g>
			<path fill="#FFFFFF" d="M405,657.044c0,2.185-1.771,3.956-3.957,3.956H74.957c-2.186,0-3.957-1.771-3.957-3.956V437.956
				c0-2.185,1.771-3.956,3.957-3.956h326.086c2.186,0,3.957,1.771,3.957,3.956V657.044z"/>
		</g>
	</g>
	<g>
		
			<image overflow="visible" opacity="0.75" width="366" height="258" xlink:href="E16E093795D5A31B.png"  transform="matrix(1 0 0 1 424 426)">
		</image>
		<g>
			<path fill="#FFFFFF" d="M767,657.725c0,2.186-1.625,4.275-3.809,4.275H436.808c-2.184,0-3.808-2.09-3.808-4.275V438.298
				c0-2.186,1.625-4.298,3.808-4.298h326.383c2.184,0,3.809,2.112,3.809,4.298V657.725z"/>
		</g>
	</g>
	<g>
		
			<image overflow="visible" opacity="0.75" width="365" height="258" xlink:href="E16E093795D5A31C.png"  transform="matrix(1 0 0 1 786 426)">
		</image>
		<g>
			<path fill="#FFFFFF" d="M1129,657.044c0,2.185-1.771,3.956-3.956,3.956H798.956c-2.185,0-3.956-1.771-3.956-3.956V437.956
				c0-2.185,1.771-3.956,3.956-3.956h326.088c2.185,0,3.956,1.771,3.956,3.956V657.044z"/>
		</g>
	</g>
	<g id="HiS2o7_1_">
		
			<image overflow="visible" width="1080" height="1350" id="HiS2o7_2_" xlink:href="E16E093795D5A31F.jpg"  transform="matrix(0.2815 0 0 0.2815 809.6582 447.8711)">
		</image>
	</g>
	<g id="AmWI8e_1_">
		
			<image overflow="visible" width="1080" height="1080" id="AmWI8e_2_" xlink:href="E16E093795D5A31C.jpg"  transform="matrix(0.2815 0 0 0.2815 86.3418 447.8711)">
		</image>
	</g>
	<g id="_x38_PLpF2_1_">
		
			<image overflow="visible" width="1080" height="810" id="_x38_PLpF2_2_" xlink:href="E16E093795D5A31B.jpg"  transform="matrix(0.2815 0 0 0.2815 448 447.8711)">
		</image>
	</g>
</g>
<text transform="matrix(1 0 0 1 201.7773 350.125)"><tspan x="0" y="0" fill="#DFF7F6" font-family="'MyriadPro-Semibold'" font-size="31.6462">Publica y encuentra las más </tspan><tspan x="382.341" y="0" fill="#FFFFFF" font-family="'MyriadPro-Semibold'" font-size="31.6462">deliciosas</tspan><tspan x="515.918" y="0" fill="#DFF7F6" font-family="'MyriadPro-Semibold'" font-size="31.6462"> ofertas cerca de</tspan><tspan x="738.291" y="0" fill="#F69571" font-family="'MyriadPro-Semibold'" font-size="31.6462"> tí</tspan></text>
</svg>
